<?xml version="1.0" encoding="utf-8"?>
<!-- Generator: Adobe Illustrator 19.0.1, SVG Export Plug-In . SVG Version: 6.00 Build 0)  -->
<svg version="1.1" id="Слой_1" xmlns="http://www.w3.org/2000/svg" xmlns:xlink="http://www.w3.org/1999/xlink" x="0px" y="0px"
	 viewBox="0 0 100 100" style="enable-background:new 0 0 100 100;" xml:space="preserve">
<style type="text/css">
	.st0{fill:#92D437;}
	.st1{fill:#FFFFFF;}
</style>
<g>
	<path class="st0" d="M77.7,23.3c-5.4-10.7-15.8-17.4-27.6-18c-1.1,0-2.2,0-3.4,0c-11.9,0.5-22.2,7.3-27.6,18
		c-5.6,11-4.8,23.7,2.1,34L45.9,94c0.6,0.8,1.5,1.3,2.5,1.3s1.9-0.5,2.5-1.3l24.7-36.7C82.4,47,83.2,34.3,77.7,23.3z"/>
	<path class="st1" d="M48.2,39.9c3.5,0,9.3-1.2,13.9-4.1c0-2.3-5.2-17.4-5.3-17.7c-0.6-1.7-2.5-3.7-8.6-3.7s-8,2-8.6,3.7
		c-0.1,0.3-3,12.5-9.1,16.7C35,37.6,44.7,39.9,48.2,39.9z M44.7,20.8c2.9,2.3,6.4,3.5,9.8,4.1c0,1.2,0.3,4,0.3,4s3.1,0.1,3.2,0.2
		s0.1,0.3,0,0.8c-0.2,1-0.5,1.6-0.9,1.8c-0.3,0.2-0.8,0.1-1.5-0.3l-1.1-0.6L54,32c-1.3,3.2-2.3,5.3-5.2,5.6c-0.1,0-0.6,0.1-0.8,0.1
		s-0.6-0.1-0.8-0.1c-2.9-0.3-3.9-2.4-5.2-5.6l-0.5-1.2l-1.1,0.6c-0.7,0.3-1.3,0.5-1.6,0.3c-0.4-0.2-0.7-0.8-0.9-1.8
		c-0.1-0.5-0.1-0.8,0-0.8c0.1-0.1,3.2-0.2,3.2-0.2l0.3-2.8C43,24.3,43.7,23.8,44.7,20.8z"/>
	<path class="st1" d="M66.7,60.5C66.1,57,64,45.6,63.3,44.2l0,0c-0.9-1.7-7.9-3.6-9.4-3.6h-0.5l-0.3,0.3c-1.3,1.3-2.8,1.9-4.9,1.9
		s-3.6-0.6-4.9-1.9L43,40.6h-0.5c-1.6,0-8.6,1.9-9.4,3.6C32.4,45.6,30.6,57,30,60.5l-0.3,1.3h37.1L66.7,60.5z"/>
</g>
</svg>
