<?xml version="1.0" encoding="utf-8"?>
<!-- Generator: Adobe Illustrator 19.0.1, SVG Export Plug-In . SVG Version: 6.00 Build 0)  -->
<svg version="1.1" id="Слой_1" xmlns="http://www.w3.org/2000/svg" xmlns:xlink="http://www.w3.org/1999/xlink" x="0px" y="0px"
	 viewBox="0 0 100 100" style="enable-background:new 0 0 100 100;" xml:space="preserve">
<style type="text/css">
	.st0{fill:#FC363B;}
	.st1{fill:#FFFFFF;}
</style>
<g>
	<path class="st0" d="M79,22.7C73.6,12,63.2,5.3,51.4,4.7c-1.1,0-2.2,0-3.4,0c-11.9,0.5-22.2,7.3-27.6,18c-5.6,11-4.8,23.7,2.1,34
		l24.7,36.7c0.6,0.8,1.5,1.3,2.5,1.3s1.9-0.5,2.5-1.3l24.7-36.7C83.8,46.5,84.5,33.8,79,22.7z"/>
	<path class="st1" d="M49.7,14.6c-12.9,0-23.3,10.5-23.3,23.3c0,12.8,10.5,23.3,23.3,23.3S73,50.7,73,37.9
		C73,25.1,62.6,14.6,49.7,14.6z M49.1,32.3c0,2.8-1.9,5.2-4.5,5.9v11.4c0,0.9-0.7,1.6-1.6,1.6s-1.6-0.7-1.6-1.6V38.2
		c-2.6-0.7-4.5-3-4.5-5.9v-6.1c0-0.9,0.7-1.6,1.6-1.6s1.6,0.7,1.6,1.6v6.1c0,1,0.5,1.8,1.2,2.3v-8.5c0-0.9,0.7-1.6,1.6-1.6
		s1.6,0.7,1.6,1.6v8.5c0.8-0.5,1.2-1.4,1.2-2.3v-6.1c0-0.9,0.7-1.6,1.6-1.6c0.9,0,1.6,0.7,1.6,1.6v6.1H49.1z M62.5,32.4
		c0,2.8-1.9,5.2-4.4,5.9c0,1.7,0,5.2,0,11.4c0,0.9-0.8,1.6-1.6,1.6c-0.9,0-1.6-0.7-1.6-1.6c0-6.2,0-9.7,0-11.4
		c-2.6-0.7-4.5-3.1-4.5-5.9v-1.7c0-3.4,2.8-6.1,6.1-6.1c3.4,0,6.1,2.8,6.1,6.2v1.6L62.5,32.4L62.5,32.4z"/>
</g>
</svg>
