<?xml version="1.0" encoding="utf-8"?>
<!-- Generator: Adobe Illustrator 19.0.1, SVG Export Plug-In . SVG Version: 6.00 Build 0)  -->
<svg version="1.1" id="Слой_1" xmlns="http://www.w3.org/2000/svg" xmlns:xlink="http://www.w3.org/1999/xlink" x="0px" y="0px"
	 viewBox="0 0 100 100" style="enable-background:new 0 0 100 100;" xml:space="preserve">
<style type="text/css">
	.st0{fill:#FF8023;}
	.st1{fill:#FFFFFF;}
</style>
<g>
	<path class="st0" d="M79.8,23C74.4,12.3,64,5.6,52.2,5c-1.1,0-2.2,0-3.4,0c-11.9,0.5-22.2,7.3-27.6,18c-5.6,11-4.8,23.7,2.1,34
		L48,93.7c0.6,0.8,1.5,1.3,2.5,1.3s1.9-0.5,2.5-1.3L77.7,57C84.6,46.8,85.3,34,79.8,23z"/>
	<g>
		<path class="st1" d="M48,36.4c-0.6,0-1.1,0.5-1.1,1.1V45c0,0.6,0.5,1.1,1.1,1.1s1.1-0.5,1.1-1.1v-7.5C49.1,36.9,48.6,36.4,48,36.4
			z"/>
		<path class="st1" d="M43.4,36.4c-0.6,0-1.1,0.5-1.1,1.1V45c0,0.6,0.5,1.1,1.1,1.1s1.1-0.5,1.1-1.1v-7.5
			C44.5,36.9,44,36.4,43.4,36.4z"/>
		<path class="st1" d="M52.6,36.4c-0.6,0-1.1,0.5-1.1,1.1V45c0,0.6,0.5,1.1,1.1,1.1s1.1-0.5,1.1-1.1v-7.5
			C53.7,36.9,53.2,36.4,52.6,36.4z"/>
		<path class="st1" d="M57.2,36.4c-0.6,0-1.1,0.5-1.1,1.1V45c0,0.6,0.5,1.1,1.1,1.1s1.1-0.5,1.1-1.1v-7.5
			C58.3,36.9,57.8,36.4,57.2,36.4z"/>
		<path class="st1" d="M50.5,15c-11.9,0-21.6,9.7-21.6,21.6s9.7,21.6,21.6,21.6c11.9,0,21.6-9.7,21.6-21.6S62.4,15,50.5,15z
			 M62.5,35.8l-1.7,10.1c0,1-0.8,1.8-1.8,1.8H41.6c-1,0-1.8-0.8-1.8-1.8l-1.7-10.1c-0.7-0.5-1.1-1.3-1.1-2.3c0-1.6,1.3-2.9,2.9-2.9
			h0.2l4.3-6.3c0.3-0.5,1-0.6,1.6-0.3c0.5,0.3,0.6,1,0.3,1.6l-3.4,5h15l-3.4-5c-0.3-0.5-0.2-1.2,0.3-1.6c0.5-0.3,1.2-0.2,1.6,0.3
			l4.3,6.3l0,0c1.6,0,2.9,1.3,2.9,2.9C63.6,34.5,63.1,35.3,62.5,35.8z"/>
	</g>
</g>
</svg>
