<svg width="22" height="22" viewBox="0 0 22 22" fill="none" xmlns="http://www.w3.org/2000/svg">
<path d="M18.4509 2.90777C14.5361 -0.702221 8.59639 -0.982256 4.35978 2.24345C4.08822 2.45166 3.82448 2.67077 3.57107 2.90777C-0.904691 7.0018 -1.21537 13.9504 2.87736 18.4276C6.72227 22.6337 13.144 23.1997 17.665 19.7314C17.9366 19.5232 18.2 19.304 18.4534 19.067C22.9138 14.9663 23.2066 8.02469 19.1069 3.56286C18.8985 3.33564 18.6803 3.11765 18.4534 2.90888L18.4509 2.90777ZM17.9975 17.7887C17.461 17.3435 16.8835 16.9506 16.2725 16.6152C16.7841 14.9903 17.0624 13.3012 17.0989 11.5981H20.7458C20.5983 13.9236 19.6232 16.1197 17.9975 17.7887ZM17.0031 18.6917C16.9092 18.7655 16.8123 18.8334 16.7156 18.9036C16.5765 19.0042 16.4368 19.1031 16.2935 19.1959C16.1904 19.2624 16.0853 19.3247 15.9803 19.3876C15.8364 19.4731 15.6917 19.5556 15.5433 19.6319C15.4346 19.6892 15.3243 19.7442 15.2131 19.7973C15.0636 19.8694 14.9116 19.9365 14.7585 20.0005C14.6546 20.0433 14.5504 20.086 14.4453 20.1226C15.02 19.4069 15.4902 18.6126 15.8417 17.7641C16.2815 18.0137 16.7008 18.2974 17.0959 18.6123C17.0643 18.6392 17.035 18.6671 17.0031 18.6917ZM6.81084 19.7979C6.70076 19.7453 6.59208 19.6908 6.48423 19.6344C6.33476 19.5556 6.18753 19.472 6.04224 19.3854C5.93915 19.3242 5.83606 19.2632 5.73715 19.1973C5.59187 19.1031 5.45022 19.0025 5.30997 18.9005C5.2147 18.8314 5.11887 18.7644 5.02612 18.6917C4.99427 18.6674 4.96521 18.6392 4.93336 18.6143C5.32702 18.2988 5.7447 18.0145 6.18278 17.7644C6.53396 18.6135 7.00417 19.408 7.57915 20.1246C7.47494 20.0855 7.371 20.0435 7.26791 20.0025C7.11341 19.9379 6.96031 19.87 6.80888 19.7979H6.81084ZM4.02703 4.18609C4.56345 4.63129 5.14094 5.02424 5.75196 5.35961C5.24041 6.98448 4.96214 8.67391 4.92554 10.377H1.27871C1.42623 8.05124 2.40128 5.85512 4.02703 4.18609ZM5.02137 3.28338C5.11524 3.20932 5.21219 3.14169 5.30886 3.07126C5.44799 2.97065 5.58768 2.87171 5.73157 2.77893C5.8341 2.71241 5.93915 2.65009 6.04364 2.58777C6.18753 2.50253 6.33281 2.41952 6.48116 2.34378C6.58984 2.28621 6.7002 2.23143 6.81139 2.17833C6.96087 2.10623 7.11285 2.03888 7.26596 1.97488C7.36989 1.93212 7.4741 1.88936 7.57915 1.85275C7.00445 2.56848 6.53424 3.36247 6.18278 4.21068C5.74302 3.96139 5.32366 3.67772 4.92833 3.36275C4.96018 3.33564 4.98952 3.3077 5.02137 3.28338ZM15.2137 2.17694C15.3237 2.22948 15.4324 2.28398 15.5403 2.34071C15.6897 2.41924 15.837 2.50309 15.9822 2.58972C16.0853 2.65065 16.1884 2.71185 16.2873 2.77781C16.4326 2.87171 16.5743 2.97232 16.7145 3.07433C16.8098 3.14336 16.9056 3.21044 16.9984 3.2831C17.0302 3.3077 17.0593 3.33564 17.0911 3.3608C16.6975 3.67632 16.2798 3.96027 15.8417 4.21068C15.4905 3.36163 15.0203 2.56681 14.4453 1.85023C14.5496 1.88936 14.6535 1.93156 14.7566 1.97236C14.9111 2.0372 15.0642 2.10483 15.2156 2.17694H15.2137ZM10.4021 5.4672C9.33174 5.40097 8.28013 5.1581 7.28914 4.74839C8.06612 2.90721 9.16969 1.63168 10.4021 1.30805V5.4672ZM10.4021 6.68823V10.377H6.14562C6.18808 8.85864 6.4345 7.35283 6.87789 5.89983C8.00102 6.35538 9.19176 6.6206 10.4021 6.68516V6.68823ZM10.4021 11.5981V15.2899C9.19093 15.3539 7.99879 15.6194 6.87481 16.075C6.43255 14.622 6.18725 13.1162 6.14562 11.5981H10.4021ZM10.4021 16.5079V20.6668C9.17165 20.3431 8.06807 19.0679 7.28914 17.2264C8.28013 16.8167 9.33174 16.5738 10.4021 16.5079ZM11.6224 16.5079C12.6928 16.5738 13.7444 16.8167 14.7353 17.2264C13.9584 19.0679 12.8548 20.3401 11.6224 20.6668V16.5079ZM11.6224 15.2869V11.5981H15.8789C15.8372 13.1162 15.5919 14.622 15.1497 16.075C14.0257 15.6194 12.8336 15.3539 11.6224 15.2899V15.2869ZM11.6224 10.377V6.68516C12.8336 6.62088 14.0257 6.35566 15.1497 5.89983C15.5919 7.35283 15.8372 8.85864 15.8789 10.3768H11.6224V10.377ZM11.6224 5.4672V1.30833C12.8528 1.63168 13.9564 2.90721 14.7353 4.74867C13.7444 5.1581 12.6928 5.40097 11.6224 5.4672ZM4.92554 11.5981C4.96214 13.3012 5.24041 14.9903 5.75196 16.6152C5.14067 16.9506 4.56317 17.3435 4.02703 17.7887C2.40101 16.12 1.42595 13.9239 1.27871 11.5981H4.92554ZM17.0989 10.377C17.0624 8.67391 16.7841 6.98448 16.2725 5.35961C16.8838 5.02424 17.4613 4.63129 17.9975 4.18609C19.6235 5.85484 20.5985 8.05124 20.7458 10.3768H17.0989V10.377Z" fill="white"/>
</svg>
