<svg width="30" height="23" viewBox="0 0 30 23" fill="none" xmlns="http://www.w3.org/2000/svg">
<path d="M15.0005 5.47461C10.7517 5.47461 7.29492 8.90795 7.29492 13.1281C7.29492 17.3482 10.7517 20.7815 15.0005 20.7815C19.2493 20.7815 22.706 17.3482 22.706 13.1281C22.706 8.90795 19.2494 5.47461 15.0005 5.47461ZM15.0005 19.5629C11.4281 19.5629 8.52176 16.6762 8.52176 13.128C8.52176 9.57978 11.4281 6.69308 15.0005 6.69308C18.5729 6.69308 21.4792 9.57978 21.4792 13.128C21.4792 16.6762 18.5729 19.5629 15.0005 19.5629Z" fill="#27CAFF"/>
<path d="M14.9993 8.35156C12.3482 8.35156 10.1914 10.4937 10.1914 13.1269C10.1914 15.7601 12.3482 17.9022 14.9993 17.9022C17.6504 17.9022 19.8072 15.76 19.8072 13.1269C19.8072 10.4939 17.6504 8.35156 14.9993 8.35156ZM14.9993 16.7478C12.9891 16.7478 11.3537 15.1235 11.3537 13.1269C11.3537 11.1304 12.9891 9.50602 14.9993 9.50602C17.0095 9.50602 18.6449 11.1304 18.6449 13.1269C18.645 15.1235 17.0095 16.7478 14.9993 16.7478Z" fill="#27CAFF"/>
<path d="M28.0628 3.25543H20.164L19.3573 1.07304C19.1201 0.431183 18.4982 0 17.8098 0H12.1902C11.5018 0 10.8799 0.431241 10.6427 1.07304L9.8359 3.25538H7.15195V2.40011C7.15195 1.71053 6.58717 1.14945 5.89277 1.14945H4.03418C3.3399 1.14945 2.775 1.71053 2.775 2.40011V3.25543H1.93717C0.869004 3.25543 0 4.11856 0 5.17949V21.0759C0 22.1369 0.869004 23 1.93717 23H28.0628C29.131 23 30 22.1369 30 21.0759V5.17949C30 4.11856 29.131 3.25543 28.0628 3.25543ZM11.8549 1.51516C11.9063 1.37613 12.041 1.28272 12.1901 1.28272H17.8097C17.9589 1.28272 18.0936 1.37613 18.145 1.51516L18.7883 3.25543H11.2116L11.8549 1.51516ZM4.00195 2.40011C4.00195 2.38248 4.01643 2.36804 4.03424 2.36804H5.89283C5.91064 2.36804 5.92512 2.38248 5.92512 2.40011V3.25543H4.00195V2.40011ZM1.29146 8.10902H3.20414V18.1463H1.29146V8.10902ZM28.7085 21.0759C28.7085 21.4296 28.4188 21.7173 28.0628 21.7173H1.93717C1.58109 21.7173 1.29146 21.4295 1.29146 21.0759V19.429H3.84984C4.20645 19.429 4.49555 19.1418 4.49555 18.7877V7.46769C4.49555 7.11356 4.20645 6.82636 3.84984 6.82636H1.29146V5.17943C1.29146 4.82577 1.58115 4.5381 1.93717 4.5381H19.7084C19.7101 4.5381 19.7117 4.53828 19.7133 4.53828C19.7147 4.53828 19.7163 4.5381 19.7177 4.5381H28.0628C28.4189 4.5381 28.7085 4.82583 28.7085 5.17943V6.82636H26.1502C25.7935 6.82636 25.5045 7.11356 25.5045 7.46769V18.7877C25.5045 19.1418 25.7936 19.429 26.1502 19.429H28.7085V21.0759H28.7085ZM28.7085 18.1463H26.7959V8.10902H28.7085V18.1463Z" fill="#27CAFF"/>
<path d="M15.0026 10.7686C13.6927 10.7686 12.627 11.827 12.627 13.1281C12.627 13.4469 12.8871 13.7053 13.2081 13.7053C13.5291 13.7053 13.7892 13.4469 13.7892 13.1281C13.7892 12.4636 14.3335 11.923 15.0025 11.923C15.3235 11.923 15.5837 11.6646 15.5837 11.3458C15.5837 11.027 15.3236 10.7686 15.0026 10.7686Z" fill="#27CAFF"/>
</svg>
