<svg width="30" height="28" viewBox="0 0 30 28" fill="none" xmlns="http://www.w3.org/2000/svg">
<path d="M21.3693 4.53972H4.87257V0.47944C4.87257 0.214581 4.65876 0 4.39485 0H2.35668C2.09278 0 1.87897 0.214581 1.87897 0.47944V4.53977H0.477712C0.213807 4.53983 0 4.75441 0 5.01921V27.5206C0 27.7854 0.213807 28 0.477712 28H5.57323C5.83713 28 6.05094 27.7854 6.05094 27.5206C6.05094 27.2557 5.83713 27.0411 5.57323 27.0411H0.955424V5.49865H1.87897V6.89805C1.87897 7.16291 2.09278 7.37749 2.35668 7.37749H4.39491C4.65882 7.37749 4.87263 7.16291 4.87263 6.89805V5.4986H21.3694C21.6333 5.4986 21.8471 5.28402 21.8471 5.01916C21.847 4.75435 21.6332 4.53972 21.3693 4.53972ZM3.9172 6.41861H2.8344V0.95888H3.9172V6.41861Z" fill="#27CAFF"/>
<path d="M29.5214 4.53983H28.1201V0.47944C28.1201 0.214581 27.9063 0 27.6424 0H25.6042C25.3403 0 25.1265 0.214581 25.1265 0.47944V4.53977H23.4068C23.1429 4.53977 22.9291 4.75435 22.9291 5.01921C22.9291 5.28407 23.1429 5.49865 23.4068 5.49865H25.1265V6.89805C25.1265 7.16291 25.3403 7.37749 25.6042 7.37749H27.6424C27.9063 7.37749 28.1201 7.16291 28.1201 6.89805V5.4986H29.0437V27.0411H8.12029C7.85639 27.0411 7.64258 27.2556 7.64258 27.5205C7.64258 27.7854 7.85639 27.9999 8.12029 27.9999H29.5214C29.7853 27.9999 29.9991 27.7854 29.9991 27.5205V5.01916C29.9991 4.75441 29.7853 4.53983 29.5214 4.53983ZM27.1647 6.41861H26.0819V0.95888H27.1647V6.41861Z" fill="#27CAFF"/>
<path d="M25.9548 7.99121H4.04412C3.78021 7.99121 3.56641 8.20579 3.56641 8.47065V8.53457V24.7713V24.8352C3.56641 25.1001 3.78021 25.3147 4.04412 25.3147H25.9548C26.2187 25.3147 26.4325 25.1001 26.4325 24.8352V24.7713V18.1232C26.4325 17.8583 26.2187 17.6438 25.9548 17.6438H22.5172C22.7508 15.9489 24.2029 14.6393 25.9548 14.6393C26.2187 14.6393 26.4325 14.4248 26.4325 14.1599V8.53457V8.47065C26.4325 8.20579 26.2187 7.99121 25.9548 7.99121ZM4.52177 9.01401H5.09499V9.58931H4.52177V9.01401ZM4.52177 10.5482H5.5727C5.83661 10.5482 6.05041 10.3336 6.05041 10.0687V8.95009H18.3433V15.9817H10.9924C10.7534 13.7567 8.87133 12.0184 6.59188 12.0184C6.32797 12.0184 6.11416 12.233 6.11416 12.4979V15.9817H4.52177V10.5482ZM5.09505 24.2919H4.52177V23.7167H5.09499V24.2919H5.09505ZM18.3434 24.3559H6.05047V23.2372C6.05047 22.9723 5.83666 22.7578 5.57276 22.7578H4.52177V16.9407H6.59182C6.85572 16.9407 7.06953 16.7261 7.06953 16.4612C7.06953 16.4395 7.06754 16.4183 7.06484 16.3973C7.06765 16.3763 7.06953 16.3552 7.06953 16.3334V13.0112C8.75831 13.2456 10.0631 14.703 10.0631 16.4612C10.0631 16.7261 10.2769 16.9407 10.5408 16.9407H18.3434V18.3094C16.1264 18.5493 14.3943 20.4381 14.3943 22.7258C14.3943 22.9907 14.6082 23.2053 14.8721 23.2053H18.3434V24.3559ZM25.4771 24.2919H24.9039V23.7167H25.4771V24.2919ZM25.4771 13.7067C23.2601 13.9467 21.5281 15.8355 21.5281 18.1232C21.5281 18.3881 21.7419 18.6026 22.0058 18.6026H25.4771V22.7577H24.4262C24.1623 22.7577 23.9485 22.9723 23.9485 23.2372V24.3558H19.2988V22.7257C19.2988 22.4609 19.085 22.2463 18.8211 22.2463H15.3835C15.617 20.5514 17.0691 19.2419 18.8211 19.2419C19.085 19.2419 19.2988 19.0273 19.2988 18.7624V8.95009H23.9485V10.0687C23.9485 10.3336 24.1623 10.5482 24.4262 10.5482H25.4771V13.7067ZM25.4771 9.58931H24.9039V9.01401H25.4771V9.58931Z" fill="#27CAFF"/>
</svg>
