<svg width="22" height="22" viewBox="0 0 22 22" fill="none" xmlns="http://www.w3.org/2000/svg">
<path d="M18.7731 3.22305C16.6957 1.14527 13.935 0 10.9977 0C8.06048 0 5.29973 1.14527 3.22238 3.22305C1.14503 5.30082 0 8.06214 0 11C0 13.9379 1.14503 16.6992 3.22238 18.777C5.29973 20.8547 8.06048 22 10.9977 22C12.704 22 14.2609 21.6831 15.4964 21.0901C16.6686 20.5243 17.5194 19.714 17.8951 18.8132C18.3431 17.7313 18.0897 16.6041 17.2026 15.7169L17.171 15.6852C17.1845 15.6671 17.2026 15.6535 17.2162 15.6399C17.8498 14.9745 17.8498 14.1008 17.2072 13.458L15.6412 11.8918C15.3335 11.5749 14.9624 11.4029 14.5686 11.4029C14.1749 11.4029 13.7992 11.5704 13.4824 11.8872L12.6678 12.7021C12.627 12.6794 12.5908 12.6613 12.5501 12.6432C12.4505 12.5934 12.36 12.5481 12.2831 12.4984C11.4548 11.9733 10.7036 11.2852 9.98395 10.4025C9.66715 10.0041 9.44991 9.66461 9.28698 9.32963C9.49064 9.13951 9.68072 8.94486 9.86628 8.75473C9.94322 8.67325 10.0247 8.5963 10.1062 8.51481C10.7714 7.84938 10.7714 6.9893 10.1062 6.32387L9.33224 5.54979C9.24172 5.45926 9.15573 5.37325 9.06974 5.28272C8.89776 5.10617 8.72125 4.9251 8.53117 4.74856C8.22341 4.44527 7.85682 4.28683 7.4676 4.28683C7.07838 4.28683 6.70726 4.44527 6.39045 4.74856C6.38593 4.75309 6.38593 4.75309 6.3814 4.75761L5.40835 5.73086C5.01913 6.12016 4.79284 6.6 4.74758 7.15226C4.6797 8.01235 4.92862 8.80905 5.12323 9.32963C5.58938 10.5881 6.28636 11.756 7.32277 13.0054C8.58095 14.5082 10.0971 15.6988 11.8305 16.5362C12.4958 16.8531 13.3874 17.2243 14.3921 17.2922C14.4555 17.2967 14.5188 17.2967 14.5822 17.2967C15.2837 17.2967 15.8766 17.0432 16.3382 16.5407C16.3427 16.5362 16.3518 16.5272 16.3563 16.5226C16.3699 16.5045 16.388 16.4864 16.4061 16.4683L16.4332 16.4955C17.0125 17.0749 17.171 17.7358 16.8904 18.4103C16.3699 19.6461 14.3468 20.9136 10.9977 20.9136C5.53055 20.9136 1.0862 16.4683 1.0862 11C1.0862 5.53169 5.53055 1.08642 10.9977 1.08642C16.4649 1.08642 20.9093 5.53169 20.9093 11C20.9093 11.9008 20.7871 12.7881 20.5517 13.6436C20.4703 13.9333 20.6423 14.2321 20.9319 14.3136C21.2216 14.3951 21.5203 14.223 21.6017 13.9333C21.8642 12.9827 22 11.9959 22 11C21.9955 8.06214 20.8504 5.30082 18.7731 3.22305ZM15.5326 15.8029C15.2746 16.079 14.985 16.2012 14.5822 16.2012C14.5415 16.2012 14.5007 16.2012 14.46 16.1967C13.6453 16.1424 12.876 15.821 12.3012 15.5449C10.7126 14.7753 9.31866 13.6844 8.16005 12.2992C7.2051 11.1494 6.56696 10.0856 6.14153 8.94486C5.88809 8.25679 5.79305 7.73169 5.82925 7.23374C5.85641 6.93951 5.96503 6.69959 6.17774 6.49136L7.15079 5.52263C7.22773 5.45021 7.3454 5.3642 7.47213 5.3642C7.59885 5.3642 7.70747 5.44568 7.77535 5.51811C7.77988 5.52263 7.78441 5.52716 7.78893 5.53169C7.96091 5.69012 8.12384 5.85761 8.29582 6.03416C8.38634 6.12469 8.47686 6.21975 8.56737 6.31029L9.34129 7.08436C9.58116 7.32428 9.58116 7.50082 9.34129 7.74074C9.25982 7.82222 9.17836 7.9037 9.09689 7.98518C8.85703 8.2251 8.63526 8.45597 8.39087 8.67325C8.38181 8.67778 8.37729 8.68683 8.36824 8.69588C8.0288 9.03539 8.14647 9.38848 8.18268 9.50617C8.1872 9.51975 8.19173 9.52881 8.19626 9.54239C8.40444 10.0449 8.6941 10.5156 9.13763 11.077L9.14215 11.0815C9.93869 12.0638 10.776 12.8243 11.7038 13.4128C11.826 13.4897 11.9482 13.5531 12.0658 13.6119C12.1654 13.6617 12.2559 13.707 12.3329 13.7568C12.3464 13.7658 12.3645 13.7749 12.3826 13.784C12.5003 13.8428 12.618 13.87 12.7357 13.87C12.9348 13.87 13.1203 13.7885 13.2787 13.6255L14.2518 12.6523C14.3287 12.5753 14.4419 12.4848 14.5686 12.4848C14.6863 12.4848 14.7949 12.5708 14.8628 12.6432C14.8673 12.6477 14.8673 12.6477 14.8718 12.6523L16.4378 14.2185C16.6595 14.4403 16.6595 14.644 16.4287 14.884L16.4242 14.8885C16.3201 15.0016 16.207 15.1103 16.0848 15.228C15.9037 15.4045 15.7136 15.5901 15.5326 15.8029Z" fill="#11B3F8"/>
</svg>
