<svg width="23" height="24" viewBox="0 0 23 24" fill="none" xmlns="http://www.w3.org/2000/svg">
<path d="M22.5175 21.3334L16.5128 15.0457C17.5851 13.4737 18.2284 11.5649 18.2284 9.54386C18.2284 4.26662 14.1538 0 9.11425 0C4.07465 0 0 4.26668 0 9.54386C0 14.821 4.07459 19.0877 9.11419 19.0877C11.0443 19.0877 12.8671 18.414 14.3683 17.2912L20.373 23.579C20.9091 24.1403 21.8741 24.1403 22.5175 23.579C23.1608 22.9053 23.1608 22.007 22.5175 21.3334ZM9.11419 16.8422C5.25405 16.8422 2.14452 13.586 2.14452 9.54392C2.14452 5.5018 5.25405 2.24568 9.11419 2.24568C12.9743 2.24568 16.0839 5.5018 16.0839 9.54392C16.0839 13.586 12.9743 16.8422 9.11419 16.8422Z" fill="#27CAFF"/>
</svg>
