<?xml version="1.0" standalone="no"?>
<!DOCTYPE svg PUBLIC "-//W3C//DTD SVG 1.1//EN" "http://www.w3.org/Graphics/SVG/1.1/DTD/svg11.dtd" >
<svg xmlns="http://www.w3.org/2000/svg" xmlns:xlink="http://www.w3.org/1999/xlink" version="1.1">
<metadata>
Created by FontForge 20170910 at Thu Jun 28 12:01:33 2018
 By Jimmy Wärting
Copyright \(c\) 2016 by Zetafonts. All rights reserved.
</metadata>
<defs>
<font id="SugoProDisplay-Light" horiz-adv-x="730" >
  <font-face 
    font-family="Sugo Pro Display"
    font-weight="300"
    font-stretch="normal"
    units-per-em="2048"
    panose-1="2 0 5 6 2 0 0 2 0 4"
    ascent="1638"
    descent="-410"
    x-height="1024"
    cap-height="1383"
    bbox="-112 -484 1560 1840"
    underline-thickness="102"
    underline-position="-205"
    stemh="196"
    stemv="140"
    unicode-range="U+000A-F7FF"
  />
<missing-glyph horiz-adv-x="1084" 
d="M549 98c258 0 470 213 470 479c0 234 -158 406 -347 460c-37 12 -79 18 -123 18c-272 0 -469 -223 -469 -478c0 -256 203 -479 469 -479zM549 147c-109 0 -206 44 -283 109h567c-77 -65 -175 -109 -284 -109zM220 850h562l-551 -561c-66 78 -105 178 -105 288
c0 105 34 197 94 273zM549 1098c294 0 510 -248 510 -521c0 -285 -227 -517 -510 -517c-292 0 -511 239 -511 517c0 296 235 521 511 521zM876 303h-564l552 563c71 -89 107 -184 107 -289c0 -103 -35 -198 -95 -274zM829 897h-565c77 69 176 111 285 111s207 -44 280 -111z
" />
    <glyph glyph-name=".notdef" horiz-adv-x="1084" 
d="M549 98c258 0 470 213 470 479c0 234 -158 406 -347 460c-37 12 -79 18 -123 18c-272 0 -469 -223 -469 -478c0 -256 203 -479 469 -479zM549 147c-109 0 -206 44 -283 109h567c-77 -65 -175 -109 -284 -109zM220 850h562l-551 -561c-66 78 -105 178 -105 288
c0 105 34 197 94 273zM549 1098c294 0 510 -248 510 -521c0 -285 -227 -517 -510 -517c-292 0 -511 239 -511 517c0 296 235 521 511 521zM876 303h-564l552 563c71 -89 107 -184 107 -289c0 -103 -35 -198 -95 -274zM829 897h-565c77 69 176 111 285 111s207 -44 280 -111z
" />
    <glyph glyph-name="C" unicode="C" horiz-adv-x="802" 
d="M743 1072v-83c0 -30 -6 -41 -29 -41h-120c-22 0 -28 11 -28 38v81c0 87 -59 166 -149 166c-91 0 -157 -75 -157 -164v-753c0 -89 64 -165 157 -165c94 0 154 76 154 165v100c0 30 8 38 27 38h121c20 0 30 -7 30 -36v-111c0 -198 -149 -328 -334 -328
c-187 0 -344 130 -344 328v769c0 185 146 328 344 328c213 0 328 -160 328 -332z" />
    <glyph glyph-name="D" unicode="D" horiz-adv-x="858" 
d="M598 346v691c0 107 -60 171 -157 173h-152v-1039h148c100 0 161 76 161 175zM100 36v1311c0 21 12 36 32 36h318c196 -2 337 -129 337 -340v-701c0 -214 -143 -341 -339 -342h-316c-22 0 -32 14 -32 36z" />
    <glyph glyph-name="E" unicode="E" horiz-adv-x="740" 
d="M289 171h386c14 0 29 -8 29 -28v-112c0 -22 -15 -31 -29 -31h-543c-22 0 -32 14 -32 36v1311c0 21 12 36 32 36h542c14 0 27 -10 27 -32v-110c0 -22 -13 -31 -27 -31h-385v-419h310c14 0 30 -8 30 -30v-110c0 -22 -15 -31 -30 -31h-310v-449z" />
    <glyph glyph-name="F" unicode="F" horiz-adv-x="698" 
d="M677 1352v-110c0 -22 -13 -32 -26 -32h-362v-438h281c14 0 28 -7 28 -30v-110c0 -21 -13 -31 -28 -31h-281v-565c0 -22 -8 -36 -29 -36h-128c-22 0 -32 14 -32 36v1311c0 21 12 36 32 36h519c13 0 26 -9 26 -31z" />
    <glyph glyph-name="H" unicode="H" horiz-adv-x="899" 
d="M640 1383h128c17 0 30 -11 30 -35v-1313c0 -22 -9 -35 -31 -35h-127c-20 0 -30 13 -30 35v584h-321v-583c0 -22 -9 -36 -30 -36h-129c-21 0 -30 14 -30 36v1311c0 21 10 36 30 36h129c20 0 30 -15 30 -36v-556h321v556c0 19 8 36 30 36z" />
    <glyph glyph-name="I" unicode="I" horiz-adv-x="389" 
d="M289 1347v-1311c0 -22 -9 -36 -30 -36h-129c-21 0 -30 14 -30 36v1311c0 21 10 36 30 36h129c20 0 30 -15 30 -36z" />
    <glyph glyph-name="J" unicode="J" horiz-adv-x="682" 
d="M586 1344v-1021c0 -206 -148 -344 -334 -344c-96 0 -197 39 -250 101c-8 10 -19 36 -8 51l60 75c7 9 15 13 24 13s18 -4 26 -13c29 -28 83 -55 139 -55c99 0 154 80 154 181v1015c0 25 12 36 26 36h131c24 0 32 -15 32 -39z" />
    <glyph glyph-name="K" unicode="K" horiz-adv-x="855" 
d="M633 1383h119c24 0 31 -22 31 -38v-253c0 -185 -69 -321 -189 -403c126 -82 198 -220 198 -410v-241c0 -17 -8 -38 -32 -38h-119c-19 0 -37 13 -37 40v219c0 203 -74 338 -293 338h-22v-561c0 -22 -8 -36 -29 -36h-128c-22 0 -32 14 -32 36v1311c0 21 11 36 30 36h129
c21 0 30 -15 30 -36v-573h13c219 0 293 135 293 337v232c0 27 18 40 38 40z" />
    <glyph glyph-name="L" unicode="L" horiz-adv-x="701" 
d="M644 0h-512c-22 0 -32 14 -32 36v1311c0 21 10 36 30 36h129c20 0 30 -15 30 -36v-1176h355c15 0 27 -6 27 -28v-111c0 -22 -12 -32 -27 -32z" />
    <glyph glyph-name="M" unicode="M" horiz-adv-x="1362" 
d="M1086 38v1030c0 88 -65 164 -155 164c-91 0 -156 -76 -156 -164l1 -1034c0 -19 -6 -34 -27 -34h-136c-14 0 -26 15 -26 36v1038c-3 85 -68 158 -156 158c-90 0 -155 -76 -155 -164v-1032c0 -20 -6 -36 -27 -36h-136c-14 0 -25 15 -25 36v1041c0 181 157 327 343 327
c97 0 186 -40 250 -104c63 64 152 104 249 104c186 0 344 -146 344 -327v-1039c0 -19 -6 -38 -28 -38h-131c-20 0 -29 18 -29 38z" />
    <glyph glyph-name="P" unicode="P" horiz-adv-x="822" 
d="M599 732v302c0 101 -61 176 -161 176h-149v-651h150c98 0 160 75 160 173zM100 36v1311c0 21 12 36 32 36h320c197 0 336 -152 336 -346v-303c0 -196 -140 -346 -336 -346h-163v-352c0 -22 -9 -36 -30 -36h-129c-21 0 -30 14 -30 36z" />
    <glyph glyph-name="R" unicode="R" horiz-adv-x="863" 
d="M599 888v151c0 102 -61 171 -161 171h-149v-484h137c117 0 173 63 173 162zM741 0h-119c-20 0 -39 13 -39 40v205c0 246 -100 333 -275 333h-19v-544c0 -21 -10 -34 -30 -34h-129c-21 0 -30 13 -30 34v1313c0 21 12 36 32 36h320c197 0 336 -151 336 -344v-136
c0 -131 -72 -219 -167 -270c101 -72 150 -199 150 -413v-182c0 -16 -7 -38 -30 -38z" />
    <glyph glyph-name="S" unicode="S" horiz-adv-x="791" 
d="M548 1005v58c0 87 -53 170 -152 170c-64 0 -157 -42 -157 -180c0 -123 93 -184 178 -253c191 -157 328 -245 328 -494c0 -173 -142 -327 -345 -327c-200 0 -336 142 -336 341v52c0 26 5 40 30 40h118c23 0 30 -11 30 -36v-47c0 -133 93 -178 159 -178
c89 0 164 68 164 164c0 129 -60 179 -215 308c-177 144 -286 222 -286 435c0 271 223 346 331 346c196 0 329 -144 329 -340v-59c0 -25 -7 -36 -34 -36h-115c-22 0 -27 12 -27 36z" />
    <glyph glyph-name="T" unicode="T" horiz-adv-x="650" 
d="M621 1210h-201v-1178c0 -21 -13 -32 -26 -32h-135c-15 0 -28 11 -28 32v1178h-201c-13 0 -27 10 -27 32v109c0 21 14 32 27 32h591c14 0 27 -9 27 -31v-110c0 -22 -13 -32 -27 -32z" />
    <glyph glyph-name="A" unicode="A" horiz-adv-x="863" 
d="M276 1068v-518h311v518c0 88 -65 164 -156 164c-90 0 -155 -76 -155 -164zM775 1077v-1039c0 -19 -6 -38 -28 -38h-131c-20 0 -29 18 -29 38v346h-311v-348c0 -20 -6 -36 -27 -36h-136c-15 0 -25 15 -25 36v1041c0 181 157 327 343 327s344 -146 344 -327z" />
    <glyph glyph-name="U" unicode="U" horiz-adv-x="863" 
d="M587 315v1030c0 19 8 38 28 38h131c21 0 29 -19 29 -38v-1039c0 -181 -158 -327 -344 -327s-343 146 -343 327v1041c0 21 11 36 25 36h136c21 0 27 -16 27 -36v-1032c0 -88 65 -164 155 -164c91 0 156 76 156 164z" />
    <glyph glyph-name="V" unicode="V" horiz-adv-x="756" 
d="M370 405l8 -76l8 76l176 950c4 21 20 28 35 28h129c18 0 25 -15 20 -35l-284 -1319c-5 -21 -16 -29 -33 -29h-102c-16 0 -28 8 -33 29l-284 1318c-5 21 3 36 20 36h130c14 0 30 -7 34 -28z" />
    <glyph glyph-name="W" unicode="W" horiz-adv-x="1362" 
d="M1274 1345v-1039c0 -181 -132 -327 -335 -327c-118 0 -204 58 -253 146c-49 -88 -138 -146 -255 -146c-211 0 -343 146 -343 327v1041c0 21 10 36 24 36h136c21 0 28 -16 28 -36v-1032c0 -88 65 -164 155 -164c92 0 156 76 156 164v1032c0 21 10 36 25 36h135
c21 0 28 -16 28 -36v-1032c0 -88 63 -164 156 -164c92 0 155 76 155 164v1030c0 19 8 38 28 38h131c22 0 29 -19 29 -38z" />
    <glyph glyph-name="X" unicode="X" horiz-adv-x="769" 
d="M384 868l10 55l154 432c6 19 19 28 33 28h137c22 0 31 -22 24 -37l-262 -637l2 -3l267 -668c10 -23 -6 -38 -21 -38h-137c-17 0 -28 6 -35 26l-162 445l-10 46l-9 -46l-162 -445c-7 -20 -16 -26 -34 -26h-137c-15 0 -31 14 -21 38l267 671v2l-261 635c-6 15 2 37 25 37
h136c15 0 28 -9 34 -28l151 -432z" />
    <glyph glyph-name="Y" unicode="Y" horiz-adv-x="787" 
d="M570 1383h146c15 0 21 -12 21 -23v-481c0 -163 -108 -280 -250 -316v-526c0 -24 -7 -37 -27 -37h-134c-21 0 -27 15 -27 37v526c-143 36 -250 155 -250 316l1 480c0 12 4 24 22 24h143c15 0 23 -12 23 -23v-473c0 -89 63 -163 154 -163c93 0 157 71 157 159v476
c0 13 7 24 21 24z" />
    <glyph glyph-name="Z" unicode="Z" horiz-adv-x="685" 
d="M231 178h392c12 0 24 -8 24 -29v-119c0 -21 -12 -30 -24 -30h-565c-14 0 -25 9 -25 30v86c0 11 2 18 6 28l381 1043l13 27h-361c-14 0 -24 10 -24 30v109c0 21 11 30 24 30h535c24 0 30 -9 30 -31v-84c0 -8 -3 -18 -4 -21l-386 -1037z" />
    <glyph glyph-name="bar" unicode="|" horiz-adv-x="378" 
d="M280 1499v-1816c0 -22 -9 -35 -31 -35h-113c-21 0 -31 13 -31 35v1816c0 21 11 35 31 35h113c21 0 31 -14 31 -35z" />
    <glyph glyph-name="bracketleft.001" horiz-adv-x="483" 
d="M445 1410v-105c0 -16 -17 -28 -25 -28h-148v-1444h147c11 0 25 -10 25 -28v-106c0 -15 -16 -26 -26 -26h-290c-12 0 -26 7 -26 27v1705l1 1v5c0 16 13 27 26 27h291c10 0 25 -10 25 -28z" />
    <glyph glyph-name="bracketright.001" horiz-adv-x="483" 
d="M346 -327h-290c-9 0 -26 11 -26 26v106c0 18 15 28 25 28h148v1444h-148c-9 0 -25 12 -25 28v105c0 18 14 28 24 28h291c13 0 27 -11 27 -27v-1711c0 -20 -14 -27 -26 -27z" />
    <glyph glyph-name="braceleft.001" horiz-adv-x="439" 
d="M416 1415v-130c0 -19 -15 -27 -25 -27c-13 0 -93 -3 -93 -178v-348c0 -101 -40 -156 -89 -186c49 -30 89 -85 89 -186v-348c0 -181 80 -177 93 -177c14 0 27 -11 27 -26v-129c0 -18 -17 -27 -26 -27c-26 0 -265 9 -265 364v302c0 140 -38 142 -79 142c-9 0 -22 11 -22 29
v114c0 17 13 28 22 28c41 0 79 2 79 142v303c0 354 239 363 265 363c9 0 24 -7 24 -25z" />
    <glyph glyph-name="underscore" unicode="_" horiz-adv-x="696" 
d="M633 -63v-82c0 -16 -14 -27 -25 -27h-521c-11 0 -24 7 -24 27v82c0 17 13 27 25 27h520c11 0 25 -10 25 -27z" />
    <glyph glyph-name="endash.001" horiz-adv-x="877" 
d="M835 592v-89c0 -15 -13 -27 -26 -27h-734c-8 0 -25 8 -25 28v89c0 17 14 27 26 27h734c13 0 25 -10 25 -28z" />
    <glyph glyph-name="bullet" unicode="&#x2022;" horiz-adv-x="288" 
d="M255 572c0 -60 -48 -109 -108 -109c-59 0 -107 49 -107 109c0 61 48 110 107 110c60 0 108 -49 108 -110z" />
    <glyph glyph-name="asciicircum" unicode="^" horiz-adv-x="726" 
d="M606 884l-90 -2c-6 -2 -12 -3 -17 -3c-14 0 -27 7 -39 21l-127 151l-112 -129c-12 -16 -28 -37 -46 -37c-5 0 -9 1 -14 4l-99 2c-11 2 -21 24 -2 46l202 223c4 6 13 14 28 14h82c12 0 23 -6 30 -14l205 -230c19 -20 11 -44 -1 -46z" />
    <glyph glyph-name="backslash" unicode="\" horiz-adv-x="574" 
d="M183 1350l385 -1314c6 -22 -5 -36 -19 -36h-117c-14 0 -30 8 -36 28l-385 1315c-7 25 2 39 18 39h118c15 0 30 -9 36 -32z" />
    <glyph glyph-name="asciitilde" unicode="~" horiz-adv-x="681" 
d="M422 573c28 0 51 17 72 55c8 13 17 18 26 18c10 0 19 -6 27 -12l36 -29c24 -18 22 -36 5 -65c-40 -73 -89 -104 -157 -104c-49 0 -89 31 -125 55c-24 17 -42 31 -66 31c-34 0 -54 -23 -76 -60c-6 -8 -13 -11 -21 -11c-11 0 -22 6 -31 11l-35 29c-23 19 -21 34 -4 64
c38 67 92 105 153 105c44 0 80 -23 113 -44c31 -22 57 -43 83 -43z" />
    <glyph glyph-name="Euro" unicode="&#x20ac;" horiz-adv-x="815" 
d="M388 757h-115v-143h117c10 0 23 -10 23 -29v-59c0 -16 -15 -28 -25 -28h-115v-182c0 -89 69 -165 164 -165s160 76 160 165v101c0 30 10 38 29 38h115c19 0 29 -7 29 -37v-111c0 -198 -147 -328 -333 -328c-187 0 -340 131 -340 328v191h-61c-7 0 -27 8 -27 28v58
c0 20 19 30 27 30h61v143h-61c-7 0 -27 8 -27 28v59c0 19 19 29 27 29h61v203c0 185 142 328 340 328c214 0 328 -161 328 -332v-83c0 -30 -6 -40 -29 -40h-115c-21 0 -29 10 -29 37v81c0 86 -63 165 -157 165s-162 -74 -162 -163v-196h117c10 0 23 -9 23 -29v-60
c0 -15 -15 -27 -25 -27z" />
    <glyph glyph-name="space" unicode=" " horiz-adv-x="428" 
 />
    <glyph glyph-name="ellipsis" unicode="&#x2026;" horiz-adv-x="947" 
d="M824 151v-117c0 -24 -16 -34 -28 -34h-136c-11 0 -29 8 -29 33v119c0 24 14 35 30 35h133c22 0 30 -17 30 -36zM548 151v-117c0 -24 -16 -34 -28 -34h-136c-11 0 -29 8 -29 33v119c0 24 14 35 30 35h133c22 0 30 -17 30 -36zM272 151v-117c0 -24 -16 -34 -28 -34h-136
c-11 0 -29 8 -29 33v119c0 24 14 35 30 35h133c22 0 30 -17 30 -36z" />
    <glyph glyph-name="quoteleft" unicode="&#x2018;" horiz-adv-x="346" 
d="M272 1216v-109c0 -25 -11 -43 -37 -43h-122c-26 0 -38 14 -38 42v168c0 75 58 115 128 115c19 0 29 -8 29 -24v-39c0 -15 -12 -23 -29 -23s-22 -12 -22 -30c0 -10 2 -19 10 -19h48c17 0 33 -10 33 -38z" />
    <glyph glyph-name="quoteright" unicode="&#x2019;" horiz-adv-x="348" 
d="M168 1175c0 10 -2 18 -11 18h-48c-18 0 -33 11 -33 38v110c0 25 12 43 36 43h124c25 0 37 -14 37 -42v-168c0 -75 -57 -116 -128 -116c-18 0 -28 9 -28 26v39c0 15 11 23 29 23c15 0 22 11 22 29z" />
    <glyph glyph-name="quotedblleft" unicode="&#x201c;" horiz-adv-x="622" 
d="M75 1109v168c0 75 58 116 127 116c19 0 30 -9 30 -26v-39c0 -15 -12 -22 -29 -22s-22 -13 -22 -30c0 -11 2 -19 10 -19h48c17 0 33 -10 33 -38v-109c0 -26 -12 -44 -37 -44h-122c-26 0 -38 15 -38 43zM482 1306c-16 0 -22 -13 -22 -30c0 -11 2 -19 11 -19h48
c17 0 32 -10 32 -38v-109c0 -26 -12 -44 -36 -44h-123c-26 0 -38 15 -38 43v168c0 75 58 116 128 116c18 0 28 -9 28 -26v-39c0 -15 -11 -22 -28 -22z" />
    <glyph glyph-name="quotedblright" unicode="&#x201d;" horiz-adv-x="629" 
d="M76 1230v110c0 25 12 43 37 43h123c25 0 38 -14 38 -43v-167c0 -75 -58 -116 -128 -116c-18 0 -29 8 -29 26v39c0 15 12 23 29 23c16 0 22 11 22 29c0 10 -2 18 -11 18h-48c-17 0 -33 11 -33 38zM397 1083v39c0 15 12 23 29 23c15 0 22 11 22 29c0 10 -2 18 -11 18h-49
c-16 0 -32 11 -32 38v110c0 25 12 43 37 43h123c25 0 37 -14 37 -43v-167c0 -75 -57 -116 -128 -116c-17 0 -28 8 -28 26z" />
    <glyph glyph-name="sterling" unicode="&#xa3;" horiz-adv-x="682" 
d="M505 1188c-25 28 -68 41 -99 41c-88 0 -148 -69 -148 -146v-339h161c10 0 26 -10 26 -28v-103c0 -15 -18 -27 -27 -27h-160v-417h361c14 0 28 -10 28 -32v-104c0 -22 -14 -33 -28 -33h-516c-15 0 -21 11 -21 33v553h-60c-7 0 -25 7 -25 27v104c0 17 15 27 26 27h59v339
c0 173 144 314 314 314c71 0 140 -26 194 -73c11 -9 35 -38 22 -55l-60 -74c-10 -12 -20 -17 -28 -17c-7 0 -14 4 -19 10z" />
    <glyph glyph-name="cent" unicode="&#xa2;" horiz-adv-x="697" 
d="M432 1150v-119c120 -33 201 -142 201 -271v-66c0 -27 -9 -32 -24 -32h-105c-19 0 -31 5 -31 32v65c0 67 -49 123 -119 123c-68 0 -123 -55 -123 -122v-496c0 -67 55 -122 123 -122c70 0 119 57 119 123v53c0 25 11 32 26 32h110c15 0 24 -7 24 -31v-55
c0 -130 -81 -239 -201 -272v-138c0 -12 -5 -25 -19 -25h-131c-10 0 -19 11 -19 26v139c-116 35 -200 138 -200 270v496c0 125 84 231 200 268v123c0 14 6 24 18 24h133c13 0 18 -11 18 -25z" />
    <glyph glyph-name="dagger" unicode="&#x2020;" horiz-adv-x="424" 
d="M271 1348v-365h112c9 0 21 -10 21 -28v-81c0 -14 -13 -26 -23 -26h-110v-1170c0 -23 -8 -33 -25 -33h-76c-18 0 -24 15 -24 33v1170h-114c-7 0 -22 7 -22 27v81c0 16 13 27 22 27h114v365c0 22 6 34 24 34h76c17 0 25 -12 25 -34z" />
    <glyph glyph-name="daggerdbl" unicode="&#x2021;" horiz-adv-x="487" 
d="M277 -391h-89c-21 0 -29 17 -29 37v611h-116c-7 0 -23 9 -23 30v94c0 21 12 33 24 33h115v337h-116c-7 0 -23 8 -23 31v94c0 20 12 31 24 31h115v576c0 24 8 38 28 38h90c19 0 28 -14 28 -38v-576h130c11 0 22 -11 22 -30v-96c0 -17 -13 -30 -23 -30h-129v-337h130
c11 0 22 -12 22 -31v-96c0 -17 -13 -30 -23 -30h-129v-611c0 -25 -9 -37 -28 -37z" />
    <glyph glyph-name="florin" unicode="&#x192;" horiz-adv-x="445" 
d="M276 1048v-24h139c13 0 28 -10 28 -27v-105c0 -19 -15 -27 -28 -27h-139v-905c0 -222 -128 -284 -292 -284c-23 0 -35 11 -35 35v90c0 24 18 33 37 33c82 0 123 42 123 143v888h-77c-13 0 -27 8 -27 27v105c0 18 15 27 27 27h77v41c0 233 109 287 264 287
c11 0 21 -1 32 -1c23 -1 34 -10 34 -34v-85c0 -24 -14 -33 -37 -33c-85 0 -126 -25 -126 -151z" />
    <glyph glyph-name="trademark" unicode="&#x2122;" horiz-adv-x="913" 
d="M880 1360v-675c0 -12 -5 -25 -18 -25h-68c-14 0 -18 13 -18 25l1 434l3 37l-2 -10l-103 -362c-3 -13 -6 -17 -16 -17h-45c-10 0 -13 5 -17 17l-103 361l2 -26l1 -434c0 -12 -5 -25 -18 -25h-68c-14 0 -18 13 -18 25v675c0 15 6 23 19 23h88c14 0 17 -11 20 -22l111 -395
l5 -34l5 34l113 397c3 11 5 20 18 20h89c13 0 19 -10 19 -23zM226 1274v-591c0 -12 -6 -23 -18 -23h-73c-13 0 -19 11 -19 23v591h-106c-8 0 -17 7 -17 22v64c0 17 9 23 17 23h316c12 0 22 -7 22 -21v-66c0 -17 -11 -22 -22 -22h-100z" />
    <glyph glyph-name="yen" unicode="&#xa5;" horiz-adv-x="723" 
d="M415 0h-120c-21 0 -28 15 -28 36v227h-118c-7 0 -27 8 -27 29v50c0 20 19 30 27 30h118v110h-118c-7 0 -27 7 -27 27v50c0 20 19 30 27 30h108l-256 752c-8 24 3 41 22 41h125c14 0 31 -5 36 -30l160 -574l11 -114l12 114l159 573c5 24 22 31 35 31h126
c21 0 31 -17 24 -41l-258 -752h107c11 0 27 -9 27 -30v-50c0 -15 -18 -27 -29 -27h-115v-110h117c11 0 27 -10 27 -30v-50c0 -17 -18 -29 -29 -29h-115v-227c0 -23 -7 -36 -28 -36z" />
    <glyph glyph-name="emdash.001" horiz-adv-x="1480" 
d="M1444 592v-89c0 -15 -14 -27 -26 -27h-1341c-8 0 -25 8 -25 28v89c0 17 14 27 26 27h1341c12 0 25 -10 25 -28z" />
    <glyph glyph-name="guilsinglright.001" horiz-adv-x="421" 
d="M147 870l242 -348c4 -7 7 -9 7 -18c0 -7 -3 -10 -7 -16l-242 -349c-4 -5 -9 -9 -15 -9c-3 0 -7 2 -11 5l-78 62c-8 7 -12 19 -4 31l196 275l-196 276c-6 8 -7 24 3 31l79 64c4 3 7 4 11 4c6 0 12 -4 15 -8z" />
    <glyph glyph-name="N" unicode="N" horiz-adv-x="863" 
d="M746 0h-130c-21 0 -29 18 -29 38v1030c0 88 -65 164 -156 164c-90 0 -155 -76 -155 -164v-1032c0 -20 -7 -36 -28 -36h-136c-14 0 -24 15 -24 36v1041c0 181 157 327 343 327s344 -146 344 -327v-1039c0 -19 -8 -38 -29 -38z" />
    <glyph glyph-name="Zcaron" unicode="&#x17d;" horiz-adv-x="685" 
d="M231 178h392c12 0 24 -8 24 -29v-119c0 -21 -12 -30 -24 -30h-565c-14 0 -25 9 -25 30v86c0 11 2 18 6 28l381 1043l13 27h-361c-14 0 -24 10 -24 30v109c0 21 11 30 24 30h535c24 0 30 -9 30 -31v-84c0 -8 -3 -18 -4 -21l-386 -1037zM383 1568l95 111c9 10 17 15 27 15
c4 0 9 0 13 -2l67 -1c9 -2 15 -19 1 -35l-151 -168c-6 -7 -14 -10 -23 -10h-60c-11 0 -18 6 -21 10l-148 163c-14 16 -7 33 1 35l73 1c3 2 7 3 10 3c14 0 25 -16 34 -27z" />
    <glyph glyph-name="exclamdown.001" horiz-adv-x="368" 
d="M103 -327v978c0 22 10 36 31 36h101c21 0 31 -14 31 -36v-978c0 -22 -10 -35 -31 -35h-101c-20 0 -31 13 -31 35zM280 873c0 -19 -9 -37 -31 -37h-133c-15 0 -29 12 -29 36v119c0 26 17 32 29 32h135c12 0 29 -10 29 -33v-117z" />
    <glyph glyph-name="Ecircumflex" unicode="&#xca;" horiz-adv-x="740" 
d="M289 620v-449h386c14 0 29 -8 29 -28v-112c0 -22 -15 -31 -29 -31h-543c-22 0 -32 14 -32 36v1311c0 21 12 36 32 36h542c14 0 27 -10 27 -32v-110c0 -22 -13 -31 -27 -31h-385v-419h310c14 0 30 -8 30 -30v-110c0 -22 -15 -31 -30 -31h-310zM612 1500l-66 -1
c-4 -2 -9 -2 -13 -2c-10 0 -19 5 -28 15l-94 111l-82 -95c-9 -11 -20 -27 -34 -27c-3 0 -6 1 -10 3l-73 1c-8 2 -15 18 -1 34l148 164c3 4 10 10 21 10h60c9 0 17 -4 22 -10l151 -169c14 -15 8 -32 -1 -34z" />
    <glyph glyph-name="Edieresis" unicode="&#xcb;" horiz-adv-x="740" 
d="M289 171h386c14 0 29 -8 29 -28v-112c0 -22 -15 -31 -29 -31h-543c-22 0 -32 14 -32 36v1311c0 21 12 36 32 36h542c14 0 27 -10 27 -32v-110c0 -22 -13 -31 -27 -31h-385v-419h310c14 0 30 -8 30 -30v-110c0 -22 -15 -31 -30 -31h-310v-449zM599 1620v-84
c0 -26 -15 -33 -29 -33h-83c-15 0 -31 9 -31 32v86c0 20 11 34 32 34h82c17 0 29 -12 29 -35zM250 1535v86c0 20 11 34 31 34h82c17 0 29 -12 29 -35v-84c0 -26 -14 -33 -29 -33h-82c-15 0 -31 9 -31 32z" />
    <glyph glyph-name="Igrave" unicode="&#xcc;" horiz-adv-x="389" 
d="M289 1347v-1311c0 -22 -9 -36 -30 -36h-129c-21 0 -30 14 -30 36v1311c0 21 10 36 30 36h129c20 0 30 -15 30 -36zM179 1708l76 -166c11 -26 -3 -44 -20 -44h-77c-16 0 -28 4 -42 29l-88 166c-12 23 -4 45 18 45h97c19 0 27 -6 36 -30z" />
    <glyph glyph-name="Iacute" unicode="&#xcd;" horiz-adv-x="389" 
d="M289 1347v-1311c0 -22 -9 -36 -30 -36h-129c-21 0 -30 14 -30 36v1311c0 21 10 36 30 36h129c20 0 30 -15 30 -36zM247 1740h97c22 0 30 -22 18 -45l-88 -166c-14 -25 -26 -29 -42 -29h-77c-17 0 -31 18 -20 45l76 166c9 23 18 29 36 29z" />
    <glyph glyph-name="Icircumflex" unicode="&#xce;" horiz-adv-x="389" 
d="M289 1347v-1311c0 -22 -9 -36 -30 -36h-129c-21 0 -30 14 -30 36v1311c0 21 10 36 30 36h129c20 0 30 -15 30 -36zM408 1512l-66 -1c-4 -2 -9 -2 -13 -2c-10 0 -19 5 -28 15l-94 111l-82 -95c-9 -11 -20 -27 -34 -27c-3 0 -6 1 -10 3l-73 1c-8 2 -15 18 -1 34l148 164
c3 4 10 10 21 10h60c9 0 17 -4 22 -10l151 -169c14 -15 8 -32 -1 -34z" />
    <glyph glyph-name="Idieresis" unicode="&#xcf;" horiz-adv-x="389" 
d="M289 1347v-1311c0 -22 -9 -36 -30 -36h-129c-21 0 -30 14 -30 36v1311c0 21 10 36 30 36h129c20 0 30 -15 30 -36zM374 1645v-84c0 -26 -15 -33 -29 -33h-83c-15 0 -31 9 -31 32v86c0 20 11 34 32 34h82c17 0 29 -12 29 -35zM25 1560v86c0 20 11 34 31 34h82
c17 0 29 -12 29 -35v-84c0 -26 -14 -33 -29 -33h-82c-15 0 -31 9 -31 32z" />
    <glyph glyph-name="Ntilde" unicode="&#xd1;" horiz-adv-x="865" 
d="M746 0h-130c-21 0 -29 18 -29 38v1030c0 88 -65 164 -156 164c-90 0 -155 -76 -155 -164v-1032c0 -20 -7 -36 -28 -36h-136c-14 0 -24 15 -24 36v1041c0 181 157 327 343 327s344 -146 344 -327v-1039c0 -19 -8 -38 -29 -38zM549 1607c25 0 45 15 63 48c7 11 15 15 22 15
c9 0 17 -5 24 -10l31 -25c21 -16 19 -31 5 -57c-35 -63 -78 -90 -137 -90c-42 0 -77 27 -108 48c-21 15 -37 27 -58 27c-29 0 -47 -20 -66 -52c-5 -7 -11 -10 -18 -10c-9 0 -19 5 -27 10l-30 25c-20 16 -19 29 -4 55c33 59 80 92 133 92c38 0 70 -20 98 -39
c27 -19 50 -37 72 -37z" />
    <glyph glyph-name="Ucircumflex" unicode="&#xdb;" horiz-adv-x="863" 
d="M587 315v1030c0 19 8 38 28 38h131c21 0 29 -19 29 -38v-1039c0 -181 -158 -327 -344 -327s-343 146 -343 327v1041c0 21 11 36 25 36h136c21 0 27 -16 27 -36v-1032c0 -88 65 -164 155 -164c91 0 156 76 156 164zM633 1508l-66 -1c-4 -2 -9 -2 -13 -2
c-10 0 -19 5 -28 15l-94 111l-82 -95c-9 -11 -20 -27 -34 -27c-3 0 -6 1 -10 3l-73 1c-8 2 -15 18 -1 34l148 164c3 4 10 10 21 10h60c9 0 17 -4 22 -10l151 -169c14 -15 8 -32 -1 -34z" />
    <glyph glyph-name="Udieresis" unicode="&#xdc;" horiz-adv-x="863" 
d="M587 315v1030c0 19 8 38 28 38h131c21 0 29 -19 29 -38v-1039c0 -181 -158 -327 -344 -327s-343 146 -343 327v1041c0 21 11 36 25 36h136c21 0 27 -16 27 -36v-1032c0 -88 65 -164 155 -164c91 0 156 76 156 164zM613 1633v-84c0 -26 -15 -33 -29 -33h-83
c-15 0 -31 9 -31 32v86c0 20 11 34 32 34h82c17 0 29 -12 29 -35zM264 1548v86c0 20 11 34 31 34h82c17 0 29 -12 29 -35v-84c0 -26 -14 -33 -29 -33h-82c-15 0 -31 9 -31 32z" />
    <glyph glyph-name="icircumflex" unicode="&#xee;" horiz-adv-x="331" 
d="M256 996v-965c0 -19 -12 -31 -33 -31h-118c-20 0 -30 12 -30 31v965c0 15 12 28 30 28h118c19 0 33 -15 33 -28zM368 1094l-66 -1c-4 -2 -9 -2 -13 -2c-10 0 -19 5 -28 15l-94 111l-82 -95c-9 -11 -20 -27 -34 -27c-3 0 -6 1 -10 3l-73 1c-8 2 -15 18 -1 34l148 164
c3 4 10 10 21 10h60c9 0 17 -4 22 -10l151 -169c14 -15 8 -32 -1 -34z" />
    <glyph glyph-name="idieresis" unicode="&#xef;" horiz-adv-x="331" 
d="M256 996v-965c0 -19 -12 -31 -33 -31h-118c-20 0 -30 12 -30 31v965c0 15 12 28 30 28h118c19 0 33 -15 33 -28zM339 1271v-84c0 -26 -15 -33 -29 -33h-83c-15 0 -31 9 -31 32v86c0 20 11 34 32 34h82c17 0 29 -12 29 -35zM-10 1186v86c0 20 11 34 31 34h82
c17 0 29 -12 29 -35v-84c0 -26 -14 -33 -29 -33h-82c-15 0 -31 9 -31 32z" />
    <glyph glyph-name="mu" unicode="&#xb5;" horiz-adv-x="761" 
d="M541 1024h126c14 0 27 -11 27 -31v-723c0 -170 -111 -288 -275 -288c-60 0 -114 23 -160 59v-339c0 -22 -16 -28 -35 -28h-115c-16 0 -29 10 -29 30v1288c0 20 13 32 26 32h120c14 0 34 -12 34 -36v-719c3 -70 62 -127 127 -127c82 0 125 62 127 128v723
c0 20 13 31 27 31z" />
    <glyph glyph-name="periodcentered.001" horiz-adv-x="322" 
d="M270 595v-118c0 -24 -17 -34 -28 -34h-137c-12 0 -29 7 -29 33v119c0 24 14 35 30 35h133c22 0 31 -17 31 -35z" />
    <glyph glyph-name="Ccedilla" unicode="&#xc7;" horiz-adv-x="802" 
d="M343 -14c-154 28 -272 149 -272 321v769c0 185 146 328 344 328c213 0 328 -160 328 -332v-83c0 -30 -6 -41 -29 -41h-120c-22 0 -28 11 -28 38v81c0 87 -59 166 -149 166c-91 0 -157 -75 -157 -164v-753c0 -89 64 -165 157 -165c94 0 154 76 154 165v100
c0 30 8 38 27 38h121c20 0 30 -7 30 -36v-111c0 -176 -118 -299 -275 -323l9 -14c32 -55 53 -104 53 -154c0 -121 -85 -168 -196 -168h-65c-20 0 -26 13 -26 26v63c0 11 6 20 26 20h49c67 0 90 25 90 74c0 29 -12 59 -32 93l-36 55c-1 2 -2 4 -3 7z" />
    <glyph glyph-name="degree" unicode="&#xb0;" horiz-adv-x="501" 
d="M455 1209v-271c0 -105 -92 -189 -206 -189c-112 0 -203 84 -203 189v271c0 105 91 189 203 189c114 0 206 -84 206 -189zM160 1193v-240c0 -53 41 -92 89 -92c51 0 92 39 92 92v240c0 54 -41 93 -92 93c-49 0 -89 -39 -89 -93z" />
    <glyph glyph-name="Ydieresis" unicode="&#x178;" horiz-adv-x="864" 
d="M604 1383h146c15 0 21 -12 21 -23v-481c0 -163 -108 -280 -250 -316v-526c0 -24 -7 -37 -27 -37h-134c-21 0 -27 15 -27 37v526c-143 36 -250 155 -250 316l1 480c0 12 4 24 22 24h143c15 0 23 -12 23 -23v-473c0 -89 63 -163 154 -163c93 0 157 71 157 159v476
c0 13 7 24 21 24zM604 1629v-84c0 -26 -15 -33 -29 -33h-83c-15 0 -31 9 -31 32v86c0 20 11 34 32 34h82c17 0 29 -12 29 -35zM255 1544v86c0 20 11 34 31 34h82c17 0 29 -12 29 -35v-84c0 -26 -14 -33 -29 -33h-82c-15 0 -31 9 -31 32z" />
    <glyph glyph-name="Ccircumflex" unicode="&#x108;" horiz-adv-x="802" 
d="M743 1072v-83c0 -30 -6 -41 -29 -41h-120c-22 0 -28 11 -28 38v81c0 87 -59 166 -149 166c-91 0 -157 -75 -157 -164v-753c0 -89 64 -165 157 -165c94 0 154 76 154 165v100c0 30 8 38 27 38h121c20 0 30 -7 30 -36v-111c0 -198 -149 -328 -334 -328
c-187 0 -344 130 -344 328v769c0 185 146 328 344 328c213 0 328 -160 328 -332zM620 1501l-66 -1c-4 -2 -9 -2 -13 -2c-10 0 -19 5 -28 15l-94 111l-82 -95c-9 -11 -20 -27 -34 -27c-3 0 -6 1 -10 3l-73 1c-8 2 -15 18 -1 34l148 164c3 4 10 10 21 10h60c9 0 17 -4 22 -10
l151 -169c14 -15 8 -32 -1 -34z" />
    <glyph glyph-name="Cdotaccent" unicode="&#x10a;" horiz-adv-x="802" 
d="M743 1072v-83c0 -30 -6 -41 -29 -41h-120c-22 0 -28 11 -28 38v81c0 87 -59 166 -149 166c-91 0 -157 -75 -157 -164v-753c0 -89 64 -165 157 -165c94 0 154 76 154 165v100c0 30 8 38 27 38h121c20 0 30 -7 30 -36v-111c0 -198 -149 -328 -334 -328
c-187 0 -344 130 -344 328v769c0 185 146 328 344 328c213 0 328 -160 328 -332zM489 1644v-93c0 -28 -15 -37 -32 -37h-96c-16 0 -34 11 -34 37v94c0 22 13 38 34 38h96c19 0 32 -14 32 -39z" />
    <glyph glyph-name="Edotaccent" unicode="&#x116;" horiz-adv-x="740" 
d="M289 171h386c14 0 29 -8 29 -28v-112c0 -22 -15 -31 -29 -31h-543c-22 0 -32 14 -32 36v1311c0 21 12 36 32 36h542c14 0 27 -10 27 -32v-110c0 -22 -13 -31 -27 -31h-385v-419h310c14 0 30 -8 30 -30v-110c0 -22 -15 -31 -30 -31h-310v-449zM481 1631v-93
c0 -28 -15 -37 -32 -37h-96c-16 0 -34 11 -34 37v94c0 22 13 38 34 38h96c19 0 32 -14 32 -39z" />
    <glyph glyph-name="Eogonek" unicode="&#x118;" horiz-adv-x="740" 
d="M665 -328v-63c0 -13 -6 -24 -26 -24h-49c-111 0 -204 52 -204 186c0 96 49 149 90 185l52 44h-396c-22 0 -32 14 -32 36v1311c0 21 12 36 32 36h542c14 0 27 -10 27 -32v-110c0 -22 -13 -31 -27 -31h-385v-419h310c14 0 30 -8 30 -30v-110c0 -22 -15 -31 -30 -31h-310
v-449h386c14 0 29 -8 29 -28v-112c3 -9 2 -18 -6 -25l-116 -102c-53 -47 -74 -67 -74 -126c0 -56 31 -84 95 -84h36c20 0 26 -11 26 -22z" />
    <glyph glyph-name="Hcircumflex" unicode="&#x124;" horiz-adv-x="899" 
d="M640 1383h128c17 0 30 -11 30 -35v-1313c0 -22 -9 -35 -31 -35h-127c-20 0 -30 13 -30 35v584h-321v-583c0 -22 -9 -36 -30 -36h-129c-21 0 -30 14 -30 36v1311c0 21 10 36 30 36h129c20 0 30 -15 30 -36v-556h321v556c0 19 8 36 30 36zM664 1480l-66 -1
c-4 -2 -9 -2 -13 -2c-10 0 -19 5 -28 15l-94 111l-82 -95c-9 -11 -20 -27 -34 -27c-3 0 -6 1 -10 3l-73 1c-8 2 -15 18 -1 34l148 164c3 4 10 10 21 10h60c9 0 17 -4 22 -10l151 -169c14 -15 8 -32 -1 -34z" />
    <glyph glyph-name="Ibreve" unicode="&#x12c;" horiz-adv-x="389" 
d="M289 1347v-1311c0 -22 -9 -36 -30 -36h-129c-21 0 -30 14 -30 36v1311c0 21 10 36 30 36h129c20 0 30 -15 30 -36zM405 1686c0 -122 -88 -189 -195 -189s-196 68 -196 189c0 21 13 33 26 33h52c13 0 25 -7 25 -27c0 -40 24 -96 95 -96s94 55 94 96c0 19 10 27 23 27h50
c17 0 26 -12 26 -33z" />
    <glyph glyph-name="Itilde" unicode="&#x128;" horiz-adv-x="389" 
d="M289 1347v-1311c0 -22 -9 -36 -30 -36h-129c-21 0 -30 14 -30 36v1311c0 21 10 36 30 36h129c20 0 30 -15 30 -36zM269 1620c25 0 45 15 63 48c7 11 15 15 22 15c9 0 17 -5 24 -10l31 -25c21 -16 19 -31 5 -57c-35 -63 -78 -90 -137 -90c-42 0 -77 27 -108 48
c-21 15 -37 27 -58 27c-29 0 -47 -20 -66 -52c-5 -7 -11 -10 -18 -10c-9 0 -19 5 -27 10l-30 25c-20 16 -19 29 -4 55c33 59 80 92 133 92c38 0 70 -20 98 -39c27 -19 50 -37 72 -37z" />
    <glyph glyph-name="IJ" unicode="&#x132;" horiz-adv-x="1112" 
d="M297 1347v-1311c0 -22 -9 -36 -30 -36h-129c-21 0 -30 14 -30 36v1311c0 21 10 36 30 36h129c20 0 30 -15 30 -36zM1009 1344v-1021c0 -206 -148 -344 -334 -344c-96 0 -197 39 -250 101c-8 10 -19 36 -8 51l60 75c7 9 15 13 24 13s18 -4 26 -13c29 -28 83 -55 139 -55
c99 0 154 80 154 181v1015c0 25 12 36 26 36h131c24 0 32 -15 32 -39z" />
    <glyph glyph-name="Jcircumflex" unicode="&#x134;" horiz-adv-x="682" 
d="M586 1344v-1021c0 -206 -148 -344 -334 -344c-96 0 -197 39 -250 101c-8 10 -19 36 -8 51l60 75c7 9 15 13 24 13s18 -4 26 -13c29 -28 83 -55 139 -55c99 0 154 80 154 181v1015c0 25 12 36 26 36h131c24 0 32 -15 32 -39zM691 1491l-66 -1c-4 -2 -9 -2 -13 -2
c-10 0 -19 5 -28 15l-94 111l-82 -95c-9 -11 -20 -27 -34 -27c-3 0 -6 1 -10 3l-73 1c-8 2 -15 18 -1 34l148 164c3 4 10 10 21 10h60c9 0 17 -4 22 -10l151 -169c14 -15 8 -32 -1 -34z" />
    <glyph glyph-name="Scedilla" unicode="&#x15e;" horiz-adv-x="791" 
d="M377 -41l-14 22c-180 16 -299 153 -299 339v52c0 26 5 40 30 40h118c23 0 30 -11 30 -36v-47c0 -133 93 -178 159 -178c89 0 164 68 164 164c0 129 -60 179 -215 308c-177 144 -286 222 -286 435c0 271 223 346 331 346c196 0 329 -144 329 -340v-59
c0 -25 -7 -36 -34 -36h-115c-22 0 -27 12 -27 36v58c0 87 -53 170 -152 170c-64 0 -157 -42 -157 -180c0 -123 93 -184 178 -253c191 -157 328 -245 328 -494c0 -147 -103 -280 -258 -317c27 -49 44 -93 44 -138c0 -121 -85 -168 -196 -168h-65c-20 0 -26 13 -26 26v63
c0 11 6 20 26 20h49c67 0 90 25 90 74c0 29 -12 59 -32 93z" />
    <glyph glyph-name="Scircumflex" unicode="&#x15c;" horiz-adv-x="791" 
d="M548 1005v58c0 87 -53 170 -152 170c-64 0 -157 -42 -157 -180c0 -123 93 -184 178 -253c191 -157 328 -245 328 -494c0 -173 -142 -327 -345 -327c-200 0 -336 142 -336 341v52c0 26 5 40 30 40h118c23 0 30 -11 30 -36v-47c0 -133 93 -178 159 -178
c89 0 164 68 164 164c0 129 -60 179 -215 308c-177 144 -286 222 -286 435c0 271 223 346 331 346c196 0 329 -144 329 -340v-59c0 -25 -7 -36 -34 -36h-115c-22 0 -27 12 -27 36zM610 1490l-66 -1c-4 -2 -9 -2 -13 -2c-10 0 -19 5 -28 15l-94 111l-82 -95
c-9 -11 -20 -27 -34 -27c-3 0 -6 1 -10 3l-73 1c-8 2 -15 18 -1 34l148 164c3 4 10 10 21 10h60c9 0 17 -4 22 -10l151 -169c14 -15 8 -32 -1 -34z" />
    <glyph glyph-name="Wcircumflex" unicode="&#x174;" horiz-adv-x="1362" 
d="M1274 1345v-1039c0 -181 -132 -327 -335 -327c-118 0 -204 58 -253 146c-49 -88 -138 -146 -255 -146c-211 0 -343 146 -343 327v1041c0 21 10 36 24 36h136c21 0 28 -16 28 -36v-1032c0 -88 65 -164 155 -164c92 0 156 76 156 164v1032c0 21 10 36 25 36h135
c21 0 28 -16 28 -36v-1032c0 -88 63 -164 156 -164c92 0 155 76 155 164v1030c0 19 8 38 28 38h131c22 0 29 -19 29 -38zM886 1506l-66 -1c-4 -2 -9 -2 -13 -2c-10 0 -19 5 -28 15l-94 111l-82 -95c-9 -11 -20 -27 -34 -27c-3 0 -6 1 -10 3l-73 1c-8 2 -15 18 -1 34l148 164
c3 4 10 10 21 10h60c9 0 17 -4 22 -10l151 -169c14 -15 8 -32 -1 -34z" />
    <glyph glyph-name="Wdieresis" unicode="&#x1e84;" horiz-adv-x="1362" 
d="M1274 1345v-1039c0 -181 -132 -327 -335 -327c-118 0 -204 58 -253 146c-49 -88 -138 -146 -255 -146c-211 0 -343 146 -343 327v1041c0 21 10 36 24 36h136c21 0 28 -16 28 -36v-1032c0 -88 65 -164 155 -164c92 0 156 76 156 164v1032c0 21 10 36 25 36h135
c21 0 28 -16 28 -36v-1032c0 -88 63 -164 156 -164c92 0 155 76 155 164v1030c0 19 8 38 28 38h131c22 0 29 -19 29 -38zM864 1652v-84c0 -26 -15 -33 -29 -33h-83c-15 0 -31 9 -31 32v86c0 20 11 34 32 34h82c17 0 29 -12 29 -35zM515 1567v86c0 20 11 34 31 34h82
c17 0 29 -12 29 -35v-84c0 -26 -14 -33 -29 -33h-82c-15 0 -31 9 -31 32z" />
    <glyph glyph-name="Wgrave" unicode="&#x1e80;" horiz-adv-x="1362" 
d="M1274 1345v-1039c0 -181 -132 -327 -335 -327c-118 0 -204 58 -253 146c-49 -88 -138 -146 -255 -146c-211 0 -343 146 -343 327v1041c0 21 10 36 24 36h136c21 0 28 -16 28 -36v-1032c0 -88 65 -164 155 -164c92 0 156 76 156 164v1032c0 21 10 36 25 36h135
c21 0 28 -16 28 -36v-1032c0 -88 63 -164 156 -164c92 0 155 76 155 164v1030c0 19 8 38 28 38h131c22 0 29 -19 29 -38zM673 1713l76 -166c11 -26 -3 -44 -20 -44h-77c-16 0 -28 4 -42 29l-88 166c-12 23 -4 45 18 45h97c19 0 27 -6 36 -30z" />
    <glyph glyph-name="Ycircumflex" unicode="&#x176;" horiz-adv-x="864" 
d="M604 1383h146c15 0 21 -12 21 -23v-481c0 -163 -108 -280 -250 -316v-526c0 -24 -7 -37 -27 -37h-134c-21 0 -27 15 -27 37v526c-143 36 -250 155 -250 316l1 480c0 12 4 24 22 24h143c15 0 23 -12 23 -23v-473c0 -89 63 -163 154 -163c93 0 157 71 157 159v476
c0 13 7 24 21 24zM641 1500l-66 -1c-4 -2 -9 -2 -13 -2c-10 0 -19 5 -28 15l-94 111l-82 -95c-9 -11 -20 -27 -34 -27c-3 0 -6 1 -10 3l-73 1c-8 2 -15 18 -1 34l148 164c3 4 10 10 21 10h60c9 0 17 -4 22 -10l151 -169c14 -15 8 -32 -1 -34z" />
    <glyph glyph-name="Zdotaccent" unicode="&#x17b;" horiz-adv-x="685" 
d="M231 178h392c12 0 24 -8 24 -29v-119c0 -21 -12 -30 -24 -30h-565c-14 0 -25 9 -25 30v86c0 11 2 18 6 28l381 1043l13 27h-361c-14 0 -24 10 -24 30v109c0 21 11 30 24 30h535c24 0 30 -9 30 -31v-84c0 -8 -3 -18 -4 -21l-386 -1037zM452 1649v-93
c0 -28 -15 -37 -32 -37h-96c-16 0 -34 11 -34 37v94c0 22 13 38 34 38h96c19 0 32 -14 32 -39z" />
    <glyph glyph-name="Ubreve" unicode="&#x16c;" horiz-adv-x="863" 
d="M587 315v1030c0 19 8 38 28 38h131c21 0 29 -19 29 -38v-1039c0 -181 -158 -327 -344 -327s-343 146 -343 327v1041c0 21 11 36 25 36h136c21 0 27 -16 27 -36v-1032c0 -88 65 -164 155 -164c91 0 156 76 156 164zM654 1692c0 -122 -88 -189 -195 -189s-196 68 -196 189
c0 21 13 33 26 33h52c13 0 25 -7 25 -27c0 -40 24 -96 95 -96s94 55 94 96c0 19 10 27 23 27h50c17 0 26 -12 26 -33z" />
    <glyph glyph-name="Uogonek" unicode="&#x172;" horiz-adv-x="862" 
d="M627 -268v-63c0 -13 -6 -24 -26 -24h-49c-111 0 -204 52 -204 186c0 68 25 115 54 149c-173 14 -314 154 -314 326v1041c0 21 11 36 25 36h136c21 0 27 -16 27 -36v-1032c0 -88 65 -164 155 -164c91 0 156 76 156 164v1030c0 19 8 38 28 38h131c21 0 29 -19 29 -38v-1039
c0 -108 -56 -204 -141 -263l-90 -79c-53 -47 -74 -67 -74 -126c0 -56 31 -84 95 -84h36c20 0 26 -11 26 -22z" />
    <glyph glyph-name="Uring" unicode="&#x16e;" horiz-adv-x="863" 
d="M507 1597c0 40 -32 68 -67 68c-34 0 -64 -28 -64 -68s30 -67 64 -67c35 0 67 27 67 67zM587 315v1030c0 19 8 38 28 38h131c21 0 29 -19 29 -38v-1039c0 -181 -158 -327 -344 -327s-343 146 -343 327v1041c0 21 11 36 25 36h136c21 0 27 -16 27 -36v-1032
c0 -88 65 -164 155 -164c91 0 156 76 156 164zM295 1597c0 80 61 145 145 145s145 -65 145 -145c0 -82 -61 -144 -145 -144s-145 62 -145 144z" />
    <glyph glyph-name="Utilde" unicode="&#x168;" horiz-adv-x="863" 
d="M587 315v1030c0 19 8 38 28 38h131c21 0 29 -19 29 -38v-1039c0 -181 -158 -327 -344 -327s-343 146 -343 327v1041c0 21 11 36 25 36h136c21 0 27 -16 27 -36v-1032c0 -88 65 -164 155 -164c91 0 156 76 156 164zM504 1600c25 0 45 15 63 48c7 11 15 15 22 15
c9 0 17 -5 24 -10l31 -25c21 -16 19 -31 5 -57c-35 -63 -78 -90 -137 -90c-42 0 -77 27 -108 48c-21 15 -37 27 -58 27c-29 0 -47 -20 -66 -52c-5 -7 -11 -10 -18 -10c-9 0 -19 5 -27 10l-30 25c-20 16 -19 29 -4 55c33 59 80 92 133 92c38 0 70 -20 98 -39
c27 -19 50 -37 72 -37z" />
    <glyph glyph-name="Lacute" unicode="&#x139;" horiz-adv-x="701" 
d="M644 0h-512c-22 0 -32 14 -32 36v1311c0 21 10 36 30 36h129c20 0 30 -15 30 -36v-1176h355c15 0 27 -6 27 -28v-111c0 -22 -12 -32 -27 -32zM240 1740h97c22 0 30 -22 18 -45l-88 -166c-14 -25 -26 -29 -42 -29h-77c-17 0 -31 18 -20 45l76 166c9 23 18 29 36 29z" />
    <glyph glyph-name="Lslash" unicode="&#x141;" horiz-adv-x="738" 
d="M325 831l49 34c3 2 8 4 14 4c9 0 18 -3 24 -13l31 -53c9 -14 0 -32 -8 -37l-110 -78v-517h355c15 0 27 -6 27 -28v-111c0 -22 -12 -32 -27 -32h-512c-21 0 -31 14 -31 36v520l-58 -40c-3 -2 -8 -4 -15 -4c-8 0 -18 3 -25 13l-29 52c-9 14 -1 33 7 39l120 83v648
c0 21 9 36 29 36h129c21 0 30 -15 30 -36v-516z" />
    <glyph glyph-name="lacute" unicode="&#x13a;" horiz-adv-x="438" 
d="M407 132v-103c0 -12 -3 -29 -44 -29h-56c-134 0 -228 64 -228 247v1104c0 19 10 32 29 32h122c19 0 29 -13 29 -32v-1095c0 -57 26 -93 93 -93h28c25 0 27 -20 27 -31zM230 1704h97c22 0 30 -22 18 -45l-88 -166c-14 -25 -26 -29 -42 -29h-77c-17 0 -31 18 -20 45l76 166
c9 23 18 29 36 29z" />
    <glyph glyph-name="racute" unicode="&#x155;" horiz-adv-x="520" 
d="M512 1002v-92c0 -25 -22 -33 -43 -33c-23 1 -42 1 -64 1c-100 0 -162 -76 -162 -176v-662c0 -28 -22 -40 -36 -40h-117c-14 0 -26 12 -26 32v692c0 225 175 318 312 318c43 0 80 0 107 -6c19 -4 29 -16 29 -34zM395 1382h97c22 0 30 -22 18 -45l-88 -166
c-14 -25 -26 -29 -42 -29h-77c-17 0 -31 18 -20 45l76 166c9 23 18 29 36 29z" />
    <glyph glyph-name="tbar" unicode="&#x167;" horiz-adv-x="480" 
d="M413 863h-121v-241h100c14 0 25 -12 25 -35v-97c0 -18 -15 -32 -27 -32h-98v-202c0 -57 26 -93 93 -93h28c25 0 27 -20 27 -31v-103c0 -12 -3 -29 -44 -29h-56c-134 0 -228 64 -228 247v211h-82c-10 0 -25 10 -25 32v96c0 24 14 36 25 36h82v241h-73c-10 0 -27 12 -27 33
v96c0 22 17 32 27 32h73v161c0 20 8 32 26 35l121 36c21 0 33 -9 33 -31v-201h124c13 0 25 -10 25 -31v-97c0 -18 -11 -33 -28 -33z" />
    <glyph glyph-name="tcaron" unicode="&#x165;" horiz-adv-x="667" 
d="M396 0h-56c-134 0 -228 64 -228 247v616h-73c-10 0 -27 12 -27 33v96c0 22 17 32 27 32h73v161c0 20 8 32 26 35l121 36c21 0 33 -9 33 -31v-201h124c13 0 25 -10 25 -31v-97c0 -18 -11 -33 -28 -33h-121v-607c0 -57 26 -93 93 -93h28c25 0 27 -20 27 -31v-103
c0 -12 -3 -29 -44 -29zM639 1348v-87c0 -96 -39 -141 -65 -166c-6 -6 -12 -8 -17 -8c-4 0 -9 1 -13 5l-26 21c-13 11 -4 23 2 30c19 22 31 46 31 66c0 15 1 27 -7 27h-26c-16 0 -30 10 -30 36v76c0 20 9 40 34 40h83c22 0 34 -13 34 -40z" />
    <glyph glyph-name="Tbar" unicode="&#x166;" horiz-adv-x="650" 
d="M420 1210v-408h114c19 0 29 -12 29 -33v-98c0 -20 -15 -34 -33 -34h-110v-605c0 -21 -13 -32 -26 -32h-135c-15 0 -28 11 -28 32v605h-92c-13 0 -34 8 -34 36v89c0 29 21 40 34 40h92v408h-201c-13 0 -27 10 -27 32v109c0 21 14 32 27 32h591c14 0 27 -9 27 -31v-110
c0 -22 -13 -32 -27 -32h-201z" />
    <glyph glyph-name="plusminus" unicode="&#xb1;" horiz-adv-x="580" 
d="M363 542v-145c0 -13 -11 -25 -28 -25h-90c-15 0 -27 13 -27 26v144h-144c-8 0 -25 8 -25 28v96c0 14 15 25 26 25h143v143c0 9 9 26 28 26h92c14 0 25 -14 25 -27v-142h142c14 0 25 -10 25 -28v-94c0 -15 -13 -27 -26 -27h-141zM530 238v-93c0 -15 -13 -27 -26 -27h-430
c-8 0 -25 8 -25 27v96c0 14 15 24 26 24h430c14 0 25 -10 25 -27z" />
    <glyph glyph-name="dotlessi" unicode="&#x131;" horiz-adv-x="331" 
d="M256 996v-965c0 -19 -12 -31 -33 -31h-118c-20 0 -30 12 -30 31v965c0 15 12 28 30 28h118c19 0 33 -15 33 -28z" />
    <glyph glyph-name="guillemotright.001" horiz-adv-x="762" 
d="M378 812l80 64c4 3 8 5 12 5c6 0 12 -4 15 -8l241 -349c5 -7 7 -9 7 -18c0 -6 -2 -10 -7 -16l-242 -348c-3 -5 -9 -9 -15 -9c-3 0 -7 1 -11 4l-79 63c-7 6 -11 18 -3 30l196 276l-196 275c-6 8 -6 25 2 31zM160 872l242 -348c5 -7 8 -9 8 -18c0 -6 -3 -10 -8 -16
l-241 -348c-3 -5 -9 -9 -15 -9c-4 0 -8 2 -13 5l-76 62c-8 6 -12 18 -4 30l196 276l-197 275c-5 8 -6 24 3 32l78 63c4 3 8 5 12 5c7 0 12 -5 15 -9z" />
    <glyph glyph-name="guillemotleft.001" horiz-adv-x="763" 
d="M35 500c0 9 3 11 7 18l241 347c3 5 10 10 17 10c3 0 7 -1 10 -4l79 -65c10 -8 8 -23 2 -31l-197 -276l197 -275c9 -12 5 -25 -3 -30l-78 -63c-4 -3 -8 -4 -11 -4c-7 0 -12 4 -16 9l-241 347c-4 7 -7 10 -7 17zM715 775l-197 -276l197 -275c8 -12 4 -24 -4 -31l-77 -62
c-4 -3 -8 -4 -11 -4c-7 0 -13 4 -17 9l-240 347c-4 7 -8 10 -8 17c0 9 3 11 8 18l241 347c3 5 10 10 17 10c3 0 7 -1 10 -4l78 -65c9 -7 9 -23 3 -31z" />
    <glyph glyph-name="minus" unicode="&#x2212;" horiz-adv-x="579" 
d="M528 660v-89c0 -14 -13 -26 -25 -26h-428c-8 0 -25 7 -25 26v90c0 17 14 27 26 27h428c12 0 24 -10 24 -28z" />
    <glyph glyph-name="figuredash" unicode="&#x2012;" horiz-adv-x="576" 
d="M501 762v-89c0 -23 -14 -39 -31 -39h-362c-13 0 -28 11 -28 39v88c0 28 15 43 28 43h364c18 0 29 -14 29 -42z" />
    <glyph glyph-name="uni00AD" unicode="&#xad;" horiz-adv-x="516" 
d="M449 690v-76c0 -20 -12 -34 -27 -34h-326c-11 0 -25 10 -25 35v74c0 25 14 38 25 38h329c15 0 24 -12 24 -37z" />
    <glyph glyph-name="exclamdbl" unicode="&#x203c;" horiz-adv-x="735" 
d="M461 373v978c0 22 10 36 31 36h100c21 0 32 -14 32 -36v-978c0 -21 -10 -35 -32 -35h-100c-22 0 -31 14 -31 35zM638 151v-117c0 -24 -17 -34 -29 -34h-136c-11 0 -28 8 -28 33v119c0 24 13 35 29 35h133c22 0 31 -17 31 -36zM106 373v978c0 22 10 36 31 36h100
c21 0 32 -14 32 -36v-978c0 -21 -10 -35 -32 -35h-100c-22 0 -31 14 -31 35zM283 151v-117c0 -24 -17 -34 -29 -34h-136c-11 0 -28 8 -28 33v119c0 24 13 35 29 35h133c22 0 31 -17 31 -36z" />
    <glyph glyph-name="Dcroat" unicode="&#x110;" horiz-adv-x="858" 
d="M289 1210v-439h94c11 0 27 -7 27 -27v-116c0 -17 -18 -26 -28 -26h-93v-431h150c99 1 159 76 159 175v691c0 107 -60 171 -157 173h-152zM787 1043v-701c0 -214 -144 -342 -341 -342h-314c-22 0 -32 14 -32 36v566h-67c-8 0 -28 5 -28 26v115c0 20 18 28 29 28h66v576
c0 21 12 36 32 36h315c197 -1 340 -128 340 -340z" />
    <glyph glyph-name="ordmasculine" unicode="&#xba;" horiz-adv-x="548" 
d="M184 1194v-275c0 -53 40 -93 89 -93c51 0 92 40 92 93v275c0 54 -41 93 -92 93c-49 0 -89 -39 -89 -93zM491 615v-62c0 -15 -17 -27 -26 -27h-374c-6 0 -24 8 -24 28v61c0 17 16 27 25 27h374c10 0 25 -9 25 -27zM493 1206v-299c0 -113 -98 -203 -220 -203
c-121 0 -218 90 -218 203v299c0 112 97 203 218 203c122 0 220 -90 220 -203z" />
    <glyph glyph-name="ordfeminine" unicode="&#xaa;" horiz-adv-x="571" 
d="M340 995v187c0 54 -34 97 -78 97c-48 0 -74 -41 -74 -99v-188c0 -61 32 -91 71 -91c50 0 81 45 81 94zM99 707h385c11 0 25 -11 25 -28v-62c0 -15 -16 -27 -25 -27h-386c-7 0 -25 8 -25 28v61c0 17 16 28 26 28zM334 1331l10 31c5 17 10 21 26 21h86c12 0 19 -7 19 -22
v-550c0 -14 -7 -22 -17 -22h-95c-11 0 -16 8 -20 21l-10 29c-21 -36 -51 -61 -91 -61c-120 0 -179 93 -179 194v223c0 117 66 200 176 200c44 0 74 -27 95 -64z" />
    <glyph glyph-name="onehalf" unicode="&#xbd;" horiz-adv-x="792" 
d="M392 618c135 0 245 -100 245 -225v-90c0 -78 -27 -137 -77 -201l-213 -270h271c13 0 31 -7 31 -31v-82c0 -17 -13 -27 -29 -27h-438c-18 0 -31 10 -31 27v87c0 16 3 23 7 27l280 347c30 39 50 73 51 123v75c0 61 -45 100 -97 100c-60 0 -97 -48 -97 -107
c0 -37 -9 -41 -25 -41l-99 1c-18 0 -24 13 -24 43c0 143 109 244 245 244zM323 943v741l-59 -29c-4 -2 -7 -2 -10 -2c-12 0 -17 13 -17 19l1 76c0 16 3 29 18 36l58 29c21 10 32 11 42 11h92c15 0 22 -9 22 -24v-857c0 -21 -12 -30 -26 -30h-95c-17 0 -26 11 -26 30z
M789 815v-89c0 -15 -13 -27 -26 -27h-734c-8 0 -25 8 -25 28v89c0 17 14 27 26 27h734c13 0 25 -10 25 -28z" />
    <glyph glyph-name="logicalnot" unicode="&#xac;" horiz-adv-x="590" 
d="M423 307v285h-381c-11 0 -26 9 -26 28v62c0 20 7 37 26 37h473c14 0 23 -9 23 -33v-379c0 -17 -7 -32 -23 -32h-63c-18 0 -29 12 -29 32z" />
    <glyph glyph-name="divide" unicode="&#xf7;" horiz-adv-x="579" 
d="M528 631v-90c0 -14 -13 -26 -25 -26h-428c-8 0 -25 8 -25 27v89c0 18 14 27 26 27h428c12 0 24 -9 24 -27zM240 391h107c16 0 19 -17 19 -23v-124c0 -15 -15 -21 -20 -21h-106c-7 0 -20 5 -20 21v123c0 15 9 24 20 24zM366 909v-124c0 -15 -15 -21 -20 -21h-106
c-7 0 -20 5 -20 21v123c0 15 9 24 20 24h107c16 0 19 -18 19 -23z" />
    <glyph glyph-name="multiply" unicode="&#xd7;" horiz-adv-x="472" 
d="M452 465l-61 -70c-5 -4 -10 -6 -15 -6s-10 2 -14 7l-128 150l-127 -150c-5 -5 -10 -8 -15 -8s-10 3 -14 7l-61 70c-10 11 -3 30 5 41l123 144l-122 144c-6 8 -16 28 -5 40l60 69c4 4 8 6 13 6c6 0 13 -3 18 -9l125 -146l126 147c5 5 11 8 17 8c5 0 10 -2 14 -6l60 -69
c12 -12 1 -32 -6 -40l-122 -144l123 -144c8 -11 18 -32 6 -41z" />
    <glyph glyph-name="copyright" unicode="&#xa9;" horiz-adv-x="815" 
d="M408 90c134 0 239 91 239 225v751c0 121 -98 226 -239 226c-142 0 -239 -102 -239 -225v-749c0 -133 105 -228 239 -228zM408 238c48 0 95 35 95 93v170c0 28 12 29 19 29h64c6 0 18 -1 18 -29v-170c-4 -93 -77 -188 -195 -188c-122 0 -200 93 -200 197v710
c0 115 99 193 194 193c123 0 201 -90 201 -182v-148c0 -30 -9 -30 -16 -30h-64c-7 0 -21 0 -21 30v149c0 64 -45 90 -94 90c-60 0 -95 -47 -95 -98v-715c0 -56 34 -101 94 -101zM752 1076v-770c0 -181 -159 -327 -344 -327c-186 0 -343 146 -343 327v770
c0 181 157 328 343 328c185 0 344 -147 344 -328z" />
    <glyph glyph-name="registered" unicode="&#xae;" horiz-adv-x="784" 
d="M386 650c141 0 251 94 251 236v185c0 127 -102 237 -251 237s-251 -107 -251 -236v-183c0 -140 110 -239 251 -239zM445 1037v69c0 32 -20 54 -52 54h-53v-178h54c33 0 51 24 51 55zM43 881v195c0 181 157 328 343 328c185 0 344 -147 344 -328v-195
c0 -181 -159 -326 -344 -326c-186 0 -343 145 -343 326zM449 725l-44 179c-5 -1 -9 -1 -14 -1h-51v-176c0 -9 -4 -14 -12 -14h-57c-9 0 -13 5 -13 14v498c0 9 5 15 13 15h122c78 0 134 -60 134 -134v-67c0 -50 -22 -86 -52 -109l57 -202c2 -7 -2 -15 -8 -15h-62
c-7 0 -11 3 -13 12z" />
    <glyph glyph-name="B" unicode="B" horiz-adv-x="808" 
d="M579 333v120c0 130 -82 180 -159 180h-144v-462h153c103 0 150 90 150 162zM564 932v114c0 112 -65 164 -157 164h-131v-421h126c53 0 162 27 162 143zM744 1056v-115c0 -114 -84 -210 -158 -222c63 -13 182 -82 182 -279v-122c0 -193 -147 -318 -319 -318h-317
c-22 0 -32 14 -32 36v1311c0 21 12 36 32 36h284c191 0 328 -130 328 -327z" />
    <glyph glyph-name="G" unicode="G" horiz-adv-x="818" 
d="M571 311v248h-106c-18 0 -29 9 -29 31v97c0 22 11 31 29 31h251c22 0 33 -14 33 -36v-376c0 -197 -149 -327 -335 -327c-180 0 -343 124 -343 327v770c0 197 157 328 344 328c237 0 328 -192 328 -332v-79c0 -29 -9 -39 -28 -39h-121c-22 0 -28 9 -28 36v78
c0 87 -61 165 -152 165c-90 0 -154 -73 -154 -163v-756c0 -97 72 -163 154 -163c89 0 157 72 157 160z" />
    <glyph glyph-name="quotesinglbase" unicode="&#x201a;" horiz-adv-x="348" 
d="M169 -18c0 10 -3 18 -12 18h-48c-17 0 -33 12 -33 38v110c0 25 12 43 37 43h123c26 0 38 -14 38 -43v-167c0 -75 -58 -116 -128 -116c-18 0 -29 8 -29 26v39c0 14 12 22 30 22c15 0 22 12 22 30z" />
    <glyph glyph-name="quotedblbase" unicode="&#x201e;" horiz-adv-x="625" 
d="M76 38v110c0 25 12 43 37 43h123c25 0 38 -14 38 -43v-167c0 -75 -58 -116 -128 -116c-18 0 -29 8 -29 26v39c0 14 12 22 29 22c16 0 22 12 22 30c0 10 -2 18 -11 18h-48c-17 0 -33 12 -33 38zM397 -109v39c0 14 12 22 29 22c15 0 22 12 22 30c0 10 -2 18 -11 18h-49
c-16 0 -32 12 -32 38v110c0 25 12 43 37 43h123c25 0 37 -14 37 -43v-167c0 -75 -57 -116 -128 -116c-17 0 -28 8 -28 26z" />
    <glyph glyph-name="guilsinglleft.001" horiz-adv-x="421" 
d="M306 876l79 -64c9 -8 8 -24 2 -31l-198 -277l198 -275c9 -12 5 -24 -3 -30l-78 -63c-4 -3 -8 -4 -11 -4c-7 0 -12 4 -16 9l-241 347c-5 7 -7 11 -7 17c0 9 2 12 6 17l242 349c3 5 9 9 16 9c4 0 7 -1 11 -4z" />
    <glyph glyph-name="Ccaron" unicode="&#x10c;" horiz-adv-x="802" 
d="M743 1072v-83c0 -30 -6 -41 -29 -41h-120c-22 0 -28 11 -28 38v81c0 87 -59 166 -149 166c-91 0 -157 -75 -157 -164v-753c0 -89 64 -165 157 -165c94 0 154 76 154 165v100c0 30 8 38 27 38h121c20 0 30 -7 30 -36v-111c0 -198 -149 -328 -334 -328
c-187 0 -344 130 -344 328v769c0 185 146 328 344 328c213 0 328 -160 328 -332zM423 1590l95 111c9 10 17 15 27 15c4 0 9 0 13 -2l67 -1c9 -2 15 -19 1 -35l-151 -168c-6 -7 -14 -10 -23 -10h-60c-11 0 -18 6 -21 10l-148 163c-14 16 -7 33 1 35l73 1c3 2 7 3 10 3
c14 0 25 -16 34 -27z" />
    <glyph glyph-name="Dcaron" unicode="&#x10e;" horiz-adv-x="858" 
d="M598 346v691c0 107 -60 171 -157 173h-152v-1039h148c100 0 161 76 161 175zM100 36v1311c0 21 12 36 32 36h318c196 -2 337 -129 337 -340v-701c0 -214 -143 -341 -339 -342h-316c-22 0 -32 14 -32 36zM304 1671l82 -95l95 111c9 10 17 15 27 15c4 0 9 0 13 -2l67 -1
c9 -2 15 -19 1 -35l-151 -168c-6 -7 -14 -10 -23 -10h-60c-11 0 -18 6 -21 10l-148 163c-14 16 -7 33 1 35l73 1c3 2 7 3 10 3c14 0 25 -16 34 -27z" />
    <glyph glyph-name="Ecaron" unicode="&#x11a;" horiz-adv-x="740" 
d="M289 171h386c14 0 29 -8 29 -28v-112c0 -22 -15 -31 -29 -31h-543c-22 0 -32 14 -32 36v1311c0 21 12 36 32 36h542c14 0 27 -10 27 -32v-110c0 -22 -13 -31 -27 -31h-385v-419h310c14 0 30 -8 30 -30v-110c0 -22 -15 -31 -30 -31h-310v-449zM431 1583l95 111
c9 10 17 15 27 15c4 0 9 0 13 -2l67 -1c9 -2 15 -19 1 -35l-151 -168c-6 -7 -14 -10 -23 -10h-60c-11 0 -18 6 -21 10l-148 163c-14 16 -7 33 1 35l73 1c3 2 7 3 10 3c14 0 25 -16 34 -27z" />
    <glyph glyph-name="Idotaccent" unicode="&#x130;" horiz-adv-x="389" 
d="M289 1347v-1311c0 -22 -9 -36 -30 -36h-129c-21 0 -30 14 -30 36v1311c0 21 10 36 30 36h129c20 0 30 -15 30 -36zM275 1655v-93c0 -28 -15 -37 -32 -37h-96c-16 0 -34 11 -34 37v94c0 22 13 38 34 38h96c19 0 32 -14 32 -39z" />
    <glyph glyph-name="Ncaron" unicode="&#x147;" horiz-adv-x="862" 
d="M746 0h-130c-21 0 -29 18 -29 38v1030c0 88 -65 164 -156 164c-90 0 -155 -76 -155 -164v-1032c0 -20 -7 -36 -28 -36h-136c-14 0 -24 15 -24 36v1041c0 181 157 327 343 327s344 -146 344 -327v-1039c0 -19 -8 -38 -29 -38zM466 1585l95 111c9 10 17 15 27 15
c4 0 9 0 13 -2l67 -1c9 -2 15 -19 1 -35l-151 -168c-6 -7 -14 -10 -23 -10h-60c-11 0 -18 6 -21 10l-148 163c-14 16 -7 33 1 35l73 1c3 2 7 3 10 3c14 0 25 -16 34 -27z" />
    <glyph glyph-name="Rcaron" unicode="&#x158;" horiz-adv-x="863" 
d="M599 888v151c0 102 -61 171 -161 171h-149v-484h137c117 0 173 63 173 162zM741 0h-119c-20 0 -39 13 -39 40v205c0 246 -100 333 -275 333h-19v-544c0 -21 -10 -34 -30 -34h-129c-21 0 -30 13 -30 34v1313c0 21 12 36 32 36h320c197 0 336 -151 336 -344v-136
c0 -131 -72 -219 -167 -270c101 -72 150 -199 150 -413v-182c0 -16 -7 -38 -30 -38zM314 1666l82 -95l95 111c9 10 17 15 27 15c4 0 9 0 13 -2l67 -1c9 -2 15 -19 1 -35l-151 -168c-6 -7 -14 -10 -23 -10h-60c-11 0 -18 6 -21 10l-148 163c-14 16 -7 33 1 35l73 1
c3 2 7 3 10 3c14 0 25 -16 34 -27z" />
    <glyph glyph-name="Tcaron" unicode="&#x164;" horiz-adv-x="650" 
d="M621 1210h-201v-1178c0 -21 -13 -32 -26 -32h-135c-15 0 -28 11 -28 32v1178h-201c-13 0 -27 10 -27 32v109c0 21 14 32 27 32h591c14 0 27 -9 27 -31v-110c0 -22 -13 -32 -27 -32zM249 1666l82 -95l95 111c9 10 17 15 27 15c4 0 9 0 13 -2l67 -1c9 -2 15 -19 1 -35
l-151 -168c-6 -7 -14 -10 -23 -10h-60c-11 0 -18 6 -21 10l-148 163c-14 16 -7 33 1 35l73 1c3 2 7 3 10 3c14 0 25 -16 34 -27z" />
    <glyph glyph-name="at.001" horiz-adv-x="1101" 
d="M833 322v166c0 120 -48 182 -121 182c-70 0 -110 -56 -110 -170v-185c0 -141 56 -163 111 -163c65 0 120 24 120 170zM784 -158l32 -93c11 -12 8 -32 -6 -42c-50 -52 -133 -78 -228 -78c-302 0 -484 203 -484 509v532c0 320 161 555 478 555c259 0 428 -169 428 -433
v-747c0 -41 -9 -50 -28 -50h-113c-23 0 -28 14 -28 44v59c-33 -94 -91 -116 -167 -116c-111 0 -242 79 -242 305v235c0 231 109 316 241 316c91 0 141 -55 168 -133v97c0 155 -111 252 -258 252c-230 0 -312 -163 -311 -375v-538c0 -214 105 -358 318 -358
c79 0 137 25 166 59c5 5 11 6 17 6c8 0 15 -2 17 -6z" />
    <glyph glyph-name="O" unicode="O" horiz-adv-x="831" 
d="M759 1076v-770c0 -197 -159 -327 -345 -327s-343 133 -343 327v770c0 197 157 328 344 328c185 0 344 -131 344 -328zM416 1233c-92 0 -156 -77 -156 -166v-753c0 -89 63 -163 154 -163c93 0 157 71 157 159v757c0 89 -64 166 -155 166z" />
    <glyph glyph-name="Q" unicode="Q" horiz-adv-x="831" 
d="M260 1067v-753c0 -89 63 -163 154 -163c93 0 157 71 157 159v757c0 89 -64 166 -155 166c-92 0 -156 -77 -156 -166zM766 -213v-94c0 -19 -16 -21 -25 -21h-78c-191 0 -329 134 -334 317c-147 33 -258 153 -258 317v770c0 197 157 328 344 328c185 0 344 -131 344 -328
v-770c0 -171 -120 -291 -272 -320v-6c0 -95 72 -173 173 -173h81c11 0 25 -4 25 -20z" />
    <glyph glyph-name="a" unicode="a" horiz-adv-x="727" 
d="M490 275v215h-79c-145 0 -187 -80 -187 -174v-20c0 -113 81 -155 140 -155c54 0 126 36 126 134zM355 622h135v112c0 65 -42 160 -152 160c-87 0 -134 -33 -173 -66c-8 -6 -16 -9 -24 -9c-7 0 -14 3 -19 12l-33 72c-8 16 -9 34 17 51c61 43 128 88 259 88
c167 0 305 -121 305 -295v-480c0 -223 -206 -285 -307 -285c-142 0 -320 89 -320 311v24c0 201 135 307 312 305z" />
    <glyph glyph-name="b" unicode="b" 
d="M237 756v-488c0 -67 55 -127 128 -127c74 0 127 60 127 127v487c0 68 -54 128 -127 128c-74 0 -128 -60 -128 -127zM672 760v-496c0 -164 -137 -282 -308 -282c-169 0 -306 118 -306 282v1087c0 19 10 32 29 32h122c19 0 28 -13 28 -32v-352c47 27 98 43 148 43
c164 0 287 -118 287 -282z" />
    <glyph glyph-name="d" unicode="d" 
d="M237 755v-487c0 -67 54 -127 128 -127c73 0 127 60 127 127v488c0 67 -54 127 -127 127c-74 0 -128 -60 -128 -128zM672 1351v-1087c0 -164 -137 -282 -306 -282c-172 0 -308 118 -308 282v496c0 164 123 282 286 282c49 0 101 -16 148 -43v352c0 19 9 32 29 32h121
c20 0 30 -13 30 -32z" />
    <glyph glyph-name="e" unicode="e" horiz-adv-x="709" 
d="M368 886c-74 0 -130 -59 -130 -127v-155h254v155c0 68 -51 127 -124 127zM655 300v-36c0 -156 -119 -282 -291 -282c-169 0 -306 126 -306 282v496c0 156 137 282 306 282c172 0 293 -126 293 -282v-252c0 -19 -13 -31 -31 -31h-388v-213c0 -67 56 -126 130 -126
c75 0 124 61 124 128v36c0 16 12 24 26 24h114c12 0 23 -4 23 -26z" />
    <glyph glyph-name="f" unicode="f" horiz-adv-x="471" 
d="M298 1024h142c14 0 29 -10 29 -27v-105c0 -19 -15 -27 -29 -27h-142v-834c0 -19 -7 -31 -26 -31h-125c-18 0 -27 12 -27 31v834h-82c-14 0 -30 8 -30 27v105c0 18 17 27 30 27h82v72c0 233 113 287 277 287c11 0 22 -1 33 -1c25 -1 36 -10 36 -34v-85
c0 -24 -15 -33 -39 -33c-86 0 -129 -25 -129 -151v-55z" />
    <glyph glyph-name="g" unicode="g" horiz-adv-x="780" 
d="M492 541v214c0 68 -54 128 -127 128c-74 0 -128 -60 -128 -127v-215c0 -67 55 -127 128 -127c74 0 127 60 127 127zM320 90h144c143 0 250 -44 250 -223v-167c0 -17 -9 -27 -26 -27h-132c-15 0 -22 13 -22 26v124c0 80 -42 108 -120 108l-150 1h-13
c-120 0 -196 110 -196 206v22c0 81 34 152 71 199c-43 51 -68 120 -68 201v178c0 179 137 304 305 304c39 0 76 -7 111 -18h229c22 0 31 -10 31 -26v-87c0 -16 -8 -27 -30 -27h-66c22 -42 34 -92 34 -147v-174c0 -190 -137 -308 -308 -308c-41 0 -80 7 -116 20
c-20 -24 -27 -51 -27 -91v-3c0 -49 41 -91 99 -91z" />
    <glyph glyph-name="h" unicode="h" horiz-adv-x="769" 
d="M693 754v-723c0 -20 -13 -31 -26 -31h-127c-13 0 -27 11 -27 31v727c-3 65 -52 124 -125 124c-77 0 -129 -70 -129 -143v-706c0 -18 -10 -33 -37 -33h-114c-20 0 -29 10 -29 30v1322c0 19 10 31 29 31h122c19 0 29 -12 29 -31v-372c49 38 108 62 172 62
c151 0 262 -120 262 -288z" />
    <glyph glyph-name="i" unicode="i" horiz-adv-x="331" 
d="M75 31v965c0 15 12 28 30 28h118c19 0 33 -15 33 -28v-965c0 -19 -12 -31 -33 -31h-118c-20 0 -30 12 -30 31zM264 1261v-103c0 -29 -15 -38 -40 -38h-118c-28 0 -44 10 -44 37v105c0 24 11 41 43 41h119c29 0 40 -15 40 -42z" />
    <glyph glyph-name="j" unicode="j" horiz-adv-x="339" 
d="M259 993v-1045c0 -160 -125 -289 -334 -289c-20 0 -36 12 -36 29v99c0 20 9 33 33 33c92 0 157 58 157 156v1020c0 18 15 28 29 28h119c16 0 32 -11 32 -31zM267 1261v-103c0 -29 -14 -38 -39 -38h-120c-26 0 -42 10 -42 37v105c0 24 11 41 43 41h119c29 0 39 -15 39 -42
z" />
    <glyph glyph-name="k" unicode="k" horiz-adv-x="736" 
d="M525 1024h125c13 0 33 -10 33 -44c0 -189 -58 -353 -171 -451l198 -482c9 -24 -3 -47 -23 -47h-133c-14 0 -24 6 -32 25l-169 421c-30 -8 -61 -12 -95 -14v-400c0 -19 -11 -32 -31 -32h-120c-20 0 -28 13 -28 32v1320c0 19 9 31 28 31h120c20 0 31 -12 31 -31v-734
c182 16 235 185 235 377c0 19 13 29 32 29z" />
    <glyph glyph-name="l" unicode="l" horiz-adv-x="438" 
d="M407 132v-103c0 -12 -3 -29 -44 -29h-56c-134 0 -228 64 -228 247v1104c0 19 10 32 29 32h122c19 0 29 -13 29 -32v-1095c0 -57 26 -93 93 -93h28c25 0 27 -20 27 -31z" />
    <glyph glyph-name="m" unicode="m" horiz-adv-x="1196" 
d="M688 33c0 -16 -9 -33 -28 -33h-126c-17 0 -27 12 -27 33v699c-4 123 -83 149 -130 149h-8c-50 -2 -112 -29 -114 -150v-698c0 -14 -6 -33 -26 -33h-126c-19 0 -27 13 -27 33v701c7 246 166 308 298 308h7c85 0 168 -34 217 -119c47 84 126 119 210 119h7
c132 0 298 -62 304 -309c1 -2 1 -4 1 -6v-694c0 -16 -9 -33 -28 -33h-126c-17 0 -27 12 -27 33v702c-2 116 -73 144 -123 146h-14c-52 -2 -114 -30 -114 -152v-696z" />
    <glyph glyph-name="n" unicode="n" horiz-adv-x="765" 
d="M662 0h-126c-14 0 -27 11 -27 31v719c0 69 -46 133 -127 133c-75 0 -126 -58 -128 -129v-722c0 -20 -12 -32 -26 -32h-127c-13 0 -27 12 -27 32v722c0 154 127 288 303 288c197 0 312 -131 312 -288v-723c0 -20 -14 -31 -27 -31z" />
    <glyph glyph-name="o" unicode="o" 
d="M672 760v-496c0 -164 -137 -282 -308 -282c-169 0 -306 118 -306 282v496c0 157 137 282 305 282c172 0 309 -118 309 -282zM365 883c-74 0 -128 -60 -128 -127v-488c0 -67 55 -127 128 -127c74 0 127 60 127 127v487c0 68 -54 128 -127 128z" />
    <glyph glyph-name="p" unicode="p" horiz-adv-x="735" 
d="M243 756v-488c0 -67 54 -127 127 -127c74 0 128 60 128 128v487c0 67 -54 127 -128 127c-73 0 -127 -60 -127 -127zM677 760v-496c0 -164 -123 -282 -286 -282c-50 0 -101 16 -148 43v-321c0 -19 -9 -31 -29 -31h-121c-20 0 -30 12 -30 31v1056c0 164 137 282 307 282
c171 0 307 -118 307 -282z" />
    <glyph glyph-name="q" unicode="q" horiz-adv-x="735" 
d="M237 756v-487c0 -68 54 -128 128 -128c71 0 124 57 127 122v493c0 67 -54 127 -127 127c-74 0 -128 -60 -128 -127zM672 760v-1056c0 -19 -10 -31 -30 -31h-121c-20 0 -29 12 -29 31v321c-47 -27 -99 -43 -148 -43c-163 0 -286 118 -286 282v496c0 164 136 282 308 282
c169 0 306 -118 306 -282z" />
    <glyph glyph-name="s" unicode="s" horiz-adv-x="689" 
d="M472 739v24c0 71 -54 124 -124 124c-72 0 -120 -57 -120 -127c0 -77 46 -98 173 -175c130 -75 248 -173 248 -320c0 -162 -122 -283 -301 -283c-229 0 -308 134 -308 282v23c0 19 14 29 39 29h107c16 0 25 -11 25 -30v-27c0 -70 57 -121 130 -121c71 0 128 55 128 127
c0 81 -103 131 -232 218c-102 65 -187 144 -187 281c0 156 121 278 291 278c184 0 294 -119 294 -282v-26c0 -19 -9 -23 -32 -23h-103c-20 0 -28 10 -28 28z" />
    <glyph glyph-name="t" unicode="t" horiz-adv-x="480" 
d="M396 0h-56c-134 0 -228 64 -228 247v616h-73c-10 0 -27 12 -27 33v96c0 22 17 32 27 32h73v161c0 20 8 32 26 35l121 36c21 0 33 -9 33 -31v-201h124c13 0 25 -10 25 -31v-97c0 -18 -11 -33 -28 -33h-121v-607c0 -57 26 -93 93 -93h28c25 0 27 -20 27 -31v-103
c0 -12 -3 -29 -44 -29z" />
    <glyph glyph-name="u" unicode="u" horiz-adv-x="765" 
d="M509 269v724c0 20 13 31 27 31h126c13 0 27 -11 27 -31v-723c0 -157 -115 -288 -312 -288c-176 0 -303 134 -303 288v722c0 20 14 32 27 32h127c14 0 26 -12 26 -32v-717c0 -73 51 -134 128 -134c79 0 125 60 127 128z" />
    <glyph glyph-name="v" unicode="v" horiz-adv-x="734" 
d="M358 315l8 -74l9 74l150 683c4 19 18 26 34 26h122c25 0 32 -19 25 -45l-245 -953c-5 -20 -16 -26 -30 -26h-130c-15 0 -25 8 -29 26l-245 953c-7 30 6 45 24 45h124c18 0 30 -9 33 -28z" />
    <glyph glyph-name="w" unicode="w" horiz-adv-x="1186" 
d="M682 991v-698c0 -125 67 -150 120 -150h3c51 0 126 26 129 144v704c0 21 10 33 27 33h126c19 0 27 -18 27 -33v-694c0 -193 -111 -315 -304 -315h-7c-84 0 -163 35 -210 118c-49 -85 -132 -118 -217 -118h-7c-132 0 -292 61 -298 308v701c0 20 8 33 27 33h125
c21 0 27 -19 27 -33v-701c3 -122 68 -147 118 -147h10c48 2 121 32 124 150v698c0 21 10 33 27 33h126c19 0 27 -18 27 -33z" />
    <glyph glyph-name="y" unicode="y" horiz-adv-x="763" 
d="M506 344v642c0 26 23 38 33 38h120c14 0 27 -12 27 -32v-993c0 -198 -122 -317 -312 -317c-111 0 -206 35 -261 83c-15 12 -19 30 -9 44l36 79c5 8 12 11 19 11s15 -4 22 -10c36 -31 106 -59 166 -59c84 0 159 48 159 169v105c-50 -37 -108 -59 -166 -59
c-159 0 -269 119 -269 289v659c0 20 13 31 27 31h127c13 0 26 -11 26 -31v-663c2 -66 50 -125 128 -125c69 0 127 66 127 139z" />
    <glyph glyph-name="z" unicode="z" horiz-adv-x="639" 
d="M594 887l-342 -697l-22 -31h354c11 0 27 -11 27 -25v-106c0 -20 -16 -28 -27 -28h-532c-13 0 -19 11 -19 25l-2 77c0 6 4 18 8 27c0 1 1 3 2 4l338 705l17 25h-331c-11 0 -22 11 -22 26v107c0 20 11 28 22 28h512c12 0 21 -10 21 -26v-89c0 -5 0 -13 -4 -22z" />
    <glyph glyph-name="c" unicode="c" horiz-adv-x="702" 
d="M520 350h113c16 0 26 -6 26 -31v-55c0 -156 -124 -282 -296 -282c-168 0 -305 118 -305 282v497c0 155 137 281 305 281c172 0 296 -126 296 -282v-66c0 -27 -9 -32 -25 -32h-109c-22 0 -33 5 -33 32v61c0 67 -50 127 -125 127c-74 0 -130 -59 -130 -126v-488
c0 -67 56 -127 130 -127c75 0 125 61 125 128v49c0 25 10 32 28 32z" />
    <glyph glyph-name="Obreve" unicode="&#x14e;" horiz-adv-x="831" 
d="M416 1233c-92 0 -156 -77 -156 -166v-753c0 -89 63 -163 154 -163c93 0 157 71 157 159v757c0 89 -64 166 -155 166zM759 1076v-770c0 -197 -159 -327 -345 -327s-343 133 -343 327v770c0 197 157 328 344 328c185 0 344 -131 344 -328zM610 1694
c0 -122 -88 -189 -195 -189s-196 68 -196 189c0 21 13 33 26 33h52c13 0 25 -7 25 -27c0 -40 24 -96 95 -96s94 55 94 96c0 19 10 27 23 27h50c17 0 26 -12 26 -33z" />
    <glyph glyph-name="Ocircumflex" unicode="&#xd4;" horiz-adv-x="831" 
d="M416 1233c-92 0 -156 -77 -156 -166v-753c0 -89 63 -163 154 -163c93 0 157 71 157 159v757c0 89 -64 166 -155 166zM759 1076v-770c0 -197 -159 -327 -345 -327s-343 133 -343 327v770c0 197 157 328 344 328c185 0 344 -131 344 -328zM607 1485l-66 -1
c-4 -2 -9 -2 -13 -2c-10 0 -19 5 -28 15l-94 111l-82 -95c-9 -11 -20 -27 -34 -27c-3 0 -6 1 -10 3l-73 1c-8 2 -15 18 -1 34l148 164c3 4 10 10 21 10h60c9 0 17 -4 22 -10l151 -169c14 -15 8 -32 -1 -34z" />
    <glyph glyph-name="Odieresis" unicode="&#xd6;" horiz-adv-x="831" 
d="M416 1233c-92 0 -156 -77 -156 -166v-753c0 -89 63 -163 154 -163c93 0 157 71 157 159v757c0 89 -64 166 -155 166zM759 1076v-770c0 -197 -159 -327 -345 -327s-343 133 -343 327v770c0 197 157 328 344 328c185 0 344 -131 344 -328zM240 1546v86c0 20 11 34 31 34h82
c17 0 29 -12 29 -35v-84c0 -26 -14 -33 -29 -33h-82c-15 0 -31 9 -31 32zM589 1631v-84c0 -26 -15 -33 -29 -33h-83c-15 0 -31 9 -31 32v86c0 20 11 34 32 34h82c17 0 29 -12 29 -35z" />
    <glyph glyph-name="Ohungarumlaut" unicode="&#x150;" horiz-adv-x="831" 
d="M416 1233c-92 0 -156 -77 -156 -166v-753c0 -89 63 -163 154 -163c93 0 157 71 157 159v757c0 89 -64 166 -155 166zM759 1076v-770c0 -197 -159 -327 -345 -327s-343 133 -343 327v770c0 197 157 328 344 328c185 0 344 -131 344 -328zM301 1508h-77
c-18 0 -31 17 -20 44l76 166c9 24 17 30 35 30h98c21 0 30 -22 18 -45l-88 -166c-14 -25 -27 -29 -42 -29zM607 1748h97c21 0 30 -22 18 -45l-88 -166c-14 -25 -26 -29 -42 -29h-77c-18 0 -31 17 -20 44l76 166c9 24 17 30 36 30z" />
    <glyph glyph-name="aring" unicode="&#xe5;" horiz-adv-x="727" 
d="M490 275v215h-79c-145 0 -187 -80 -187 -174v-20c0 -113 81 -155 140 -155c54 0 126 36 126 134zM469 1262c0 40 -32 68 -67 68c-34 0 -64 -28 -64 -68s30 -67 64 -67c35 0 67 27 67 67zM355 622h135v112c0 65 -42 160 -152 160c-87 0 -134 -33 -173 -66
c-8 -6 -16 -9 -24 -9c-7 0 -14 3 -19 12l-33 72c-8 16 -9 34 17 51c61 43 128 88 259 88c167 0 305 -121 305 -295v-480c0 -223 -206 -285 -307 -285c-142 0 -320 89 -320 311v24c0 201 135 307 312 305zM257 1262c0 80 61 145 145 145s145 -65 145 -145
c0 -82 -61 -144 -145 -144s-145 62 -145 144z" />
    <glyph glyph-name="aogonek" unicode="&#x105;" horiz-adv-x="727" 
d="M490 275v215h-79c-145 0 -187 -80 -187 -174v-20c0 -113 81 -155 140 -155c54 0 126 36 126 134zM562 -272v-63c0 -13 -6 -24 -26 -24h-49c-111 0 -204 52 -204 186c0 73 28 121 60 156c-138 8 -300 98 -300 310v24c0 201 135 307 312 305h135v112c0 65 -42 160 -152 160
c-87 0 -134 -33 -173 -66c-8 -6 -16 -9 -24 -9c-7 0 -14 3 -19 12l-33 72c-8 16 -9 34 17 51c61 43 128 88 259 88c167 0 305 -121 305 -295v-480c0 -82 -28 -142 -68 -185c1 -7 -1 -14 -7 -20l-116 -102c-53 -47 -74 -67 -74 -126c0 -56 31 -84 95 -84h36
c20 0 26 -11 26 -22z" />
    <glyph glyph-name="atilde" unicode="&#xe3;" horiz-adv-x="727" 
d="M490 275v215h-79c-145 0 -187 -80 -187 -174v-20c0 -113 81 -155 140 -155c54 0 126 36 126 134zM355 622h135v112c0 65 -42 160 -152 160c-87 0 -134 -33 -173 -66c-8 -6 -16 -9 -24 -9c-7 0 -14 3 -19 12l-33 72c-8 16 -9 34 17 51c61 43 128 88 259 88
c167 0 305 -121 305 -295v-480c0 -223 -206 -285 -307 -285c-142 0 -320 89 -320 311v24c0 201 135 307 312 305zM477 1237c25 0 45 15 63 48c7 11 15 15 22 15c9 0 17 -5 24 -10l31 -25c21 -16 19 -31 5 -57c-35 -63 -78 -90 -137 -90c-42 0 -77 27 -108 48
c-21 15 -37 27 -58 27c-29 0 -47 -20 -66 -52c-5 -7 -11 -10 -18 -10c-9 0 -19 5 -27 10l-30 25c-20 16 -19 29 -4 55c33 59 80 92 133 92c38 0 70 -20 98 -39c27 -19 50 -37 72 -37z" />
    <glyph glyph-name="yacute" unicode="&#xfd;" horiz-adv-x="763" 
d="M506 344v642c0 26 23 38 33 38h120c14 0 27 -12 27 -32v-993c0 -198 -122 -317 -312 -317c-111 0 -206 35 -261 83c-15 12 -19 30 -9 44l36 79c5 8 12 11 19 11s15 -4 22 -10c36 -31 106 -59 166 -59c84 0 159 48 159 169v105c-50 -37 -108 -59 -166 -59
c-159 0 -269 119 -269 289v659c0 20 13 31 27 31h127c13 0 26 -11 26 -31v-663c2 -66 50 -125 128 -125c69 0 127 66 127 139zM465 1364h97c22 0 30 -22 18 -45l-88 -166c-14 -25 -26 -29 -42 -29h-77c-17 0 -31 18 -20 45l76 166c9 23 18 29 36 29z" />
    <glyph glyph-name="ygrave" unicode="&#x1ef3;" horiz-adv-x="763" 
d="M506 344v642c0 26 23 38 33 38h120c14 0 27 -12 27 -32v-993c0 -198 -122 -317 -312 -317c-111 0 -206 35 -261 83c-15 12 -19 30 -9 44l36 79c5 8 12 11 19 11s15 -4 22 -10c36 -31 106 -59 166 -59c84 0 159 48 159 169v105c-50 -37 -108 -59 -166 -59
c-159 0 -269 119 -269 289v659c0 20 13 31 27 31h127c13 0 26 -11 26 -31v-663c2 -66 50 -125 128 -125c69 0 127 66 127 139zM375 1341l76 -166c11 -26 -3 -44 -20 -44h-77c-16 0 -28 4 -42 29l-88 166c-12 23 -4 45 18 45h97c19 0 27 -6 36 -30z" />
    <glyph glyph-name="zacute" unicode="&#x17a;" horiz-adv-x="639" 
d="M594 887l-342 -697l-22 -31h354c11 0 27 -11 27 -25v-106c0 -20 -16 -28 -27 -28h-532c-13 0 -19 11 -19 25l-2 77c0 6 4 18 8 27c0 1 1 3 2 4l338 705l17 25h-331c-11 0 -22 11 -22 26v107c0 20 11 28 22 28h512c12 0 21 -10 21 -26v-89c0 -5 0 -13 -4 -22zM414 1385h97
c22 0 30 -22 18 -45l-88 -166c-14 -25 -26 -29 -42 -29h-77c-17 0 -31 18 -20 45l76 166c9 23 18 29 36 29z" />
    <glyph glyph-name="sacute" unicode="&#x15b;" horiz-adv-x="689" 
d="M472 739v24c0 71 -54 124 -124 124c-72 0 -120 -57 -120 -127c0 -77 46 -98 173 -175c130 -75 248 -173 248 -320c0 -162 -122 -283 -301 -283c-229 0 -308 134 -308 282v23c0 19 14 29 39 29h107c16 0 25 -11 25 -30v-27c0 -70 57 -121 130 -121c71 0 128 55 128 127
c0 81 -103 131 -232 218c-102 65 -187 144 -187 281c0 156 121 278 291 278c184 0 294 -119 294 -282v-26c0 -19 -9 -23 -32 -23h-103c-20 0 -28 10 -28 28zM406 1375h97c22 0 30 -22 18 -45l-88 -166c-14 -25 -26 -29 -42 -29h-77c-17 0 -31 18 -20 45l76 166
c9 23 18 29 36 29z" />
    <glyph glyph-name="dcaron" unicode="&#x10f;" horiz-adv-x="896" 
d="M237 755v-487c0 -67 54 -127 128 -127c73 0 127 60 127 127v488c0 67 -54 127 -127 127c-74 0 -128 -60 -128 -128zM672 1351v-1087c0 -164 -137 -282 -306 -282c-172 0 -308 118 -308 282v496c0 164 123 282 286 282c49 0 101 -16 148 -43v352c0 19 9 32 29 32h121
c20 0 30 -13 30 -32zM889 1340v-87c0 -96 -39 -141 -65 -166c-6 -6 -12 -8 -17 -8c-4 0 -9 1 -13 5l-26 21c-13 11 -4 23 2 30c19 22 31 46 31 66c0 15 1 27 -7 27h-26c-16 0 -30 10 -30 36v76c0 20 9 40 34 40h83c22 0 34 -13 34 -40z" />
    <glyph glyph-name="dcroat" unicode="&#x111;" horiz-adv-x="752" 
d="M365 883c-74 0 -128 -60 -128 -128v-487c0 -67 54 -127 128 -127c73 0 127 60 127 127v488c0 67 -54 127 -127 127zM492 999v169h-133c-8 0 -25 8 -25 30v68c0 24 16 32 25 32h133v53c0 19 9 32 29 32h121c20 0 30 -13 30 -32v-53h47c7 0 25 -8 25 -30v-71
c0 -14 -14 -29 -27 -29h-45v-904c0 -164 -137 -282 -306 -282c-172 0 -308 118 -308 282v496c0 164 123 282 286 282c49 0 101 -16 148 -43z" />
    <glyph glyph-name="hbar" unicode="&#x127;" horiz-adv-x="773" 
d="M392 882c-77 0 -129 -70 -129 -143v-706c0 -18 -10 -33 -37 -33h-113c-21 0 -30 10 -30 30v1157h-57c-7 0 -21 8 -21 28v62c0 19 11 30 22 30h56v45c0 19 10 31 30 31h121c20 0 29 -12 29 -31v-45h138c10 0 19 -8 19 -29v-63c0 -19 -11 -28 -20 -28h-137v-208
c49 39 108 63 172 63c151 0 263 -120 263 -288v-723c0 -20 -13 -31 -26 -31h-127c-14 0 -27 11 -27 31v722c0 67 -51 129 -126 129z" />
    <glyph glyph-name="hcircumflex" unicode="&#x125;" horiz-adv-x="769" 
d="M693 754v-723c0 -20 -13 -31 -26 -31h-127c-13 0 -27 11 -27 31v727c-3 65 -52 124 -125 124c-77 0 -129 -70 -129 -143v-706c0 -18 -10 -33 -37 -33h-114c-20 0 -29 10 -29 30v1322c0 19 10 31 29 31h122c19 0 29 -12 29 -31v-372c49 38 108 62 172 62
c151 0 262 -120 262 -288zM368 1469l-66 -1c-4 -2 -9 -2 -13 -2c-10 0 -19 5 -28 15l-94 111l-82 -95c-9 -11 -20 -27 -34 -27c-3 0 -6 1 -10 3l-73 1c-8 2 -15 18 -1 34l148 164c3 4 10 10 21 10h60c9 0 17 -4 22 -10l151 -169c14 -15 8 -32 -1 -34z" />
    <glyph glyph-name="uacute" unicode="&#xfa;" horiz-adv-x="765" 
d="M509 269v724c0 20 13 31 27 31h126c13 0 27 -11 27 -31v-723c0 -157 -115 -288 -312 -288c-176 0 -303 134 -303 288v722c0 20 14 32 27 32h127c14 0 26 -12 26 -32v-717c0 -73 51 -134 128 -134c79 0 125 60 127 128zM450 1359h97c22 0 30 -22 18 -45l-88 -166
c-14 -25 -26 -29 -42 -29h-77c-17 0 -31 18 -20 45l76 166c9 23 18 29 36 29z" />
    <glyph glyph-name="ugrave" unicode="&#xf9;" horiz-adv-x="765" 
d="M509 269v724c0 20 13 31 27 31h126c13 0 27 -11 27 -31v-723c0 -157 -115 -288 -312 -288c-176 0 -303 134 -303 288v722c0 20 14 32 27 32h127c14 0 26 -12 26 -32v-717c0 -73 51 -134 128 -134c79 0 125 60 127 128zM391 1371l76 -166c11 -26 -3 -44 -20 -44h-77
c-16 0 -28 4 -42 29l-88 166c-12 23 -4 45 18 45h97c19 0 27 -6 36 -30z" />
    <glyph glyph-name="uogonek" unicode="&#x173;" horiz-adv-x="758" 
d="M556 -283v-63c0 -13 -6 -24 -26 -24h-49c-111 0 -204 52 -204 186c0 81 35 132 71 167c-161 14 -274 142 -274 287v722c0 20 14 32 27 32h127c14 0 26 -12 26 -32v-717c0 -73 51 -134 128 -134c79 0 125 60 127 128v724c0 20 13 31 27 31h126c13 0 27 -11 27 -31v-723
c0 -87 -35 -165 -100 -219l-116 -102c-53 -47 -74 -67 -74 -126c0 -56 31 -84 95 -84h36c20 0 26 -11 26 -22z" />
    <glyph glyph-name="wacute" unicode="&#x1e83;" horiz-adv-x="1191" 
d="M682 991v-698c0 -125 67 -150 120 -150h3c51 0 126 26 129 144v704c0 21 10 33 27 33h126c19 0 27 -18 27 -33v-694c0 -193 -111 -315 -304 -315h-7c-84 0 -163 35 -210 118c-49 -85 -132 -118 -217 -118h-7c-132 0 -292 61 -298 308v701c0 20 8 33 27 33h125
c21 0 27 -19 27 -33v-701c3 -122 68 -147 118 -147h10c48 2 121 32 124 150v698c0 21 10 33 27 33h126c19 0 27 -18 27 -33zM647 1338h97c22 0 30 -22 18 -45l-88 -166c-14 -25 -26 -29 -42 -29h-77c-17 0 -31 18 -20 45l76 166c9 23 18 29 36 29z" />
    <glyph glyph-name="wgrave" unicode="&#x1e81;" horiz-adv-x="1191" 
d="M682 991v-698c0 -125 67 -150 120 -150h3c51 0 126 26 129 144v704c0 21 10 33 27 33h126c19 0 27 -18 27 -33v-694c0 -193 -111 -315 -304 -315h-7c-84 0 -163 35 -210 118c-49 -85 -132 -118 -217 -118h-7c-132 0 -292 61 -298 308v701c0 20 8 33 27 33h125
c21 0 27 -19 27 -33v-701c3 -122 68 -147 118 -147h10c48 2 121 32 124 150v698c0 21 10 33 27 33h126c19 0 27 -18 27 -33zM575 1328l76 -166c11 -26 -3 -44 -20 -44h-77c-16 0 -28 4 -42 29l-88 166c-12 23 -4 45 18 45h97c19 0 27 -6 36 -30z" />
    <glyph glyph-name="oacute" unicode="&#xf3;" 
d="M365 883c-74 0 -128 -60 -128 -127v-488c0 -67 55 -127 128 -127c74 0 127 60 127 127v487c0 68 -54 128 -127 128zM672 760v-496c0 -164 -137 -282 -308 -282c-169 0 -306 118 -306 282v496c0 157 137 282 305 282c172 0 309 -118 309 -282zM423 1359h97
c22 0 30 -22 18 -45l-88 -166c-14 -25 -26 -29 -42 -29h-77c-17 0 -31 18 -20 45l76 166c9 23 18 29 36 29z" />
    <glyph glyph-name="obreve" unicode="&#x14f;" 
d="M365 883c-74 0 -128 -60 -128 -127v-488c0 -67 55 -127 128 -127c74 0 127 60 127 127v487c0 68 -54 128 -127 128zM672 760v-496c0 -164 -137 -282 -308 -282c-169 0 -306 118 -306 282v496c0 157 137 282 305 282c172 0 309 -118 309 -282zM561 1331
c0 -122 -88 -189 -195 -189s-196 68 -196 189c0 21 13 33 26 33h52c13 0 25 -7 25 -27c0 -40 24 -96 95 -96s94 55 94 96c0 19 10 27 23 27h50c17 0 26 -12 26 -33z" />
    <glyph glyph-name="ocircumflex" unicode="&#xf4;" 
d="M365 883c-74 0 -128 -60 -128 -127v-488c0 -67 55 -127 128 -127c74 0 127 60 127 127v487c0 68 -54 128 -127 128zM672 760v-496c0 -164 -137 -282 -308 -282c-169 0 -306 118 -306 282v496c0 157 137 282 305 282c172 0 309 -118 309 -282zM573 1109l-66 -1
c-4 -2 -9 -2 -13 -2c-10 0 -19 5 -28 15l-94 111l-82 -95c-9 -11 -20 -27 -34 -27c-3 0 -6 1 -10 3l-73 1c-8 2 -15 18 -1 34l148 164c3 4 10 10 21 10h60c9 0 17 -4 22 -10l151 -169c14 -15 8 -32 -1 -34z" />
    <glyph glyph-name="ograve" unicode="&#xf2;" 
d="M365 883c-74 0 -128 -60 -128 -127v-488c0 -67 55 -127 128 -127c74 0 127 60 127 127v487c0 68 -54 128 -127 128zM672 760v-496c0 -164 -137 -282 -308 -282c-169 0 -306 118 -306 282v496c0 157 137 282 305 282c172 0 309 -118 309 -282zM357 1350l76 -166
c11 -26 -3 -44 -20 -44h-77c-16 0 -28 4 -42 29l-88 166c-12 23 -4 45 18 45h97c19 0 27 -6 36 -30z" />
    <glyph glyph-name="oslash" unicode="&#xf8;" 
d="M238 252l206 603c-21 17 -49 28 -79 28c-74 0 -128 -60 -128 -127v-488c0 -5 0 -11 1 -16zM365 141c74 0 127 60 127 127v471l-198 -577c20 -13 44 -21 71 -21zM499 1014l20 58c6 23 20 32 36 32h30c17 0 25 -14 18 -40l-32 -93c62 -50 101 -124 101 -211v-496
c0 -164 -137 -282 -308 -282c-44 0 -86 9 -124 23l-29 -86c-6 -21 -22 -28 -35 -28h-31c-13 0 -26 14 -19 36l41 118c-67 51 -109 128 -109 219v496c0 157 137 282 305 282c49 0 95 -10 136 -28z" />
    <glyph glyph-name="otilde" unicode="&#xf5;" 
d="M365 883c-74 0 -128 -60 -128 -127v-488c0 -67 55 -127 128 -127c74 0 127 60 127 127v487c0 68 -54 128 -127 128zM672 760v-496c0 -164 -137 -282 -308 -282c-169 0 -306 118 -306 282v496c0 157 137 282 305 282c172 0 309 -118 309 -282zM463 1242c25 0 45 15 63 48
c7 11 15 15 22 15c9 0 17 -5 24 -10l31 -25c21 -16 19 -31 5 -57c-35 -63 -78 -90 -137 -90c-42 0 -77 27 -108 48c-21 15 -37 27 -58 27c-29 0 -47 -20 -66 -52c-5 -7 -11 -10 -18 -10c-9 0 -19 5 -27 10l-30 25c-20 16 -19 29 -4 55c33 59 80 92 133 92
c38 0 70 -20 98 -39c27 -19 50 -37 72 -37z" />
    <glyph glyph-name="oe" unicode="&#x153;" horiz-adv-x="1143" 
d="M365 883c-74 0 -128 -60 -128 -127v-488c0 -67 55 -127 128 -127c74 0 127 60 127 127v487c0 68 -54 128 -127 128zM803 886c-74 0 -130 -59 -130 -127v-155h254v155c0 68 -51 127 -124 127zM1090 300v-36c0 -156 -119 -282 -291 -282c-84 0 -160 31 -215 81
c-56 -51 -134 -81 -220 -81c-169 0 -306 118 -306 282v496c0 157 137 282 305 282c87 0 165 -30 221 -81c55 50 131 81 215 81c172 0 293 -126 293 -282v-252c0 -19 -13 -31 -31 -31h-388v-213c0 -67 56 -126 130 -126c75 0 124 61 124 128v36c0 16 12 24 26 24h114
c12 0 23 -4 23 -26z" />
    <glyph glyph-name="nacute" unicode="&#x144;" horiz-adv-x="761" 
d="M662 0h-126c-14 0 -27 11 -27 31v719c0 69 -46 133 -127 133c-75 0 -126 -58 -128 -129v-722c0 -20 -12 -32 -26 -32h-127c-13 0 -27 12 -27 32v722c0 154 127 288 303 288c197 0 312 -131 312 -288v-723c0 -20 -14 -31 -27 -31zM429 1385h97c22 0 30 -22 18 -45
l-88 -166c-14 -25 -26 -29 -42 -29h-77c-17 0 -31 18 -20 45l76 166c9 23 18 29 36 29z" />
    <glyph glyph-name="ntilde" unicode="&#xf1;" horiz-adv-x="761" 
d="M662 0h-126c-14 0 -27 11 -27 31v719c0 69 -46 133 -127 133c-75 0 -126 -58 -128 -129v-722c0 -20 -12 -32 -26 -32h-127c-13 0 -27 12 -27 32v722c0 154 127 288 303 288c197 0 312 -131 312 -288v-723c0 -20 -14 -31 -27 -31zM434 1296c25 0 45 15 63 48
c7 11 15 15 22 15c9 0 17 -5 24 -10l31 -25c21 -16 19 -31 5 -57c-35 -63 -78 -90 -137 -90c-42 0 -77 27 -108 48c-21 15 -37 27 -58 27c-29 0 -47 -20 -66 -52c-5 -7 -11 -10 -18 -10c-9 0 -19 5 -27 10l-30 25c-20 16 -19 29 -4 55c33 59 80 92 133 92
c38 0 70 -20 98 -39c27 -19 50 -37 72 -37z" />
    <glyph glyph-name="gbreve" unicode="&#x11f;" horiz-adv-x="772" 
d="M492 541v214c0 68 -54 128 -127 128c-74 0 -128 -60 -128 -127v-215c0 -67 55 -127 128 -127c74 0 127 60 127 127zM320 90h144c143 0 250 -44 250 -223v-167c0 -17 -9 -27 -26 -27h-132c-15 0 -22 13 -22 26v124c0 80 -42 108 -120 108l-150 1h-13
c-120 0 -196 110 -196 206v22c0 81 34 152 71 199c-43 51 -68 120 -68 201v178c0 179 137 304 305 304c39 0 76 -7 111 -18h229c22 0 31 -10 31 -26v-87c0 -16 -8 -27 -30 -27h-66c22 -42 34 -92 34 -147v-174c0 -190 -137 -308 -308 -308c-41 0 -80 7 -116 20
c-20 -24 -27 -51 -27 -91v-3c0 -49 41 -91 99 -91zM572 1334c0 -122 -88 -189 -195 -189s-196 68 -196 189c0 21 13 33 26 33h52c13 0 25 -7 25 -27c0 -40 24 -96 95 -96s94 55 94 96c0 19 10 27 23 27h50c17 0 26 -12 26 -33z" />
    <glyph glyph-name="gcircumflex" unicode="&#x11d;" horiz-adv-x="772" 
d="M492 541v214c0 68 -54 128 -127 128c-74 0 -128 -60 -128 -127v-215c0 -67 55 -127 128 -127c74 0 127 60 127 127zM320 90h144c143 0 250 -44 250 -223v-167c0 -17 -9 -27 -26 -27h-132c-15 0 -22 13 -22 26v124c0 80 -42 108 -120 108l-150 1h-13
c-120 0 -196 110 -196 206v22c0 81 34 152 71 199c-43 51 -68 120 -68 201v178c0 179 137 304 305 304c39 0 76 -7 111 -18h229c22 0 31 -10 31 -26v-87c0 -16 -8 -27 -30 -27h-66c22 -42 34 -92 34 -147v-174c0 -190 -137 -308 -308 -308c-41 0 -80 7 -116 20
c-20 -24 -27 -51 -27 -91v-3c0 -49 41 -91 99 -91zM572 1119l-66 -1c-4 -2 -9 -2 -13 -2c-10 0 -19 5 -28 15l-94 111l-82 -95c-9 -11 -20 -27 -34 -27c-3 0 -6 1 -10 3l-73 1c-8 2 -15 18 -1 34l148 164c3 4 10 10 21 10h60c9 0 17 -4 22 -10l151 -169c14 -15 8 -32 -1 -34
z" />
    <glyph glyph-name="gcommaaccent" unicode="&#x123;" horiz-adv-x="780" 
d="M492 541v214c0 68 -54 128 -127 128c-74 0 -128 -60 -128 -127v-215c0 -67 55 -127 128 -127c74 0 127 60 127 127zM320 90h144c143 0 250 -44 250 -223v-167c0 -17 -9 -27 -26 -27h-132c-15 0 -22 13 -22 26v124c0 80 -42 108 -120 108l-150 1h-13
c-120 0 -196 110 -196 206v22c0 81 34 152 71 199c-43 51 -68 120 -68 201v178c0 179 137 304 305 304c39 0 76 -7 111 -18h229c22 0 31 -10 31 -26v-87c0 -16 -8 -27 -30 -27h-66c22 -42 34 -92 34 -147v-174c0 -190 -137 -308 -308 -308c-41 0 -80 7 -116 20
c-20 -24 -27 -51 -27 -91v-3c0 -49 41 -91 99 -91zM390 1452l27 -22c12 -10 4 -22 -3 -30c-19 -21 -31 -45 -31 -65c0 -15 -1 -27 7 -27h26c16 0 30 -11 30 -36v-77c0 -20 -8 -39 -33 -39h-83c-22 0 -35 13 -35 40v87c0 96 40 141 65 165c6 6 12 9 17 9s9 -2 13 -5z" />
    <glyph glyph-name="ccedilla" unicode="&#xe7;" horiz-adv-x="702" 
d="M339 -68l-36 55c-139 25 -245 133 -245 277v497c0 155 137 281 305 281c172 0 296 -126 296 -282v-66c0 -27 -9 -32 -25 -32h-109c-22 0 -33 5 -33 32v61c0 67 -50 127 -125 127c-74 0 -130 -59 -130 -126v-488c0 -67 56 -127 130 -127c75 0 125 61 125 128v49
c0 25 10 32 28 32h113c16 0 26 -6 26 -31v-55c0 -134 -91 -246 -226 -275l7 -11c32 -55 53 -104 53 -154c0 -121 -85 -168 -196 -168h-65c-20 0 -26 13 -26 26v63c0 11 6 20 26 20h49c67 0 90 25 90 74c0 29 -12 59 -32 93z" />
    <glyph glyph-name="ccircumflex" unicode="&#x109;" horiz-adv-x="702" 
d="M520 350h113c16 0 26 -6 26 -31v-55c0 -156 -124 -282 -296 -282c-168 0 -305 118 -305 282v497c0 155 137 281 305 281c172 0 296 -126 296 -282v-66c0 -27 -9 -32 -25 -32h-109c-22 0 -33 5 -33 32v61c0 67 -50 127 -125 127c-74 0 -130 -59 -130 -126v-488
c0 -67 56 -127 130 -127c75 0 125 61 125 128v49c0 25 10 32 28 32zM557 1159l-66 -1c-4 -2 -9 -2 -13 -2c-10 0 -19 5 -28 15l-94 111l-82 -95c-9 -11 -20 -27 -34 -27c-3 0 -6 1 -10 3l-73 1c-8 2 -15 18 -1 34l148 164c3 4 10 10 21 10h60c9 0 17 -4 22 -10l151 -169
c14 -15 8 -32 -1 -34z" />
    <glyph glyph-name="cdotaccent" unicode="&#x10b;" horiz-adv-x="702" 
d="M520 350h113c16 0 26 -6 26 -31v-55c0 -156 -124 -282 -296 -282c-168 0 -305 118 -305 282v497c0 155 137 281 305 281c172 0 296 -126 296 -282v-66c0 -27 -9 -32 -25 -32h-109c-22 0 -33 5 -33 32v61c0 67 -50 127 -125 127c-74 0 -130 -59 -130 -126v-488
c0 -67 56 -127 130 -127c75 0 125 61 125 128v49c0 25 10 32 28 32zM442 1274v-93c0 -28 -15 -37 -32 -37h-96c-16 0 -34 11 -34 37v94c0 22 13 38 34 38h96c19 0 32 -14 32 -39z" />
    <glyph glyph-name="ibreve" unicode="&#x12d;" horiz-adv-x="331" 
d="M256 996v-965c0 -19 -12 -31 -33 -31h-118c-20 0 -30 12 -30 31v965c0 15 12 28 30 28h118c19 0 33 -15 33 -28zM360 1310c0 -122 -88 -189 -195 -189s-196 68 -196 189c0 21 13 33 26 33h52c13 0 25 -7 25 -27c0 -40 24 -96 95 -96s94 55 94 96c0 19 10 27 23 27h50
c17 0 26 -12 26 -33z" />
    <glyph glyph-name="lslash" unicode="&#x142;" horiz-adv-x="453" 
d="M379 0h-56c-134 0 -229 64 -229 247v299l-50 -32c-2 -2 -7 -3 -12 -3c-9 0 -19 4 -20 17v110c-3 19 2 32 12 39l70 45v629c0 19 11 32 30 32h121c20 0 30 -13 30 -32v-513l66 42c3 2 7 3 11 3c9 0 19 -5 20 -18l1 -113c-1 -18 -2 -31 -12 -36l-86 -55v-405
c0 -57 26 -93 93 -93h27c26 0 28 -20 28 -31v-103c0 -12 -3 -29 -44 -29z" />
    <glyph glyph-name="kcommaaccent" unicode="&#x137;" horiz-adv-x="736" 
d="M525 1024h125c13 0 33 -10 33 -44c0 -189 -58 -353 -171 -451l198 -482c9 -24 -3 -47 -23 -47h-133c-14 0 -24 6 -32 25l-169 421c-30 -8 -61 -12 -95 -14v-400c0 -19 -11 -32 -31 -32h-120c-20 0 -28 13 -28 32v1320c0 19 9 31 28 31h120c20 0 31 -12 31 -31v-734
c182 16 235 185 235 377c0 19 13 29 32 29zM460 -130v-87c0 -96 -39 -141 -65 -166c-6 -6 -12 -8 -17 -8c-4 0 -9 1 -13 5l-26 21c-13 11 -4 23 2 30c19 22 31 46 31 66c0 15 1 27 -7 27h-26c-16 0 -30 10 -30 36v76c0 20 9 40 34 40h83c22 0 34 -13 34 -40z" />
    <glyph glyph-name="kgreenlandic" unicode="&#x138;" horiz-adv-x="736" 
d="M525 1024h125c13 0 33 -10 33 -44c0 -189 -58 -349 -170 -445l197 -488c9 -24 -3 -47 -23 -47h-133c-14 0 -24 6 -32 25l-169 429c-30 -7 -62 -11 -95 -13v-409c0 -19 -11 -32 -31 -32h-120c-20 0 -28 13 -28 32v960c0 20 9 32 28 32h120c20 0 31 -12 31 -32v-347
c182 13 235 158 235 350c0 19 13 29 32 29z" />
    <glyph glyph-name="jcircumflex" unicode="&#x135;" horiz-adv-x="338" 
d="M78 -24v1020c0 18 16 28 30 28h118c16 0 32 -11 32 -31v-1045c0 -160 -125 -289 -334 -289c-19 0 -36 12 -36 29v99c0 20 10 33 33 33c93 0 157 58 157 156zM371 1128l-66 -1c-4 -2 -9 -2 -13 -2c-10 0 -19 5 -28 15l-94 111l-82 -95c-9 -11 -20 -27 -34 -27
c-3 0 -6 1 -10 3l-73 1c-8 2 -15 18 -1 34l148 164c3 4 10 10 21 10h60c9 0 17 -4 22 -10l151 -169c14 -15 8 -32 -1 -34z" />
    <glyph glyph-name="itilde" unicode="&#x129;" horiz-adv-x="331" 
d="M256 996v-965c0 -19 -12 -31 -33 -31h-118c-20 0 -30 12 -30 31v965c0 15 12 28 30 28h118c19 0 33 -15 33 -28zM231 1259c25 0 45 15 63 48c7 11 15 15 22 15c9 0 17 -5 24 -10l31 -25c21 -16 19 -31 5 -57c-35 -63 -78 -90 -137 -90c-42 0 -77 27 -108 48
c-21 15 -37 27 -58 27c-29 0 -47 -20 -66 -52c-5 -7 -11 -10 -18 -10c-9 0 -19 5 -27 10l-30 25c-20 16 -19 29 -4 55c33 59 80 92 133 92c38 0 70 -20 98 -39c27 -19 50 -37 72 -37z" />
    <glyph glyph-name="iogonek" unicode="&#x12f;" horiz-adv-x="331" 
d="M205 -327v-63c0 -13 -6 -24 -26 -24h-49c-111 0 -204 52 -204 186c0 96 49 149 90 185l64 54c-3 5 -5 12 -5 20v965c0 15 12 28 30 28h118c19 0 33 -15 33 -28v-965c0 -17 -9 -28 -25 -30l-109 -96c-53 -47 -74 -67 -74 -126c0 -56 31 -84 95 -84h36c20 0 26 -11 26 -22z
M264 1261v-103c0 -29 -15 -38 -40 -38h-118c-28 0 -44 10 -44 37v105c0 24 11 41 43 41h119c29 0 40 -15 40 -42z" />
    <glyph glyph-name="ae" unicode="&#xe6;" horiz-adv-x="1134" 
d="M492 275v215h-79c-146 0 -176 -80 -176 -174v-37c0 -96 70 -138 129 -138c53 0 126 36 126 134zM674 759v-155h254v155c0 68 -51 127 -124 127c-75 0 -130 -59 -130 -127zM357 622h135v112c0 65 -42 160 -153 160c-87 0 -133 -33 -172 -66c-8 -6 -16 -9 -24 -9
s-15 3 -19 12l-33 72c-9 16 -9 34 16 51c62 43 128 88 260 88c83 0 160 -31 215 -83c55 51 132 83 217 83c172 0 294 -126 294 -282v-252c0 -19 -14 -31 -31 -31h-388v-213c0 -67 55 -126 130 -126c74 0 124 61 124 128v36c0 16 12 24 25 24h114c13 0 24 -4 24 -26v-36
c0 -156 -120 -282 -292 -282c-84 0 -160 31 -215 81c-68 -60 -161 -81 -219 -81c-142 0 -308 89 -308 294v41c0 201 123 307 300 305z" />
    <glyph glyph-name="Gbreve" unicode="&#x11e;" horiz-adv-x="818" 
d="M571 311v248h-106c-18 0 -29 9 -29 31v97c0 22 11 31 29 31h251c22 0 33 -14 33 -36v-376c0 -197 -149 -327 -335 -327c-180 0 -343 124 -343 327v770c0 197 157 328 344 328c237 0 328 -192 328 -332v-79c0 -29 -9 -39 -28 -39h-121c-22 0 -28 9 -28 36v78
c0 87 -61 165 -152 165c-90 0 -154 -73 -154 -163v-756c0 -97 72 -163 154 -163c89 0 157 72 157 160zM606 1693c0 -122 -88 -189 -195 -189s-196 68 -196 189c0 21 13 33 26 33h52c13 0 25 -7 25 -27c0 -40 24 -96 95 -96s94 55 94 96c0 19 10 27 23 27h50
c17 0 26 -12 26 -33z" />
    <glyph glyph-name="Gcircumflex" unicode="&#x11c;" horiz-adv-x="818" 
d="M571 311v248h-106c-18 0 -29 9 -29 31v97c0 22 11 31 29 31h251c22 0 33 -14 33 -36v-376c0 -197 -149 -327 -335 -327c-180 0 -343 124 -343 327v770c0 197 157 328 344 328c237 0 328 -192 328 -332v-79c0 -29 -9 -39 -28 -39h-121c-22 0 -28 9 -28 36v78
c0 87 -61 165 -152 165c-90 0 -154 -73 -154 -163v-756c0 -97 72 -163 154 -163c89 0 157 72 157 160zM610 1531l-66 -1c-4 -2 -9 -2 -13 -2c-10 0 -19 5 -28 15l-94 111l-82 -95c-9 -11 -20 -27 -34 -27c-3 0 -6 1 -10 3l-73 1c-8 2 -15 18 -1 34l148 164c3 4 10 10 21 10
h60c9 0 17 -4 22 -10l151 -169c14 -15 8 -32 -1 -34z" />
    <glyph glyph-name="Gdotaccent" unicode="&#x120;" horiz-adv-x="818" 
d="M571 311v248h-106c-18 0 -29 9 -29 31v97c0 22 11 31 29 31h251c22 0 33 -14 33 -36v-376c0 -197 -149 -327 -335 -327c-180 0 -343 124 -343 327v770c0 197 157 328 344 328c237 0 328 -192 328 -332v-79c0 -29 -9 -39 -28 -39h-121c-22 0 -28 9 -28 36v78
c0 87 -61 165 -152 165c-90 0 -154 -73 -154 -163v-756c0 -97 72 -163 154 -163c89 0 157 72 157 160zM498 1657v-93c0 -28 -15 -37 -32 -37h-96c-16 0 -34 11 -34 37v94c0 22 13 38 34 38h96c19 0 32 -14 32 -39z" />
    <glyph glyph-name="Otilde" unicode="&#xd5;" horiz-adv-x="831" 
d="M416 1233c-92 0 -156 -77 -156 -166v-753c0 -89 63 -163 154 -163c93 0 157 71 157 159v757c0 89 -64 166 -155 166zM759 1076v-770c0 -197 -159 -327 -345 -327s-343 133 -343 327v770c0 197 157 328 344 328c185 0 344 -131 344 -328zM509 1619c25 0 45 15 63 48
c7 11 15 15 22 15c9 0 17 -5 24 -10l31 -25c21 -16 19 -31 5 -57c-35 -63 -78 -90 -137 -90c-42 0 -77 27 -108 48c-21 15 -37 27 -58 27c-29 0 -47 -20 -66 -52c-5 -7 -11 -10 -18 -10c-9 0 -19 5 -27 10l-30 25c-20 16 -19 29 -4 55c33 59 80 92 133 92
c38 0 70 -20 98 -39c27 -19 50 -37 72 -37z" />
    <glyph glyph-name="OE" unicode="&#x152;" horiz-adv-x="1205" 
d="M570 291v795c-8 81 -70 147 -154 147c-92 0 -156 -77 -156 -166v-753c0 -89 63 -163 154 -163c86 0 148 61 156 140zM759 620v-449h386c14 0 29 -8 29 -28v-112c0 -22 -15 -31 -29 -31h-543c-13 0 -22 5 -27 14c-49 -23 -104 -35 -161 -35c-186 0 -343 133 -343 327v770
c0 197 157 328 344 328c57 0 112 -13 160 -36c6 9 15 15 27 15h542c14 0 27 -10 27 -32v-110c0 -22 -13 -31 -27 -31h-385v-419h310c14 0 30 -8 30 -30v-110c0 -22 -15 -31 -30 -31h-310z" />
    <glyph glyph-name="Oslashacute" unicode="&#x1fe;" horiz-adv-x="830" 
d="M260 1067v-746l259 871c-27 25 -62 41 -103 41c-92 0 -156 -77 -156 -166zM571 310v737l-255 -861c26 -22 59 -35 98 -35c93 0 157 71 157 159zM572 1370l24 80c7 22 19 31 35 31h38c17 0 27 -14 19 -39l-37 -124c66 -57 108 -141 108 -242v-770
c0 -197 -159 -327 -345 -327c-54 0 -105 11 -150 31l-25 -85c-6 -21 -20 -29 -33 -29h-39c-14 0 -29 15 -23 36l38 129c-68 58 -111 143 -111 245v770c0 197 157 328 344 328c56 0 109 -12 157 -34zM464 1764h97c22 0 30 -22 18 -45l-88 -166c-14 -25 -26 -29 -42 -29h-77
c-17 0 -31 18 -20 45l76 166c9 23 18 29 36 29z" />
    <glyph glyph-name="Ncommaaccent" unicode="&#x145;" horiz-adv-x="865" 
d="M746 0h-130c-21 0 -29 18 -29 38v1030c0 88 -65 164 -156 164c-90 0 -155 -76 -155 -164v-1032c0 -20 -7 -36 -28 -36h-136c-14 0 -24 15 -24 36v1041c0 181 157 327 343 327s344 -146 344 -327v-1039c0 -19 -8 -38 -29 -38zM533 -154v-87c0 -96 -39 -141 -65 -166
c-6 -6 -12 -8 -17 -8c-4 0 -9 1 -13 5l-26 21c-13 11 -4 23 2 30c19 22 31 46 31 66c0 15 1 27 -7 27h-26c-16 0 -30 10 -30 36v76c0 20 9 40 34 40h83c22 0 34 -13 34 -40z" />
    <glyph glyph-name="Hbar" unicode="&#x126;" horiz-adv-x="899" 
d="M289 1111v-320h321v320h-321zM610 35v584h-321v-583c0 -22 -9 -36 -30 -36h-129c-21 0 -30 14 -30 36v1311c0 21 10 36 30 36h129c20 0 30 -15 30 -36v-118h321v118c0 19 8 36 30 36h128c17 0 30 -11 30 -35v-1313c0 -22 -9 -35 -31 -35h-127c-20 0 -30 13 -30 35z" />
    <glyph glyph-name="AE" unicode="&#xc6;" horiz-adv-x="1226" 
d="M431 1232c-90 0 -155 -76 -155 -164v-531h311v537c-3 85 -68 158 -156 158zM1160 1210h-385v-419h310c15 0 30 -8 30 -31v-108c0 -22 -14 -32 -30 -32h-310v-449h387c13 0 28 -8 28 -29v-111c0 -22 -15 -31 -28 -31h-544c-21 0 -31 14 -31 36v348h-311v-348
c0 -20 -7 -36 -28 -36h-133c-15 0 -27 15 -27 36v1041c0 181 157 327 343 327c57 0 111 -14 159 -38c5 10 14 17 28 17h542c15 0 27 -11 27 -33v-108c0 -22 -12 -32 -27 -32z" />
    <glyph glyph-name="Iogonek" unicode="&#x12e;" horiz-adv-x="389" 
d="M240 -325v-63c0 -13 -6 -24 -26 -24h-49c-111 0 -204 52 -204 186c0 96 49 149 90 185l58 49c-6 6 -9 16 -9 28v1311c0 21 10 36 30 36h129c20 0 30 -15 30 -36v-1311c0 -21 -8 -34 -26 -36l-106 -93c-53 -47 -74 -67 -74 -126c0 -56 31 -84 95 -84h36
c20 0 26 -11 26 -22z" />
    <glyph glyph-name="Oslash" unicode="&#xd8;" horiz-adv-x="831" 
d="M260 1067v-746l259 871c-27 25 -62 41 -103 41c-92 0 -156 -77 -156 -166zM571 310v737l-255 -861c26 -22 59 -35 98 -35c93 0 157 71 157 159zM572 1370l24 80c7 22 19 31 35 31h38c17 0 27 -14 19 -39l-37 -124c66 -57 108 -141 108 -242v-770
c0 -197 -159 -327 -345 -327c-54 0 -105 11 -150 31l-25 -85c-6 -21 -20 -29 -33 -29h-39c-14 0 -29 15 -23 36l38 129c-68 58 -111 143 -111 245v770c0 197 157 328 344 328c56 0 109 -12 157 -34z" />
    <glyph glyph-name="exclam" unicode="!" horiz-adv-x="374" 
d="M106 373v978c0 22 10 36 31 36h100c21 0 32 -14 32 -36v-978c0 -21 -10 -35 -32 -35h-100c-22 0 -31 14 -31 35zM283 151v-117c0 -24 -17 -34 -29 -34h-136c-11 0 -28 8 -28 33v119c0 24 13 35 29 35h133c22 0 31 -17 31 -36z" />
    <glyph glyph-name="quotedbl" unicode="&#x22;" horiz-adv-x="503" 
d="M418 1348v-317c0 -22 -13 -31 -25 -31h-70c-15 0 -26 12 -26 33v315c0 22 13 34 27 34h68c18 0 26 -14 26 -34zM86 1033v315c0 22 14 34 28 34h67c18 0 25 -14 25 -34v-317c0 -22 -13 -31 -25 -31h-67c-16 0 -28 15 -28 33z" />
    <glyph glyph-name="numbersign" unicode="#" horiz-adv-x="759" 
d="M477 535l16 329h-217l-17 -329h218zM453 38l17 353h-218l-17 -357c-1 -22 -9 -34 -27 -34h-85c-18 0 -25 16 -24 38l17 353h-78c-8 0 -24 7 -24 29v82c0 23 13 33 26 33h83l16 329h-73c-7 0 -24 6 -24 28v82c0 23 13 34 26 34h78l17 341c1 22 8 34 27 34h87
c16 0 24 -16 23 -38l-17 -337h217l17 340c1 23 8 35 26 35h86c17 0 26 -16 25 -38l-17 -337h83c12 0 22 -10 22 -30v-86c0 -17 -12 -28 -23 -28h-89l-17 -329h79c12 0 23 -9 23 -30v-85c0 -18 -14 -29 -24 -29h-85l-17 -357c-1 -22 -9 -34 -27 -34h-84c-20 0 -26 16 -25 38z
" />
    <glyph glyph-name="dollar" unicode="$" horiz-adv-x="773" 
d="M336 1549h96c10 0 16 -9 16 -29v-122c159 -29 263 -162 263 -334v-61c0 -26 -7 -33 -35 -33h-109c-23 0 -28 9 -28 33v60c0 87 -56 169 -155 169c-63 0 -158 -41 -158 -178c0 -124 88 -186 173 -254c191 -157 332 -245 332 -494c0 -157 -116 -298 -289 -323v-130
c0 -19 -5 -29 -16 -29h-96c-11 0 -18 10 -18 29v133c-159 30 -262 160 -262 335v51c0 27 5 40 30 40h113c23 0 30 -11 30 -36v-47c0 -133 100 -178 165 -178c89 0 168 68 168 164c0 128 -55 179 -210 308c-178 144 -296 221 -296 435c0 226 156 316 270 339v123
c0 20 6 29 16 29z" />
    <glyph glyph-name="ampersand" unicode="&#x26;" horiz-adv-x="810" 
d="M362 146c80 0 128 53 128 149v349h-159c-87 -1 -116 -73 -116 -140v-201c0 -114 68 -157 147 -157zM516 912h117c21 0 27 -18 27 -27v-101h88c21 0 31 -10 31 -32v-77c0 -23 -10 -31 -31 -31h-88v-349c0 -163 -91 -316 -299 -316c-206 0 -321 126 -321 316v202
c0 125 59 192 136 225c-62 41 -110 116 -110 221v149c0 205 149 302 294 302c158 0 301 -72 301 -321c0 -28 -9 -42 -25 -42l-122 -1c-16 0 -24 18 -24 38c0 112 -49 155 -121 155c-66 0 -132 -40 -132 -143v-159c0 -66 28 -137 94 -137h159v101c0 10 6 27 26 27z" />
    <glyph glyph-name="quotesingle" unicode="'" horiz-adv-x="291" 
d="M206 1347v-315c0 -22 -11 -32 -23 -32h-76c-16 0 -22 16 -22 34v313c0 22 14 35 28 35h69c17 0 24 -15 24 -35z" />
    <glyph glyph-name="parenleft.001" horiz-adv-x="527" 
d="M465 1357c-116 -223 -177 -516 -178 -824c1 -310 61 -604 177 -826c7 -13 -1 -40 -23 -40h-118c-15 0 -29 8 -36 23c-107 226 -173 537 -173 843c0 305 66 614 172 840c7 15 23 25 39 25h118c21 0 29 -28 22 -41z" />
    <glyph glyph-name="parenright.001" horiz-adv-x="527" 
d="M90 -333c-23 0 -31 27 -24 40c117 222 176 515 178 825c-2 309 -62 602 -178 825c-8 13 1 41 22 41h118c15 0 31 -10 38 -25c107 -226 172 -535 172 -840c0 -306 -65 -617 -173 -843c-7 -15 -20 -23 -36 -23h-117z" />
    <glyph glyph-name="asterisk" unicode="*" horiz-adv-x="582" 
d="M292 1230l54 154c3 7 13 15 24 15c4 0 9 -2 13 -4l64 -39c13 -7 15 -27 8 -38l-99 -116l147 27c16 0 28 -10 28 -27v-76c0 -17 -11 -27 -27 -27l-155 32l102 -123c8 -11 5 -28 -11 -38l-63 -37c-5 -3 -10 -4 -14 -4c-13 0 -21 10 -22 14l-49 148l-51 -148
c-4 -9 -13 -14 -22 -14c-5 0 -10 1 -15 4l-64 37c-22 13 -12 33 -9 38l105 124l-160 -32c-17 0 -27 11 -27 28v77c0 15 16 26 28 25l153 -29l-101 119c-7 10 -8 29 10 38l64 38c4 2 8 3 11 3c11 0 20 -6 24 -15z" />
    <glyph glyph-name="plus" unicode="+" horiz-adv-x="580" 
d="M504 543h-141v-145c0 -13 -11 -26 -28 -26h-90c-15 0 -27 14 -27 26v145h-144c-8 0 -25 8 -25 27v97c0 14 15 24 26 24h143v144c0 9 9 25 28 25h92c14 0 25 -13 25 -26v-143h142c14 0 25 -10 25 -28v-93c0 -15 -13 -27 -26 -27z" />
    <glyph glyph-name="comma" unicode="," horiz-adv-x="350" 
d="M272 145v-101c0 -116 -46 -166 -76 -192c-6 -6 -12 -10 -19 -10c-5 0 -10 2 -16 7l-30 25c-15 14 -4 28 3 35c21 24 36 53 36 73c0 11 -2 18 -12 18h-46c-17 0 -33 11 -33 38v106c0 26 12 43 37 43h119c26 0 37 -14 37 -42z" />
    <glyph glyph-name="period" unicode="." horiz-adv-x="350" 
d="M272 151v-117c0 -24 -16 -34 -28 -34h-136c-11 0 -29 8 -29 33v119c0 24 14 35 30 35h133c22 0 30 -17 30 -36z" />
    <glyph glyph-name="slash" unicode="/" horiz-adv-x="592" 
d="M437 1382h117c16 0 24 -14 17 -39l-384 -1315c-7 -20 -22 -28 -35 -28h-118c-13 0 -26 14 -20 36l386 1315c6 22 20 31 37 31z" />
    <glyph glyph-name="zero" unicode="0" horiz-adv-x="807" 
d="M740 1076v-770c0 -181 -151 -327 -337 -327c-187 0 -335 146 -335 327v770c0 181 148 328 335 328c186 0 337 -147 337 -328zM404 1236c-90 0 -161 -71 -161 -160v-770c0 -88 72 -160 160 -160c89 0 161 72 161 160v770c0 89 -71 160 -160 160z" />
    <glyph glyph-name="one" unicode="1" horiz-adv-x="456" 
d="M221 1380h103c17 0 30 -12 30 -33v-1313c0 -21 -8 -34 -29 -34h-118c-23 0 -28 16 -28 34v1176l-102 -51c-4 -2 -8 -3 -11 -3c-12 0 -19 12 -23 21l-1 93c-5 16 3 36 16 42l110 54c26 13 40 14 53 14z" />
    <glyph glyph-name="two" unicode="2" horiz-adv-x="781" 
d="M544 951v122c0 94 -67 163 -158 163s-163 -67 -163 -176v-22c0 -25 -8 -34 -27 -34h-126c-19 0 -22 21 -22 39v22c0 199 151 339 335 339c218 0 336 -147 336 -328v-126c0 -112 -40 -215 -105 -305l-356 -477h448c17 0 35 -9 35 -33v-101c0 -23 -16 -34 -33 -34h-624
c-14 0 -32 8 -32 31v102c0 20 4 30 9 37l402 552c54 75 81 148 81 229z" />
    <glyph glyph-name="seven" unicode="7" horiz-adv-x="682" 
d="M52 1383h568c27 0 37 -16 37 -31v-93c0 -12 -1 -23 -5 -36l-398 -1199c-4 -13 -15 -24 -31 -24h-129c-20 0 -23 21 -19 37l395 1178h-418c-13 0 -28 10 -28 33v102c0 20 15 33 28 33z" />
    <glyph glyph-name="eight" unicode="8" horiz-adv-x="816" 
d="M406 146c60 0 166 31 166 175v133c0 139 -105 182 -166 182c-63 0 -166 -43 -166 -182v-133c0 -144 106 -175 166 -175zM562 985v77c0 143 -89 174 -157 174c-67 0 -156 -31 -156 -170v-71c0 -133 70 -187 156 -187c85 0 157 48 157 177zM410 1403
c187 0 327 -137 327 -340v-42c0 -178 -76 -273 -146 -301c87 -33 155 -137 155 -276v-125c0 -213 -144 -340 -344 -340c-186 0 -336 127 -336 340v125c0 139 75 243 163 276c-71 28 -154 125 -154 306v39c0 212 151 338 335 338z" />
    <glyph glyph-name="nine" unicode="9" horiz-adv-x="808" 
d="M562 855v221c0 89 -71 160 -159 160c-89 0 -161 -72 -161 -159v-221c0 -89 59 -160 160 -160c90 0 160 71 160 159zM738 1076v-759c0 -212 -144 -338 -333 -338c-175 0 -333 122 -333 338v38c0 28 4 45 33 45h112c26 0 31 -13 31 -44v-27c0 -135 91 -184 156 -184
c61 0 160 28 160 190v295c-31 -51 -100 -98 -189 -98c-200 0 -309 127 -309 324v221c0 192 163 327 337 327s335 -137 335 -328z" />
    <glyph glyph-name="colon" unicode=":" horiz-adv-x="350" 
d="M272 991v-117c0 -24 -16 -34 -28 -34h-136c-11 0 -29 8 -29 33v119c0 24 14 35 30 35h133c22 0 30 -17 30 -36zM272 145v-117c0 -24 -16 -34 -28 -34h-136c-11 0 -29 8 -29 33v119c0 24 14 35 30 35h133c22 0 30 -17 30 -36z" />
    <glyph glyph-name="less" unicode="&#x3c;" horiz-adv-x="421" 
d="M185 556l196 -275c8 -12 5 -25 -2 -31l-79 -62c-4 -3 -8 -4 -11 -4c-6 0 -12 4 -15 9l-242 347c-5 6 -7 10 -7 17s2 11 7 18l241 347c4 5 9 9 15 9c4 0 7 -1 11 -4l80 -64c9 -8 8 -23 2 -31z" />
    <glyph glyph-name="equal" unicode="=" horiz-adv-x="580" 
d="M51 422v81c0 17 15 27 27 27h425c12 0 26 -10 26 -27v-82c0 -15 -15 -27 -27 -27h-425c-9 0 -26 8 -26 28zM529 811v-81c0 -15 -15 -27 -27 -27h-425c-9 0 -26 8 -26 27v81c0 17 15 28 27 28h425c12 0 26 -10 26 -28z" />
    <glyph glyph-name="greater" unicode="&#x3e;" horiz-adv-x="514" 
d="M481 557c0 -7 -2 -11 -6 -17l-243 -347c-4 -5 -9 -10 -16 -10c-3 0 -6 1 -10 4l-78 63c-9 6 -12 19 -3 31l195 275l-196 276c-6 8 -7 23 2 30l80 65c3 3 7 4 10 4c7 0 13 -4 17 -9l241 -348c4 -6 7 -10 7 -17z" />
    <glyph glyph-name="question" unicode="?" horiz-adv-x="780" 
d="M390 1403c180 0 324 -140 324 -314v-58c0 -179 -135 -281 -192 -369c-32 -46 -64 -94 -64 -193v-106c0 -27 -5 -42 -31 -42l-99 -1c-24 0 -25 19 -25 43v153c0 117 51 201 109 260c53 61 127 136 127 260v53c0 80 -66 146 -148 146c-81 0 -147 -65 -147 -145v-85
c0 -29 -11 -36 -31 -36h-118c-15 0 -26 11 -26 30v91c0 172 144 313 321 313zM314 187h133c22 0 31 -17 31 -36v-117c0 -24 -18 -34 -29 -34h-135c-13 0 -29 8 -29 33v119c0 24 13 35 29 35z" />
    <glyph glyph-name="percent" unicode="%" horiz-adv-x="1153" 
d="M865 552v-392c0 -39 33 -71 73 -71c39 0 71 32 71 71v392c0 41 -32 72 -71 72c-41 0 -73 -31 -73 -72zM136 1206v-393c0 -39 33 -71 73 -71c39 0 72 32 72 71v393c0 40 -33 71 -72 71c-41 0 -73 -31 -73 -71zM755 160v392c0 98 81 177 182 177s183 -79 183 -177v-392
c0 -97 -82 -176 -182 -176c-102 0 -183 79 -183 176zM813 1336l-385 -1317c-7 -23 -19 -27 -40 -27l-54 14c-16 3 -27 20 -21 42l387 1319c5 18 17 31 37 31l52 -13c15 -2 32 -24 24 -49zM26 813v393c0 97 81 177 183 177c101 0 182 -79 182 -177v-393
c0 -97 -81 -176 -182 -176c-102 0 -183 79 -183 176z" />
    <glyph glyph-name="section" unicode="&#xa7;" horiz-adv-x="610" 
d="M399 646v71c-1 58 -39 94 -82 117c-37 0 -94 -40 -94 -114v-69c0 -47 35 -107 97 -128c33 6 80 56 79 123zM327 1393c120 0 199 -50 249 -139c11 -19 10 -33 -2 -43l-61 -42c-4 -3 -9 -5 -15 -5c-8 0 -16 4 -21 13c-45 75 -74 91 -141 91c-69 0 -112 -58 -112 -118v-58
c0 -65 54 -105 121 -137c133 -66 186 -139 189 -240l1 -77c1 -77 -45 -148 -89 -180c41 -35 99 -86 99 -184v-89c0 -141 -115 -237 -251 -237c-98 0 -195 36 -254 149c-9 17 -3 31 3 37l63 47c3 1 8 4 14 4c7 0 15 -4 22 -18c32 -71 88 -94 144 -94c61 0 110 41 110 127v79
c0 61 -62 105 -116 129c-120 52 -196 119 -196 230v78c0 85 41 154 95 186c-48 41 -104 105 -104 195v64c0 134 117 232 252 232z" />
    <glyph glyph-name="paragraph" unicode="&#xb6;" horiz-adv-x="860" 
d="M330 1383h450c21 0 36 -12 36 -30v-59c0 -25 -16 -37 -37 -37h-78v-1226c0 -23 -10 -31 -23 -31h-76c-10 0 -23 5 -23 30v1227h-114v-1227c0 -22 -11 -30 -22 -30h-79c-8 0 -20 7 -20 30v536c-155 0 -304 66 -304 409c0 313 143 408 290 408z" />
    <glyph glyph-name="eogonek" unicode="&#x119;" horiz-adv-x="709" 
d="M368 886c-74 0 -130 -59 -130 -127v-155h254v155c0 68 -51 127 -124 127zM531 -278v-63c0 -13 -6 -24 -26 -24h-49c-111 0 -204 52 -204 186c0 79 33 129 68 164c-148 20 -262 137 -262 279v496c0 156 137 282 306 282c172 0 293 -126 293 -282v-252
c0 -19 -13 -31 -31 -31h-388v-213c0 -67 56 -126 130 -126c75 0 124 61 124 128v36c0 16 12 24 26 24h114c12 0 23 -4 23 -26v-36c0 -91 -41 -172 -109 -224l-98 -86c-53 -47 -74 -67 -74 -126c0 -56 31 -84 95 -84h36c20 0 26 -11 26 -22z" />
    <glyph glyph-name="emacron" unicode="&#x113;" horiz-adv-x="709" 
d="M368 886c-74 0 -130 -59 -130 -127v-155h254v155c0 68 -51 127 -124 127zM655 300v-36c0 -156 -119 -282 -291 -282c-169 0 -306 126 -306 282v496c0 156 137 282 306 282c172 0 293 -126 293 -282v-252c0 -19 -13 -31 -31 -31h-388v-213c0 -67 56 -126 130 -126
c75 0 124 61 124 128v36c0 16 12 24 26 24h114c12 0 23 -4 23 -26zM566 1247v-62c0 -19 -16 -26 -30 -26h-355c-7 0 -26 4 -26 26v61c0 17 16 26 26 26h356c14 0 29 -7 29 -25z" />
    <glyph glyph-name="Ldot" unicode="&#x13f;" horiz-adv-x="701" 
d="M644 0h-512c-22 0 -32 14 -32 36v1311c0 21 10 36 30 36h129c20 0 30 -15 30 -36v-1176h355c15 0 27 -6 27 -28v-111c0 -22 -12 -32 -27 -32zM583 723v-93c0 -28 -15 -37 -32 -37h-96c-16 0 -34 11 -34 37v94c0 22 13 38 34 38h96c19 0 32 -14 32 -39z" />
    <glyph glyph-name="scedilla" unicode="&#x15f;" horiz-adv-x="689" 
d="M336 -65l-32 49c-195 16 -264 142 -264 280v23c0 19 14 29 39 29h107c16 0 25 -11 25 -30v-27c0 -70 57 -121 130 -121c71 0 128 55 128 127c0 81 -103 131 -232 218c-102 65 -187 144 -187 281c0 156 121 278 291 278c184 0 294 -119 294 -282v-26c0 -19 -9 -23 -32 -23
h-103c-20 0 -28 10 -28 28v24c0 71 -54 124 -124 124c-72 0 -120 -57 -120 -127c0 -77 46 -98 173 -175c130 -75 248 -173 248 -320c0 -136 -86 -243 -219 -274l7 -10c32 -55 53 -104 53 -154c0 -121 -85 -168 -196 -168h-65c-20 0 -26 13 -26 26v63c0 11 6 20 26 20h49
c67 0 90 25 90 74c0 29 -12 59 -32 93z" />
    <glyph glyph-name="Uhungarumlaut" unicode="&#x170;" horiz-adv-x="863" 
d="M587 315v1030c0 19 8 38 28 38h131c21 0 29 -19 29 -38v-1039c0 -181 -158 -327 -344 -327s-343 146 -343 327v1041c0 21 11 36 25 36h136c21 0 27 -16 27 -36v-1032c0 -88 65 -164 155 -164c91 0 156 76 156 164zM619 1733h97c21 0 30 -22 18 -45l-88 -166
c-14 -25 -26 -29 -42 -29h-77c-18 0 -31 17 -20 44l76 166c9 24 17 30 36 30zM313 1493h-77c-18 0 -31 17 -20 44l76 166c9 24 17 30 35 30h98c21 0 30 -22 18 -45l-88 -166c-14 -25 -27 -29 -42 -29z" />
    <glyph glyph-name="Umacron" unicode="&#x16a;" horiz-adv-x="862" 
d="M587 315v1030c0 19 8 38 28 38h131c21 0 29 -19 29 -38v-1039c0 -181 -158 -327 -344 -327s-343 146 -343 327v1041c0 21 11 36 25 36h136c21 0 27 -16 27 -36v-1032c0 -88 65 -164 155 -164c91 0 156 76 156 164zM644 1581v-62c0 -19 -16 -26 -30 -26h-355
c-7 0 -26 4 -26 26v61c0 17 16 26 26 26h356c14 0 29 -7 29 -25z" />
    <glyph glyph-name="Emacron" unicode="&#x112;" horiz-adv-x="740" 
d="M289 171h386c14 0 29 -8 29 -28v-112c0 -22 -15 -31 -29 -31h-543c-22 0 -32 14 -32 36v1311c0 21 12 36 32 36h542c14 0 27 -10 27 -32v-110c0 -22 -13 -31 -27 -31h-385v-419h310c14 0 30 -8 30 -30v-110c0 -22 -15 -31 -30 -31h-310v-449zM598 1598v-62
c0 -19 -16 -26 -30 -26h-355c-7 0 -26 4 -26 26v61c0 17 16 26 26 26h356c14 0 29 -7 29 -25z" />
    <glyph glyph-name="Imacron" unicode="&#x12a;" horiz-adv-x="389" 
d="M289 1347v-1311c0 -22 -9 -36 -30 -36h-129c-21 0 -30 14 -30 36v1311c0 21 10 36 30 36h129c20 0 30 -15 30 -36zM395 1624v-62c0 -19 -16 -26 -30 -26h-355c-7 0 -26 4 -26 26v61c0 17 16 26 26 26h356c14 0 29 -7 29 -25z" />
    <glyph glyph-name="Omacron" unicode="&#x14c;" horiz-adv-x="831" 
d="M416 1233c-92 0 -156 -77 -156 -166v-753c0 -89 63 -163 154 -163c93 0 157 71 157 159v757c0 89 -64 166 -155 166zM759 1076v-770c0 -197 -159 -327 -345 -327s-343 133 -343 327v770c0 197 157 328 344 328c185 0 344 -131 344 -328zM620 1601v-62
c0 -19 -16 -26 -30 -26h-355c-7 0 -26 4 -26 26v61c0 17 16 26 26 26h356c14 0 29 -7 29 -25z" />
    <glyph glyph-name="omacron" unicode="&#x14d;" 
d="M365 883c-74 0 -128 -60 -128 -127v-488c0 -67 55 -127 128 -127c74 0 127 60 127 127v487c0 68 -54 128 -127 128zM672 760v-496c0 -164 -137 -282 -308 -282c-169 0 -306 118 -306 282v496c0 157 137 282 305 282c172 0 309 -118 309 -282zM580 1264v-62
c0 -19 -16 -26 -30 -26h-355c-7 0 -26 4 -26 26v61c0 17 16 26 26 26h356c14 0 29 -7 29 -25z" />
    <glyph glyph-name="umacron" unicode="&#x16b;" horiz-adv-x="758" 
d="M509 269v724c0 20 13 31 27 31h126c13 0 27 -11 27 -31v-723c0 -157 -115 -288 -312 -288c-176 0 -303 134 -303 288v722c0 20 14 32 27 32h127c14 0 26 -12 26 -32v-717c0 -73 51 -134 128 -134c79 0 125 60 127 128zM593 1224v-62c0 -19 -16 -26 -30 -26h-355
c-7 0 -26 4 -26 26v61c0 17 16 26 26 26h356c14 0 29 -7 29 -25z" />
    <glyph glyph-name="amacron" unicode="&#x101;" horiz-adv-x="727" 
d="M490 275v215h-79c-145 0 -187 -80 -187 -174v-20c0 -113 81 -155 140 -155c54 0 126 36 126 134zM355 622h135v112c0 65 -42 160 -152 160c-87 0 -134 -33 -173 -66c-8 -6 -16 -9 -24 -9c-7 0 -14 3 -19 12l-33 72c-8 16 -9 34 17 51c61 43 128 88 259 88
c167 0 305 -121 305 -295v-480c0 -223 -206 -285 -307 -285c-142 0 -320 89 -320 311v24c0 201 135 307 312 305zM600 1236v-62c0 -19 -16 -26 -30 -26h-355c-7 0 -26 4 -26 26v61c0 17 16 26 26 26h356c14 0 29 -7 29 -25z" />
    <glyph glyph-name="thorn" unicode="&#xfe;" horiz-adv-x="752" 
d="M514 269v487c0 67 -53 127 -127 127c-72 0 -125 -57 -127 -122v-498c2 -65 55 -122 127 -122c73 0 127 60 127 128zM694 758v-491c0 -151 -100 -285 -264 -285c-63 0 -121 23 -170 62v-338c0 -19 -8 -31 -29 -31h-122c-19 0 -29 12 -29 31v1657c0 19 9 31 29 31h116
c21 0 35 -7 35 -36v-376c46 37 103 60 168 60c156 0 266 -128 266 -284z" />
    <glyph glyph-name="lessequal" unicode="&#x2264;" horiz-adv-x="523" 
d="M345 1004l78 -64c8 -8 8 -23 2 -31l-196 -276l196 -276c9 -12 5 -23 -3 -29l-78 -64c-4 -3 -8 -4 -11 -4c-7 0 -12 4 -16 9l-241 347c-6 8 -7 11 -7 17c0 9 3 12 7 18l241 347c3 6 10 10 17 10c4 0 7 -1 11 -4zM58 134h424c11 0 27 -13 27 -32v-68c0 -18 -13 -34 -27 -34
h-424c-13 0 -28 12 -28 32v66c0 27 20 36 28 36z" />
    <glyph glyph-name="greaterequal" unicode="&#x2265;" horiz-adv-x="530" 
d="M460 616l-242 -347c-3 -5 -9 -9 -15 -9c-3 0 -7 1 -11 4l-79 64c-7 5 -11 17 -3 29l197 276l-197 276c-5 9 -6 23 3 31l79 64c3 3 7 4 10 4c7 0 14 -4 17 -10l241 -347c4 -6 7 -9 7 -18c0 -6 -2 -10 -7 -17zM505 98v-66c0 -20 -14 -32 -28 -32h-423c-14 0 -26 16 -26 34
v68c0 19 14 32 26 32h423c7 0 28 -9 28 -36z" />
    <glyph glyph-name="uni2206" unicode="&#x2206;" horiz-adv-x="753" 
d="M372 1030l-8 -73l-153 -839h322l-153 839zM317 1348h111c16 0 28 -8 32 -30l280 -1318c5 -20 -2 -35 -20 -35h-695c-18 0 -26 15 -21 36l280 1317c5 22 17 30 33 30z" />
    <glyph glyph-name="product" unicode="&#x220f;" horiz-adv-x="844" 
d="M738 -350h-123c-19 0 -27 17 -27 33v1531h-329v-1530c0 -21 -8 -34 -27 -34h-123c-18 0 -26 13 -26 34v1670c0 16 7 28 23 28h637c14 0 22 -8 22 -27v-1673c0 -15 -9 -32 -27 -32z" />
    <glyph glyph-name="summation" unicode="&#x2211;" horiz-adv-x="663" 
d="M212 1218l245 -636c3 -7 4 -14 3 -21c-1 -3 -1 -7 -3 -10l-4 -9l-236 -727h375c25 0 33 -13 33 -32v-104c0 -21 -8 -32 -32 -32h-527c-20 0 -27 10 -27 32v86c0 11 2 18 9 30l260 768l-262 674c-5 13 -7 23 -8 34v80c0 20 7 31 26 31h523c24 0 30 -13 30 -32v-99
c0 -20 -6 -33 -30 -33h-375z" />
    <glyph glyph-name="anoteleia" unicode="&#x387;" horiz-adv-x="216" 
d="M188 648v-127c0 -18 -14 -27 -19 -27h-115c-3 0 -18 5 -18 26v129c0 18 10 29 19 29h114c16 0 19 -18 19 -30z" />
    <glyph glyph-name="dieresistonos" unicode="&#x385;" horiz-adv-x="444" 
d="M174 1497l-23 193c-3 20 4 39 28 39h90c26 0 29 -20 27 -39l-23 -195c-1 -19 -7 -31 -21 -31h-59c-14 0 -18 17 -19 33zM98 1419h-87c-15 0 -31 9 -31 32v86c0 20 11 34 31 34h87c17 0 29 -13 29 -35v-84c0 -26 -14 -33 -29 -33zM320 1451v86c0 20 12 34 32 34h87
c17 0 28 -13 28 -35v-84c0 -26 -14 -33 -28 -33h-87c-16 0 -32 9 -32 32z" />
    <glyph glyph-name="tonos" unicode="&#x384;" horiz-adv-x="243" 
d="M198 1539l-23 -195c-1 -19 -7 -31 -21 -31h-81c-13 0 -17 16 -19 33l-22 193c-3 20 4 39 27 39h112c26 0 29 -20 27 -39z" />
    <glyph glyph-name="litre" unicode="&#x2113;" horiz-adv-x="476" 
d="M176 1101v-467l110 270c14 37 22 77 22 118v87c0 60 -22 105 -60 105c-47 0 -72 -32 -72 -113zM441 1141v-101c0 -77 -11 -131 -33 -177l-226 -451v-166c0 -91 58 -116 104 -116c15 0 30 -10 30 -35v-69c0 -27 -22 -33 -30 -33c-146 0 -241 72 -241 236v908
c0 130 75 221 203 221c103 0 193 -80 193 -217z" />
    <glyph glyph-name="uni037E" unicode="&#x37e;" horiz-adv-x="293" 
 />
    <glyph glyph-name="uni021B" unicode="&#x21b;" horiz-adv-x="467" 
d="M396 0h-56c-134 0 -228 64 -228 247v616h-73c-10 0 -27 12 -27 33v96c0 22 17 32 27 32h73v161c0 20 8 32 26 35l121 36c21 0 33 -9 33 -31v-201h124c13 0 25 -10 25 -31v-97c0 -18 -11 -33 -28 -33h-121v-607c0 -57 26 -93 93 -93h28c25 0 27 -20 27 -31v-103
c0 -12 -3 -29 -44 -29zM302 -146v-87c0 -96 -39 -141 -65 -166c-6 -6 -12 -8 -17 -8c-4 0 -9 1 -13 5l-26 21c-13 11 -4 23 2 30c19 22 31 46 31 66c0 15 1 27 -7 27h-26c-16 0 -30 10 -30 36v76c0 20 9 40 34 40h83c22 0 34 -13 34 -40z" />
    <glyph glyph-name="uni021A" unicode="&#x21a;" horiz-adv-x="721" 
d="M617 1210h-201v-1178c0 -21 -13 -32 -26 -32h-135c-15 0 -28 11 -28 32v1178h-201c-13 0 -27 10 -27 32v109c0 21 14 32 27 32h591c14 0 27 -9 27 -31v-110c0 -22 -13 -32 -27 -32zM411 -188v-87c0 -96 -39 -141 -65 -166c-6 -6 -12 -8 -17 -8c-4 0 -9 1 -13 5l-26 21
c-13 11 -4 23 2 30c19 22 31 46 31 66c0 15 1 27 -7 27h-26c-16 0 -30 10 -30 36v76c0 20 9 40 34 40h83c22 0 34 -13 34 -40z" />
    <glyph glyph-name="alpha" unicode="&#x3b1;" 
d="M481 275v215h-79c-145 0 -187 -80 -187 -174v-20c0 -113 81 -155 140 -155c54 0 126 36 126 134zM346 622h135v112c0 65 -42 160 -152 160c-87 0 -134 -33 -173 -66c-8 -6 -16 -9 -24 -9c-7 0 -14 3 -19 12l-33 72c-8 16 -9 34 17 51c61 43 128 88 259 88
c167 0 305 -121 305 -295v-480c0 -223 -206 -285 -307 -285c-142 0 -320 89 -320 311v24c0 201 135 307 312 305z" />
    <glyph glyph-name="alphatonos" unicode="&#x3ac;" horiz-adv-x="727" 
d="M490 275v215h-79c-145 0 -187 -80 -187 -174v-20c0 -113 81 -155 140 -155c54 0 126 36 126 134zM355 622h135v112c0 65 -42 160 -152 160c-87 0 -134 -33 -173 -66c-8 -6 -16 -9 -24 -9c-7 0 -14 3 -19 12l-33 72c-8 16 -9 34 17 51c61 43 128 88 259 88
c167 0 305 -121 305 -295v-480c0 -223 -206 -285 -307 -285c-142 0 -320 89 -320 311v24c0 201 135 307 312 305zM456 1368l-23 -195c-1 -19 -7 -31 -21 -31h-81c-13 0 -17 16 -19 33l-22 193c-3 20 4 39 27 39h112c26 0 29 -20 27 -39z" />
    <glyph glyph-name="beta" unicode="&#x3b2;" horiz-adv-x="742" 
d="M497 905v195c0 111 -72 144 -132 144c-61 0 -124 -56 -124 -141v-925c28 -13 102 -37 151 -37c74 0 124 68 124 144v210c0 83 -34 151 -97 151c-16 0 -26 12 -26 30v88c0 16 9 31 29 31c54 0 74 62 75 110zM656 1100v-197c0 -93 -31 -141 -73 -176
c49 -14 110 -76 110 -208v-224c0 -179 -116 -314 -284 -314c-52 0 -131 25 -168 38v-301c0 -23 -8 -34 -24 -34h-129c-26 0 -27 18 -27 36v1368c0 208 139 305 302 305c148 0 295 -88 293 -293z" />
    <glyph glyph-name="gamma" unicode="&#x3b3;" horiz-adv-x="734" 
d="M559 1024h122c25 0 32 -19 25 -45l-248 -931v-331c0 -20 -13 -32 -33 -32h-118c-20 0 -30 12 -30 32v324l-250 938c-7 30 6 45 24 45h124c18 0 30 -9 33 -28l150 -681l8 -73l9 73l150 683c4 19 18 26 34 26z" />
    <glyph glyph-name="delta" unicode="&#x3b4;" 
d="M492 268v487c0 68 -54 128 -127 128c-74 0 -128 -60 -128 -127v-488c0 -67 55 -127 128 -127c74 0 127 60 127 127zM635 1252h-259l239 -324l3 -6c34 -45 54 -100 54 -162v-496c0 -164 -137 -282 -308 -282c-169 0 -306 118 -306 282v496c0 152 128 273 288 281l-148 208
c-6 8 -7 14 -7 23v84c0 17 11 26 20 26h425c11 0 19 -7 19 -22v-87c0 -13 -9 -21 -20 -21z" />
    <glyph glyph-name="epsilon" unicode="&#x3b5;" horiz-adv-x="661" 
d="M347 141h84c49 0 80 24 112 85c6 9 13 14 20 14c5 0 11 -2 16 -7l48 -62c17 -14 11 -32 2 -50c-38 -74 -103 -135 -218 -135h-94c-140 0 -255 61 -255 270v125c0 85 28 136 73 156c-39 20 -68 75 -68 165v97c0 143 108 239 245 239h96c86 0 159 -22 211 -116
c18 -23 18 -35 4 -48l-52 -72c-4 -3 -9 -5 -14 -5c-11 0 -22 7 -27 15c-29 53 -59 69 -111 69h-77c-61 0 -100 -51 -100 -103v-69c0 -85 27 -112 93 -112h112c9 0 29 -6 29 -29v-74c0 -16 -6 -33 -25 -33h-116c-65 0 -96 -39 -96 -123v-77c0 -91 43 -120 108 -120z" />
    <glyph glyph-name="epsilontonos" unicode="&#x3ad;" horiz-adv-x="670" 
d="M347 141h84c49 0 80 24 112 85c6 9 13 14 20 14c5 0 11 -2 16 -7l48 -62c17 -14 11 -32 2 -50c-38 -74 -103 -135 -218 -135h-94c-140 0 -255 61 -255 270v125c0 85 28 136 73 156c-39 20 -68 75 -68 165v97c0 143 108 239 245 239h96c86 0 159 -22 211 -116
c18 -23 18 -35 4 -48l-52 -72c-4 -3 -9 -5 -14 -5c-11 0 -22 7 -27 15c-29 53 -59 69 -111 69h-77c-61 0 -100 -51 -100 -103v-69c0 -85 27 -112 93 -112h112c9 0 29 -6 29 -29v-74c0 -16 -6 -33 -25 -33h-116c-65 0 -96 -39 -96 -123v-77c0 -91 43 -120 108 -120zM447 1328
l-23 -195c-1 -19 -7 -31 -21 -31h-81c-13 0 -17 16 -19 33l-22 193c-3 20 4 39 27 39h112c26 0 29 -20 27 -39z" />
    <glyph glyph-name="zeta" unicode="&#x3b6;" horiz-adv-x="620" 
d="M461 -317l-55 49c-12 12 -8 28 6 46c26 29 43 43 43 90v42c0 69 -45 90 -87 90h-72c-125 0 -256 63 -256 277v137c0 115 36 200 76 284l267 540h-283c-15 0 -21 12 -21 25v93c0 20 13 27 21 27h453c18 0 22 -17 22 -26v-84c0 -17 -8 -30 -15 -44l-299 -607
c-29 -63 -52 -134 -52 -215v-90c0 -137 73 -161 135 -161h67c87 0 194 -60 194 -201v-92c0 -83 -43 -133 -96 -182c-8 -8 -16 -12 -24 -12s-15 4 -24 14z" />
    <glyph glyph-name="eta" unicode="&#x3b7;" horiz-adv-x="765" 
d="M509 -293v1043c0 69 -46 133 -127 133c-75 0 -126 -58 -128 -129v-722c0 -20 -12 -32 -26 -32h-127c-13 0 -27 12 -27 32v722c0 154 127 288 303 288c197 0 312 -131 312 -288v-1047c0 -20 -14 -31 -27 -31h-126c-14 0 -27 11 -27 31z" />
    <glyph glyph-name="etatonos" unicode="&#x3ae;" horiz-adv-x="765" 
d="M509 -293v1043c0 69 -46 133 -127 133c-75 0 -126 -58 -128 -129v-722c0 -20 -12 -32 -26 -32h-127c-13 0 -27 12 -27 32v722c0 154 127 288 303 288c197 0 312 -131 312 -288v-1047c0 -20 -14 -31 -27 -31h-126c-14 0 -27 11 -27 31zM479 1338l-23 -195
c-1 -19 -7 -31 -21 -31h-81c-13 0 -17 16 -19 33l-22 193c-3 20 4 39 27 39h112c26 0 29 -20 27 -39z" />
    <glyph glyph-name="theta" unicode="&#x3b8;" 
d="M492 268v348h-255v-348c0 -67 55 -127 128 -127c74 0 127 60 127 127zM237 1116v-351h255v350c0 68 -54 128 -127 128c-74 0 -128 -60 -128 -127zM672 1120v-856c0 -164 -137 -282 -308 -282c-169 0 -306 118 -306 282v856c0 157 137 282 305 282
c172 0 309 -118 309 -282z" />
    <glyph glyph-name="iota" unicode="&#x3b9;" horiz-adv-x="339" 
d="M260 996v-965c0 -19 -12 -31 -33 -31h-118c-20 0 -30 12 -30 31v965c0 15 12 28 30 28h118c19 0 33 -15 33 -28z" />
    <glyph glyph-name="iotadieresis" unicode="&#x3ca;" horiz-adv-x="339" 
d="M260 996v-965c0 -19 -12 -31 -33 -31h-118c-20 0 -30 12 -30 31v965c0 15 12 28 30 28h118c19 0 33 -15 33 -28zM344 1271v-84c0 -26 -15 -33 -29 -33h-83c-15 0 -31 9 -31 32v86c0 20 11 34 32 34h82c17 0 29 -12 29 -35zM-5 1186v86c0 20 11 34 31 34h82
c17 0 29 -12 29 -35v-84c0 -26 -14 -33 -29 -33h-82c-15 0 -31 9 -31 32z" />
    <glyph glyph-name="iotatonos" unicode="&#x3af;" horiz-adv-x="339" 
d="M260 996v-965c0 -19 -12 -31 -33 -31h-118c-20 0 -30 12 -30 31v965c0 15 12 28 30 28h118c19 0 33 -15 33 -28zM257 1336l-23 -195c-1 -19 -7 -31 -21 -31h-81c-13 0 -17 16 -19 33l-22 193c-3 20 4 39 27 39h112c26 0 29 -20 27 -39z" />
    <glyph glyph-name="kappa" unicode="&#x3ba;" horiz-adv-x="719" 
d="M680 0h-133c-14 0 -24 6 -32 25l-205 405l-51 -50v-348c0 -19 -12 -32 -32 -32h-119c-21 0 -29 13 -29 32v960c0 20 9 32 29 32h119c20 0 32 -12 32 -32v-380l11 24l204 365c10 19 23 23 41 23h189c10 0 18 -9 18 -25v-101c0 -14 -8 -24 -19 -24h-95l-172 -300l267 -527
c11 -24 -3 -47 -23 -47z" />
    <glyph glyph-name="lambda" unicode="&#x3bb;" horiz-adv-x="734" 
d="M681 0h-122c-16 0 -30 7 -34 26l-150 683l-9 73l-8 -73l-150 -681c-3 -19 -15 -28 -33 -28h-124c-18 0 -31 16 -24 45l245 953c2 12 8 20 16 23l-33 162c-10 49 -35 64 -68 64c-25 0 -28 20 -28 31v75c0 15 1 33 39 33c138 0 186 -64 208 -156l63 -262h-1l238 -923
c7 -26 0 -45 -25 -45z" />
    <glyph glyph-name="uni03BC" unicode="&#x3bc;" horiz-adv-x="765" 
d="M661 0h-85c-14 0 -33 14 -35 35l-6 39c-34 -55 -86 -92 -158 -92c-45 0 -87 9 -123 24v-282c0 -27 -20 -37 -34 -37h-121c-16 0 -25 12 -25 33v1272c0 23 13 32 26 32h129c12 0 25 -10 25 -33v-716c0 -73 51 -134 128 -134c81 0 127 63 127 133v716c0 23 14 34 27 34h127
c13 0 25 -9 25 -32v-961c0 -21 -10 -31 -27 -31z" />
    <glyph glyph-name="xi" unicode="&#x3be;" horiz-adv-x="663" 
d="M358 820h108c16 0 27 -9 27 -29v-90c0 -24 -14 -30 -28 -30h-108c-76 0 -147 -40 -147 -180v-167c0 -154 85 -181 182 -181l21 -23l12 -120l-7 143h32c104 0 195 -55 195 -178l1 -96c0 -78 -31 -132 -86 -186c-9 -9 -16 -13 -22 -13c-7 0 -14 4 -23 12l-57 51
c-12 11 -10 27 0 43c21 28 48 43 48 90v42c0 57 -38 92 -81 92h-110c-149 0 -272 98 -272 280v234c0 151 69 222 126 245c-49 40 -84 78 -84 182v140c0 91 29 138 66 169h-68c-14 0 -26 7 -26 30v73c0 22 13 29 26 29h463c12 0 26 -11 26 -28v-74c0 -18 -13 -30 -26 -30
h-176c-71 0 -117 -60 -117 -156v-126c0 -106 39 -148 105 -148z" />
    <glyph glyph-name="pi" unicode="&#x3c0;" horiz-adv-x="773" 
d="M516 42v823h-255v-834c0 -19 -12 -31 -30 -31h-126c-18 0 -24 12 -24 31v962c0 20 10 31 24 31h569c17 0 24 -12 24 -33v-952c0 -24 -8 -39 -28 -39h-125c-27 0 -29 26 -29 42z" />
    <glyph glyph-name="rho" unicode="&#x3c1;" horiz-adv-x="735" 
d="M243 756v-488c0 -67 54 -127 127 -127c74 0 128 60 128 128v487c0 67 -54 127 -128 127c-73 0 -127 -60 -127 -127zM677 760v-496c0 -164 -123 -282 -286 -282c-50 0 -101 16 -148 43v-321c0 -19 -9 -31 -29 -31h-121c-20 0 -30 12 -30 31v1056c0 164 137 282 307 282
c171 0 307 -118 307 -282z" />
    <glyph glyph-name="uni03C2" unicode="&#x3c2;" horiz-adv-x="702" 
d="M492 694v61c0 67 -50 127 -125 127c-74 0 -130 -59 -130 -126v-488c0 -67 56 -127 130 -127h68c131 0 212 -82 212 -210l1 -68c0 -90 -28 -153 -86 -198c-10 -8 -18 -13 -26 -13c-7 0 -14 3 -22 11l-60 51c-13 11 -9 29 2 44c30 25 51 43 51 103v23c0 63 -31 98 -81 98
h-63c-168 0 -305 118 -305 282v497c0 155 137 281 305 281c172 0 296 -126 296 -282v-66c0 -27 -9 -32 -25 -32h-109c-22 0 -33 5 -33 32z" />
    <glyph glyph-name="sigma" unicode="&#x3c3;" horiz-adv-x="758" 
d="M365 883c-74 0 -128 -60 -128 -127v-488c0 -67 55 -127 128 -127c74 0 127 60 127 127v487c0 68 -54 128 -127 128zM475 1024h247c12 0 23 -9 23 -29v-90c0 -19 -11 -28 -23 -28h-76c16 -35 26 -75 26 -117v-496c0 -164 -137 -282 -308 -282c-169 0 -306 118 -306 282
v496c0 157 137 282 305 282c40 0 77 -6 112 -18z" />
    <glyph glyph-name="tau" unicode="&#x3c4;" horiz-adv-x="541" 
d="M509 874h-147v-843c0 -19 -12 -31 -32 -31h-118c-21 0 -30 12 -30 31v843h-152c-14 0 -25 11 -25 30v90c0 20 11 30 25 30h479c12 0 24 -10 24 -29v-91c0 -19 -12 -30 -24 -30z" />
    <glyph glyph-name="phi" unicode="&#x3c6;" horiz-adv-x="839" 
d="M218 760v-496c0 -64 48 -116 111 -122l6 -1v740h-9c-61 -6 -108 -59 -108 -121zM500 882h-6v-740h6c69 0 123 52 123 122v495c0 68 -55 123 -123 123zM335 -253v234c-159 3 -286 128 -286 283v496c0 155 127 282 286 282v232c0 19 10 30 24 30h113c14 0 22 -12 22 -30
v-232h4c163 0 294 -126 294 -282v-496c0 -156 -131 -283 -293 -283h-5v-234c0 -20 -8 -31 -23 -31h-113c-13 0 -23 11 -23 31z" />
    <glyph glyph-name="chi" unicode="&#x3c7;" horiz-adv-x="599" 
d="M590 987l-202 -621l209 -642c7 -22 2 -37 -14 -37h-128c-20 0 -26 6 -32 28l-113 392l-11 58l-10 -60l-114 -392c-5 -21 -11 -26 -29 -26h-131c-17 0 -20 15 -13 37l207 641l-201 622c-6 20 1 37 17 37h131c18 0 24 -11 28 -29l101 -353l14 -88l15 88l100 355
c4 17 14 27 30 27h130c18 0 23 -17 16 -37z" />
    <glyph glyph-name="psi" unicode="&#x3c8;" horiz-adv-x="886" 
d="M526 1195v-1052h9c53 0 121 27 125 153v695c0 21 12 33 25 33h117c15 0 26 -13 26 -33v-698c0 -183 -110 -312 -296 -312h-6v-265c0 -18 -13 -29 -27 -29h-119c-12 0 -23 11 -23 31v263h-14c-109 0 -279 60 -286 305v705c0 22 12 33 25 33h117c17 0 26 -15 26 -33v-685
c0 -134 69 -163 123 -163h9v1052c0 20 6 31 25 31h117c20 0 27 -11 27 -31z" />
    <glyph glyph-name="omega" unicode="&#x3c9;" horiz-adv-x="923" 
d="M544 643v-356c0 -95 43 -133 79 -133c37 0 77 24 77 120v324c0 136 -23 222 -53 311c-8 19 -8 37 12 49l72 61c7 5 13 8 20 8c12 0 26 -12 49 -51c42 -86 67 -217 67 -355v-394c0 -181 -116 -246 -221 -246c-87 0 -160 45 -183 115c-30 -66 -97 -115 -181 -115
c-120 0 -223 84 -223 254v362c0 106 13 277 81 403c12 20 22 27 31 27c6 0 12 -4 19 -9l78 -64c12 -9 16 -30 10 -43c-31 -72 -52 -161 -52 -308v-332c0 -92 43 -117 79 -117c37 0 80 38 80 133v355c0 28 15 37 27 37h105c21 0 27 -21 27 -36z" />
    <glyph glyph-name="omegatonos" unicode="&#x3ce;" horiz-adv-x="923" 
d="M544 643v-356c0 -95 43 -133 79 -133c37 0 77 24 77 120v324c0 136 -23 222 -53 311c-8 19 -8 37 12 49l72 61c7 5 13 8 20 8c12 0 26 -12 49 -51c42 -86 67 -217 67 -355v-394c0 -181 -116 -246 -221 -246c-87 0 -160 45 -183 115c-30 -66 -97 -115 -181 -115
c-120 0 -223 84 -223 254v362c0 106 13 277 81 403c12 20 22 27 31 27c6 0 12 -4 19 -9l78 -64c12 -9 16 -30 10 -43c-31 -72 -52 -161 -52 -308v-332c0 -92 43 -117 79 -117c37 0 80 38 80 133v355c0 28 15 37 27 37h105c21 0 27 -21 27 -36zM560 1248l-23 -195
c-1 -19 -7 -31 -21 -31h-81c-13 0 -17 16 -19 33l-22 193c-3 20 4 39 27 39h112c26 0 29 -20 27 -39z" />
    <glyph glyph-name="omicron" unicode="&#x3bf;" 
d="M672 760v-496c0 -164 -137 -282 -308 -282c-169 0 -306 118 -306 282v496c0 157 137 282 305 282c172 0 309 -118 309 -282zM365 883c-74 0 -128 -60 -128 -127v-488c0 -67 55 -127 128 -127c74 0 127 60 127 127v487c0 68 -54 128 -127 128z" />
    <glyph glyph-name="omicrontonos" unicode="&#x3cc;" 
d="M365 883c-74 0 -128 -60 -128 -127v-488c0 -67 55 -127 128 -127c74 0 127 60 127 127v487c0 68 -54 128 -127 128zM672 760v-496c0 -164 -137 -282 -308 -282c-169 0 -306 118 -306 282v496c0 157 137 282 305 282c172 0 309 -118 309 -282zM448 1327l-23 -195
c-1 -19 -7 -31 -21 -31h-81c-13 0 -17 16 -19 33l-22 193c-3 20 4 39 27 39h112c26 0 29 -20 27 -39z" />
    <glyph glyph-name="afii10018" unicode="&#x411;" horiz-adv-x="808" 
d="M439 717h-154v-563h153c66 0 145 20 145 159v258c0 122 -84 146 -144 146zM640 1351v-96c0 -22 -15 -33 -26 -33h-329v-351h170c149 0 304 -79 304 -284v-272c0 -247 -149 -315 -301 -315h-329c-21 0 -28 13 -28 33v1316c0 25 8 33 27 33l486 1c16 0 26 -12 26 -32z" />
    <glyph glyph-name="afii10020" unicode="&#x413;" horiz-adv-x="672" 
d="M128 1382h480c13 0 26 -13 26 -33v-102c0 -21 -15 -32 -26 -32h-320v-1183c0 -18 -10 -32 -29 -32h-132c-14 0 -26 13 -26 32v1317c0 24 7 33 27 33z" />
    <glyph glyph-name="afii10024" unicode="&#x416;" horiz-adv-x="1142" 
d="M455 759h16v589c0 19 7 34 30 34h134c20 0 26 -17 26 -34v-589h16c27 0 48 33 55 59l109 407c32 139 158 163 223 163c8 0 23 -8 23 -30v-112c0 -17 -9 -30 -25 -30c-37 0 -58 -51 -75 -104l-88 -300c-8 -25 -29 -100 -36 -127l255 -643c9 -21 2 -42 -17 -42h-136
c-14 0 -25 5 -32 24l-204 548c-11 -11 -32 -18 -52 -18h-16v-524c0 -12 -9 -30 -27 -30h-136c-7 0 -27 8 -27 31v523h-16c-19 0 -40 8 -52 18l-180 -547c-6 -20 -20 -25 -36 -25h-148c-15 0 -21 22 -14 42l246 644l-125 425c-16 54 -38 105 -76 105c-15 0 -24 13 -24 30v112
c0 22 15 30 23 30c64 0 193 -23 223 -163l107 -407c7 -26 31 -59 56 -59z" />
    <glyph glyph-name="afii10025" unicode="&#x417;" horiz-adv-x="808" 
d="M748 429v-110c0 -213 -153 -338 -343 -338c-179 0 -346 122 -346 336v65c0 17 8 34 34 34h113c25 0 30 -15 30 -34v-47c0 -132 92 -189 169 -189c61 0 168 28 168 191v90c0 153 -84 208 -194 208c-27 0 -43 10 -43 31v97c0 18 7 36 39 36c70 0 179 37 179 219v32
c0 146 -86 186 -148 186c-99 0 -152 -79 -152 -189v-29c0 -20 -5 -36 -31 -36h-116c-23 0 -29 16 -29 46v25c0 221 130 351 328 351c107 0 325 -75 325 -350v-35c0 -185 -94 -273 -174 -301c95 -23 191 -137 191 -289z" />
    <glyph glyph-name="afii10026" unicode="&#x418;" horiz-adv-x="903" 
d="M626 36l6 868l3 74l-18 -69l-330 -882c-7 -20 -23 -27 -37 -27h-117c-21 0 -33 13 -33 35v1313c0 24 14 35 31 35h114c22 0 32 -17 32 -36l-7 -895l-4 -88l22 95l332 895c4 14 13 22 23 26c2 1 5 2 8 2l1 1h119c20 0 32 -15 32 -36v-1311c0 -22 -11 -36 -32 -36h-114
c-21 0 -32 14 -31 36z" />
    <glyph glyph-name="afii10027" unicode="&#x419;" horiz-adv-x="903" 
d="M626 36l6 868l3 74l-18 -69l-330 -882c-7 -20 -23 -27 -37 -27h-117c-21 0 -33 13 -33 35v1313c0 24 14 35 31 35h114c22 0 32 -17 32 -36l-7 -895l-4 -88l22 95l332 895c4 14 13 22 23 26c2 1 5 2 8 2l1 1h119c20 0 32 -15 32 -36v-1311c0 -22 -11 -36 -32 -36h-114
c-21 0 -32 14 -31 36zM669 1661c0 -122 -88 -189 -195 -189s-196 68 -196 189c0 21 13 33 26 33h52c13 0 25 -7 25 -27c0 -40 24 -96 95 -96s94 55 94 96c0 19 10 27 23 27h50c17 0 26 -12 26 -33z" />
    <glyph glyph-name="afii10028" unicode="&#x41a;" horiz-adv-x="844" 
d="M693 1118l-116 -316c-9 -24 -24 -77 -32 -104l260 -655c7 -20 0 -43 -16 -43h-144c-15 0 -25 5 -32 25l-189 542c-32 -24 -61 -37 -102 -37h-33v-500c0 -12 -10 -30 -27 -30h-135c-8 0 -27 8 -27 31v1317c0 19 6 34 29 34h134c20 0 26 -17 26 -34v-591h33
c61 9 100 71 112 109l118 364c43 137 158 162 222 162c8 0 23 -8 23 -31v-111c0 -17 -9 -30 -24 -30c-38 0 -60 -49 -80 -102z" />
    <glyph glyph-name="afii10029" unicode="&#x41b;" horiz-adv-x="900" 
d="M797 1350v-1315c0 -20 -6 -35 -24 -35h-138c-19 0 -25 13 -25 35v1178h-310v-947c0 -182 -103 -266 -242 -266c-24 0 -38 10 -38 35v109c0 16 9 27 26 27c38 0 66 20 66 111v1056c0 25 11 44 34 44h628c12 0 23 -8 23 -32z" />
    <glyph glyph-name="afii10030" unicode="&#x41c;" horiz-adv-x="1362" 
d="M1086 38v1030c0 88 -65 164 -155 164c-91 0 -156 -76 -156 -164l1 -1034c0 -19 -6 -34 -27 -34h-136c-14 0 -26 15 -26 36v1038c-3 85 -68 158 -156 158c-90 0 -155 -76 -155 -164v-1032c0 -20 -6 -36 -27 -36h-136c-14 0 -25 15 -25 36v1041c0 181 157 327 343 327
c97 0 186 -40 250 -104c63 64 152 104 249 104c186 0 344 -146 344 -327v-1039c0 -19 -6 -38 -28 -38h-131c-20 0 -29 18 -29 38z" />
    <glyph glyph-name="afii10032" unicode="&#x41e;" horiz-adv-x="831" 
d="M759 1076v-770c0 -197 -159 -327 -345 -327s-343 133 -343 327v770c0 197 157 328 344 328c185 0 344 -131 344 -328zM416 1233c-92 0 -156 -77 -156 -166v-753c0 -89 63 -163 154 -163c93 0 157 71 157 159v757c0 89 -64 166 -155 166z" />
    <glyph glyph-name="afii10033" unicode="&#x41f;" horiz-adv-x="899" 
d="M773 0h-140c-18 0 -25 12 -25 34v1179h-319v-1179c0 -19 -9 -34 -25 -34h-137c-17 0 -26 12 -26 34v1312c0 17 10 36 34 36h633c19 0 30 -8 30 -32v-1316c0 -19 -7 -34 -25 -34z" />
    <glyph glyph-name="afii10034" unicode="&#x420;" horiz-adv-x="822" 
d="M599 732v302c0 101 -61 176 -161 176h-149v-651h150c98 0 160 75 160 173zM100 36v1311c0 21 12 36 32 36h320c197 0 336 -152 336 -346v-303c0 -196 -140 -346 -336 -346h-163v-352c0 -22 -9 -36 -30 -36h-129c-21 0 -30 14 -30 36z" />
    <glyph glyph-name="afii10035" unicode="&#x421;" horiz-adv-x="802" 
d="M743 1072v-83c0 -30 -6 -41 -29 -41h-120c-22 0 -28 11 -28 38v81c0 87 -59 166 -149 166c-91 0 -157 -75 -157 -164v-753c0 -89 64 -165 157 -165c94 0 154 76 154 165v100c0 30 8 38 27 38h121c20 0 30 -7 30 -36v-111c0 -198 -149 -328 -334 -328
c-187 0 -344 130 -344 328v769c0 185 146 328 344 328c213 0 328 -160 328 -332z" />
    <glyph glyph-name="afii10036" unicode="&#x422;" horiz-adv-x="650" 
d="M621 1210h-201v-1178c0 -21 -13 -32 -26 -32h-135c-15 0 -28 11 -28 32v1178h-201c-13 0 -27 10 -27 32v109c0 21 14 32 27 32h591c14 0 27 -9 27 -31v-110c0 -22 -13 -32 -27 -32z" />
    <glyph glyph-name="afii10037" unicode="&#x423;" horiz-adv-x="699" 
d="M533 1382h119c31 0 29 -23 23 -47l-248 -932h1l-63 -207c-53 -171 -187 -205 -262 -205c-15 0 -31 8 -31 28v102c0 18 11 32 24 33c59 4 109 36 127 128l44 168l-243 888c-6 26 2 44 24 44h119c20 0 32 -13 37 -33l140 -680l152 681c4 22 18 32 37 32z" />
    <glyph glyph-name="afii10038" unicode="&#x424;" horiz-adv-x="955" 
d="M237 918v-424c0 -166 64 -210 158 -222v853c-93 -12 -158 -62 -158 -207zM717 494v424c0 145 -66 195 -159 207v-853c94 12 159 56 159 222zM558 1358v-77c173 -24 342 -101 342 -367v-439c0 -247 -158 -334 -342 -359v-97c0 -11 0 -28 -21 -28h-120c-23 0 -22 17 -22 28
v97c-184 25 -342 112 -342 359v439c0 266 168 343 342 367v80c0 14 8 30 24 30h115c21 0 24 -18 24 -33z" />
    <glyph glyph-name="afii10039" unicode="&#x425;" horiz-adv-x="769" 
d="M384 868l10 55l154 432c6 19 19 28 33 28h137c22 0 31 -22 24 -37l-262 -637l2 -3l267 -668c10 -23 -6 -38 -21 -38h-137c-17 0 -28 6 -35 26l-162 445l-10 46l-9 -46l-162 -445c-7 -20 -16 -26 -34 -26h-137c-15 0 -31 14 -21 38l267 671v2l-261 635c-6 15 2 37 25 37
h136c15 0 28 -9 34 -28l151 -432z" />
    <glyph glyph-name="afii10041" unicode="&#x427;" horiz-adv-x="806" 
d="M716 1347v-1311c0 -21 -7 -36 -31 -36h-127c-25 0 -32 15 -32 36v600c-19 -84 -114 -144 -194 -144c-168 0 -285 129 -285 317v539c0 18 9 34 31 34h134c15 0 24 -15 24 -35v-515c0 -124 69 -171 140 -171c88 0 150 102 150 220v466c0 18 8 35 31 35h128
c24 0 31 -14 31 -35z" />
    <glyph glyph-name="afii10042" unicode="&#x428;" horiz-adv-x="1180" 
d="M924 1383h136c18 0 26 -15 26 -35v-1315c0 -22 -7 -33 -23 -33h-940c-14 0 -21 9 -21 33v1315c0 20 12 35 27 35h134c18 0 27 -16 27 -35v-1179h211v1179c0 19 10 35 29 35h130c20 0 29 -16 29 -35v-1179h208v1179c0 20 8 35 27 35z" />
    <glyph glyph-name="afii10044" unicode="&#x42a;" horiz-adv-x="808" 
d="M571 324v228c0 141 -80 165 -149 165h-155v-563h155c70 0 149 29 149 170zM267 1357v-486h202c149 0 277 -88 277 -285v-288c0 -196 -129 -298 -267 -298h-360c-21 0 -26 14 -26 32v1181h-62c-10 0 -24 7 -24 26v119c0 15 10 24 26 24h216c9 0 18 -8 18 -25z" />
    <glyph glyph-name="afii10045" unicode="&#x42b;" horiz-adv-x="1193" 
d="M571 324v228c0 141 -80 165 -149 165h-155v-563h155c70 0 149 29 149 170zM93 32v1318c0 18 7 32 18 32h131c12 0 25 -14 25 -32v-479h203c147 0 276 -88 276 -285v-288c0 -196 -129 -298 -267 -298h-359c-21 0 -27 14 -27 32zM1088 1347v-1311c0 -22 -9 -36 -30 -36
h-129c-21 0 -30 14 -30 36v1311c0 21 10 36 30 36h129c20 0 30 -15 30 -36z" />
    <glyph glyph-name="afii10046" unicode="&#x42c;" horiz-adv-x="782" 
d="M571 324v228c0 141 -80 165 -149 165h-155v-563h155c70 0 149 29 149 170zM93 32v1318c0 18 7 32 18 32h131c12 0 25 -14 25 -32v-479h203c147 0 276 -88 276 -285v-288c0 -196 -129 -298 -267 -298h-359c-21 0 -27 14 -27 32z" />
    <glyph glyph-name="afii10047" unicode="&#x42d;" horiz-adv-x="802" 
d="M296 776h264v293c0 89 -66 164 -157 164c-90 0 -149 -79 -149 -166v-81c0 -27 -8 -38 -30 -38h-118c-23 0 -29 11 -29 41v83c0 172 115 332 327 332c199 0 345 -143 345 -328v-769c0 -198 -157 -328 -345 -328c-184 0 -333 130 -333 328v111c0 29 10 36 30 36h119
c19 0 29 -8 29 -38v-100c0 -89 60 -165 154 -165s157 76 157 165v307h-264c-14 0 -27 11 -27 32v89c0 20 13 32 27 32z" />
    <glyph glyph-name="afii10048" unicode="&#x42e;" horiz-adv-x="1174" 
d="M772 1233c-92 0 -157 -77 -157 -166v-753c0 -89 63 -163 155 -163s156 71 156 159v757c0 89 -64 166 -154 166zM1115 1076v-770c0 -197 -159 -327 -345 -327c-187 0 -344 133 -344 327v295h-136v-565c0 -22 -9 -36 -30 -36h-126c-21 0 -32 14 -32 36v1311
c0 21 12 35 32 35h126c20 0 30 -14 30 -35v-566h136v295c0 197 157 328 345 328c185 0 344 -131 344 -328z" />
    <glyph glyph-name="afii10050" unicode="&#x490;" horiz-adv-x="648" 
d="M454 1382v130c0 23 9 37 30 37h105c13 0 28 -11 28 -37v-259c0 -21 -10 -35 -27 -35h-300v-1185c0 -21 -16 -33 -29 -33h-131c-15 0 -29 14 -29 33v1316c0 22 11 33 30 33h323z" />
    <glyph glyph-name="afii10051" unicode="&#x402;" horiz-adv-x="911" 
d="M596 947c113 0 272 -93 272 -310v-412c0 -176 -141 -241 -245 -241c-17 0 -36 9 -36 31v89c0 17 12 31 26 31c50 0 80 29 80 101v389c0 125 -96 164 -146 164c-76 0 -156 -103 -156 -210v-549c0 -14 -5 -30 -30 -30h-120c-17 0 -25 13 -25 29v1189h-187
c-7 0 -23 8 -23 26v112c0 12 12 26 23 26h575c15 0 25 -14 25 -26v-112c0 -17 -14 -26 -25 -26h-213v-429c20 66 103 158 205 158z" />
    <glyph glyph-name="afii10053" unicode="&#x404;" horiz-adv-x="831" 
d="M571 316v100c0 30 10 38 29 38h119c20 0 30 -7 30 -36v-111c0 -198 -149 -328 -334 -328c-187 0 -344 130 -344 328v769c0 185 146 328 344 328c213 0 328 -160 328 -332v-83c0 -30 -6 -41 -29 -41h-118c-22 0 -30 11 -30 38v81c0 87 -59 166 -149 166
c-91 0 -157 -75 -157 -164v-293h264c14 0 27 -12 27 -32v-89c0 -21 -13 -32 -27 -32h-264v-307c0 -89 64 -165 157 -165c94 0 154 76 154 165z" />
    <glyph glyph-name="afii10052" unicode="&#x403;" horiz-adv-x="672" 
d="M128 1382h480c13 0 26 -13 26 -33v-102c0 -21 -15 -32 -26 -32h-320v-1183c0 -18 -10 -32 -29 -32h-132c-14 0 -26 13 -26 32v1317c0 24 7 33 27 33zM431 1712h97c22 0 30 -22 18 -45l-88 -166c-14 -25 -26 -29 -42 -29h-77c-17 0 -31 18 -20 45l76 166c9 23 18 29 36 29
z" />
    <glyph glyph-name="afii10057" unicode="&#x408;" horiz-adv-x="682" 
d="M586 1344v-1021c0 -206 -148 -344 -334 -344c-96 0 -197 39 -250 101c-8 10 -19 36 -8 51l60 75c7 9 15 13 24 13s18 -4 26 -13c29 -28 83 -55 139 -55c99 0 154 80 154 181v1015c0 25 12 36 26 36h131c24 0 32 -15 32 -39z" />
    <glyph glyph-name="afii10058" unicode="&#x409;" horiz-adv-x="1232" 
d="M891 721h-70v-567h70c63 0 142 26 142 171v226c0 140 -80 170 -142 170zM821 1350v-476h111c148 0 276 -96 276 -293v-295c0 -189 -129 -286 -266 -286h-283c-21 0 -27 14 -27 32v1182h-320v-922c0 -247 -182 -302 -251 -302c-15 0 -33 7 -33 31v106c0 18 11 33 24 33
c43 0 72 41 72 130v1058c0 20 5 35 22 35h649c2 0 3 -1 5 -1c12 -3 18 -11 20 -25c1 -2 1 -5 1 -7z" />
    <glyph glyph-name="afii10059" unicode="&#x40a;" horiz-adv-x="1218" 
d="M867 698h-71v-544h71c63 0 142 26 142 171v203c0 140 -80 170 -142 170zM918 0h-284c-20 0 -27 14 -27 32v651h-322v-646c0 -18 -9 -37 -31 -37h-130c-19 0 -26 15 -26 37v1314c0 14 5 32 26 32h131c21 0 30 -11 30 -35v-498h322v500c0 19 8 33 26 33h137
c15 0 26 -14 26 -34v-498h112c148 0 275 -96 275 -293v-272c0 -189 -128 -286 -265 -286z" />
    <glyph glyph-name="afii10060" unicode="&#x40b;" horiz-adv-x="933" 
d="M645 1352v-110c0 -22 -13 -32 -27 -32h-201v-279c49 38 107 62 171 62c151 0 263 -120 263 -289v-673c0 -20 -13 -31 -26 -31h-127c-14 0 -27 11 -27 31v672c0 68 -51 130 -126 130s-126 -67 -128 -139v-662c0 -21 -13 -32 -26 -32h-136c-15 0 -27 11 -27 32v1178h-201
c-14 0 -27 10 -27 32v109c0 21 13 32 27 32h591c14 0 27 -9 27 -31z" />
    <glyph glyph-name="afii10061" unicode="&#x40c;" horiz-adv-x="860" 
d="M693 1118l-116 -316c-9 -24 -24 -77 -32 -104l260 -655c7 -20 0 -43 -16 -43h-144c-15 0 -25 5 -32 25l-189 542c-32 -24 -61 -37 -102 -37h-33v-500c0 -12 -10 -30 -27 -30h-135c-8 0 -27 8 -27 31v1317c0 19 6 34 29 34h134c20 0 26 -17 26 -34v-591h33
c61 9 100 71 112 109l118 364c43 137 158 162 222 162c8 0 23 -8 23 -31v-111c0 -17 -9 -30 -24 -30c-38 0 -60 -49 -80 -102zM424 1691h97c22 0 30 -22 18 -45l-88 -166c-14 -25 -26 -29 -42 -29h-77c-17 0 -31 18 -20 45l76 166c9 23 18 29 36 29z" />
    <glyph glyph-name="afii10062" unicode="&#x40e;" horiz-adv-x="649" 
d="M533 1382h119c31 0 29 -23 23 -47l-248 -932h1l-63 -207c-53 -171 -187 -205 -262 -205c-15 0 -31 8 -31 28v102c0 18 11 32 24 33c59 4 109 36 127 128l44 168l-243 888c-6 26 2 44 24 44h119c20 0 32 -13 37 -33l140 -680l152 681c4 22 18 32 37 32zM533 1644
c0 -122 -88 -189 -195 -189s-196 68 -196 189c0 21 13 33 26 33h52c13 0 25 -7 25 -27c0 -40 24 -96 95 -96s94 55 94 96c0 19 10 27 23 27h50c17 0 26 -12 26 -33z" />
    <glyph glyph-name="afii10066" unicode="&#x431;" 
d="M237 756v-488c0 -67 55 -127 128 -127c74 0 127 60 127 127v487c0 68 -54 128 -127 128c-74 0 -128 -60 -128 -127zM592 1408c5 2 11 3 16 3c9 0 17 -4 20 -15l11 -92c2 -8 1 -23 -25 -35c-29 -19 -66 -23 -107 -23c-30 0 -62 2 -94 2c-95 0 -187 -33 -187 -227v-84
c30 57 85 105 161 105c148 0 285 -118 285 -282v-496c0 -164 -137 -282 -308 -282c-169 0 -306 118 -306 282v758c0 259 131 367 297 367c42 0 77 -1 107 -1c51 0 89 3 130 20z" />
    <glyph glyph-name="afii10067" unicode="&#x432;" horiz-adv-x="690" 
d="M467 241v111c0 87 -43 121 -93 121h-131v-346h117c48 0 107 29 107 114zM450 694v104c0 79 -58 99 -102 99h-105v-301h109c42 0 98 18 98 98zM619 815v-119c0 -86 -43 -130 -78 -153c40 -17 95 -80 95 -177v-149c0 -146 -113 -217 -226 -217h-309c-18 0 -28 12 -28 32
v958c0 21 10 34 32 34h294c110 0 220 -66 220 -209z" />
    <glyph glyph-name="afii10068" unicode="&#x433;" horiz-adv-x="564" 
d="M111 1024h409c25 0 31 -13 31 -34v-90c0 -21 -18 -33 -31 -33h-260v-839c0 -13 -6 -28 -23 -28h-136c-16 0 -22 16 -22 27v959c0 26 9 38 32 38z" />
    <glyph glyph-name="afii10071" unicode="&#x451;" horiz-adv-x="709" 
d="M368 886c-74 0 -130 -59 -130 -127v-155h254v155c0 68 -51 127 -124 127zM655 300v-36c0 -156 -119 -282 -291 -282c-169 0 -306 126 -306 282v496c0 156 137 282 306 282c172 0 293 -126 293 -282v-252c0 -19 -13 -31 -31 -31h-388v-213c0 -67 56 -126 130 -126
c75 0 124 61 124 128v36c0 16 12 24 26 24h114c12 0 23 -4 23 -26zM198 1161v86c0 20 11 34 31 34h82c17 0 29 -12 29 -35v-84c0 -26 -14 -33 -29 -33h-82c-15 0 -31 9 -31 32zM547 1246v-84c0 -26 -15 -33 -29 -33h-83c-15 0 -31 9 -31 32v86c0 20 11 34 32 34h82
c17 0 29 -12 29 -35z" />
    <glyph glyph-name="afii10073" unicode="&#x437;" horiz-adv-x="630" 
d="M236 -14c-114 0 -181 61 -218 135c-9 18 -15 36 2 50l47 62c6 5 11 7 17 7c7 0 15 -5 21 -14c31 -61 62 -85 111 -85h84c65 0 108 29 108 120v77c0 84 -31 123 -97 123h-114c-20 0 -26 17 -26 33v78c0 24 20 30 29 30h112c65 0 93 22 93 107v69c0 52 -39 103 -100 103
h-77c-52 0 -82 -16 -112 -69c-4 -8 -15 -15 -26 -15c-5 0 -10 2 -14 5l-52 72c-13 13 -14 25 4 48c51 94 125 116 210 116h97c137 0 245 -96 245 -239v-97c0 -90 -29 -145 -68 -165c45 -20 74 -71 74 -156v-125c0 -209 -116 -270 -256 -270h-94z" />
    <glyph glyph-name="afii10074" unicode="&#x438;" horiz-adv-x="705" 
d="M637 997l1 -968c0 -17 -7 -29 -24 -29h-115c-17 0 -24 12 -24 30l7 635l-233 -641c-7 -18 -15 -24 -28 -24h-123c-16 0 -28 9 -28 29l-1 963c0 20 10 32 27 32h112c15 0 25 -13 25 -31l-8 -638l239 649c6 16 13 20 21 20h129c9 0 23 -10 23 -27z" />
    <glyph glyph-name="afii10076" unicode="&#x43a;" horiz-adv-x="736" 
d="M672 0h-112c-18 0 -26 6 -35 29l-165 408c-10 -28 -64 -78 -101 -91v-306c0 -20 -7 -40 -32 -40h-119c-30 0 -30 23 -30 38v948c0 26 16 38 32 38h113c32 0 36 -24 36 -40v-433c24 10 69 52 89 106l86 242c35 101 86 132 197 132c19 0 27 -18 27 -32v-113
c0 -16 -9 -26 -23 -26c-31 0 -47 -16 -64 -65l-85 -241l211 -500c10 -24 -3 -54 -25 -54z" />
    <glyph glyph-name="afii10077" unicode="&#x43b;" horiz-adv-x="740" 
d="M678 993v-962c0 -19 -5 -31 -24 -31h-132c-18 0 -25 12 -25 31v830h-226v-633c0 -159 -104 -240 -229 -240c-39 0 -43 18 -43 30v89c0 13 3 33 25 33c44 0 66 29 66 123v731c0 20 9 30 23 30h543c11 0 22 -12 22 -31z" />
    <glyph glyph-name="el.alt" horiz-adv-x="577" 
d="M553 0h-126c-15 0 -27 9 -30 28l-114 760l-114 -757c-3 -20 -14 -31 -32 -31h-114c-21 0 -31 16 -25 47l195 949c3 19 13 28 30 28h114c18 0 28 -8 32 -27l203 -953c7 -29 2 -44 -19 -44z" />
    <glyph glyph-name="afii10078" unicode="&#x43c;" horiz-adv-x="825" 
d="M422 463l154 535c4 15 11 26 22 26h147c13 0 25 -13 25 -30v-962c0 -19 -10 -32 -23 -32h-105c-15 0 -26 10 -25 30l8 651l2 69l-14 -68l-128 -486c-5 -20 -9 -29 -24 -29h-101c-12 0 -19 6 -23 28l-126 489l-14 83l2 -85l9 -652c1 -20 -8 -30 -23 -30h-105
c-16 0 -26 13 -26 32l1 961c1 18 12 31 24 31h150c10 0 21 -9 24 -26l148 -535l10 -86z" />
    <glyph glyph-name="afii10079" unicode="&#x43d;" horiz-adv-x="726" 
d="M510 1024h118c15 0 25 -12 25 -31v-962c0 -19 -8 -31 -24 -31h-119c-16 0 -26 12 -26 31v413h-242v-413c0 -19 -10 -31 -25 -31h-120c-15 0 -24 12 -24 30v963c0 20 12 31 24 31h119c14 0 26 -12 26 -31v-402h242v402c0 20 13 31 26 31z" />
    <glyph glyph-name="afii10081" unicode="&#x43f;" horiz-adv-x="774" 
d="M671 0h-131c-16 0 -26 12 -26 31v836h-252v-836c0 -19 -8 -31 -25 -31h-131c-18 0 -25 12 -25 31v962c0 20 15 31 25 31h565c14 0 24 -13 24 -29v-964c0 -19 -8 -31 -24 -31z" />
    <glyph glyph-name="afii10085" unicode="&#x443;" horiz-adv-x="763" 
d="M506 344v642c0 26 23 38 33 38h120c14 0 27 -12 27 -32v-993c0 -198 -122 -317 -312 -317c-111 0 -206 35 -261 83c-15 12 -19 30 -9 44l36 79c5 8 12 11 19 11s15 -4 22 -10c36 -31 106 -59 166 -59c84 0 159 48 159 169v105c-50 -37 -108 -59 -166 -59
c-159 0 -269 119 -269 289v659c0 20 13 31 27 31h127c13 0 26 -11 26 -31v-663c2 -66 50 -125 128 -125c69 0 127 66 127 139z" />
    <glyph glyph-name="afii10086" unicode="&#x444;" horiz-adv-x="874" 
d="M347 142v738h-25c-56 -9 -100 -61 -100 -120v-496c0 -64 49 -117 114 -122h11zM533 882h-5v-740h5c69 0 124 55 124 122v495c0 68 -55 123 -124 123zM503 -311h-132c-15 0 -24 12 -24 31v261h-3c-161 1 -290 127 -290 283v496c0 155 127 281 287 282h6v255
c0 16 11 31 24 31h132c17 0 25 -14 25 -31v-255h4c162 0 293 -126 293 -282v-496c0 -156 -131 -283 -292 -283h-5v-261c0 -19 -8 -31 -25 -31z" />
    <glyph glyph-name="afii10089" unicode="&#x447;" horiz-adv-x="670" 
d="M457 1024h131c18 0 25 -14 25 -34v-959c0 -20 -7 -31 -26 -31h-129c-17 0 -26 11 -26 32v398c-38 -50 -89 -79 -159 -79c-82 0 -222 49 -228 286v354c0 17 6 33 25 33h131c18 0 25 -14 25 -33v-341c0 -78 25 -135 94 -135c56 0 112 32 112 156v319c0 20 7 34 25 34z" />
    <glyph glyph-name="afii10090" unicode="&#x448;" horiz-adv-x="1057" 
d="M826 1024h130c18 0 25 -14 25 -32v-964c0 -16 -10 -28 -21 -28h-860c-12 0 -22 11 -22 27v965c0 19 7 32 25 32h131c18 0 25 -13 25 -32v-822h181v822c0 19 8 32 26 32h130c19 0 25 -14 25 -32v-822h179v822c0 18 7 32 26 32z" />
    <glyph glyph-name="afii10092" unicode="&#x44a;" horiz-adv-x="681" 
d="M473 252v191c0 99 -69 112 -110 112h-72v-419h71c44 0 111 17 111 116zM290 993v-302h120c113 0 232 -63 232 -241v-208c0 -182 -108 -242 -231 -242h-254c-36 0 -48 17 -48 56v823h-72c-14 0 -25 13 -25 29v87c0 18 12 29 25 29h229c16 0 24 -13 24 -31z" />
    <glyph glyph-name="afii10093" unicode="&#x44b;" horiz-adv-x="951" 
d="M420 252v191c0 99 -74 112 -115 112h-52v-419h51c45 0 116 17 116 116zM72 56v937c0 20 13 31 24 31h132c15 0 25 -13 25 -31v-302h103c113 0 233 -63 233 -241v-208c0 -182 -108 -242 -231 -242h-238c-36 0 -48 17 -48 56zM878 996v-965c0 -19 -12 -31 -33 -31h-118
c-20 0 -30 12 -30 31v965c0 15 12 28 30 28h118c19 0 33 -15 33 -28z" />
    <glyph glyph-name="afii10094" unicode="&#x44c;" horiz-adv-x="624" 
d="M420 252v191c0 99 -74 112 -115 112h-52v-419h51c45 0 116 17 116 116zM72 56v937c0 20 13 31 24 31h132c15 0 25 -13 25 -31v-302h103c113 0 233 -63 233 -241v-208c0 -182 -108 -242 -231 -242h-238c-36 0 -48 17 -48 56z" />
    <glyph glyph-name="afii10095" unicode="&#x44d;" horiz-adv-x="702" 
d="M479 268v185h-244c-14 0 -27 13 -27 29v59c0 18 15 29 27 29h244v186c0 67 -55 126 -129 126c-75 0 -125 -60 -125 -127v-43c0 -27 -12 -32 -33 -32h-109c-15 0 -25 5 -25 32v48c0 156 123 282 296 282c169 0 305 -126 305 -281v-497c0 -164 -136 -282 -305 -282
c-173 0 -296 126 -296 282v42c0 24 10 31 26 31h113c17 0 28 -7 28 -33v-35c0 -67 50 -128 125 -128c74 0 129 60 129 127z" />
    <glyph glyph-name="afii10096" unicode="&#x44e;" horiz-adv-x="1046" 
d="M544 756v-488c0 -67 54 -127 127 -127c74 0 127 60 127 127v487c0 68 -53 128 -127 128s-127 -60 -127 -127zM669 1042c172 0 309 -118 309 -282v-496c0 -164 -137 -282 -308 -282c-169 0 -306 118 -306 282v178h-105v-411c0 -19 -8 -31 -24 -31h-131
c-18 0 -25 12 -25 31v962c0 20 12 31 24 31h132c14 0 24 -12 24 -31v-394h105v161c0 157 137 282 305 282z" />
    <glyph glyph-name="afii10098" unicode="&#x491;" horiz-adv-x="566" 
d="M393 1024v155c0 18 12 30 26 30h105c16 0 25 -13 25 -30v-279c0 -21 -17 -33 -28 -33h-262v-836c0 -18 -7 -31 -23 -31h-136c-20 0 -22 16 -22 30v955c0 27 8 39 30 39h285z" />
    <glyph glyph-name="afii10097" unicode="&#x44f;" horiz-adv-x="719" 
d="M355 484h138v408h-143c-46 0 -108 -44 -108 -111v-171c0 -102 69 -126 113 -126zM629 0h-107c-16 0 -29 11 -29 39v312h-167l-83 -325c-4 -15 -6 -26 -24 -26h-125c-16 0 -25 21 -21 38l102 355c-59 40 -102 107 -102 202v182c0 135 106 247 253 247h306
c19 0 29 -15 29 -35v-947c0 -29 -10 -42 -32 -42z" />
    <glyph glyph-name="afii10100" unicode="&#x453;" horiz-adv-x="564" 
d="M111 1024h409c25 0 31 -13 31 -34v-90c0 -21 -18 -33 -31 -33h-260v-839c0 -13 -6 -28 -23 -28h-136c-16 0 -22 16 -22 27v959c0 26 9 38 32 38zM369 1338h97c22 0 30 -22 18 -45l-88 -166c-14 -25 -26 -29 -42 -29h-77c-17 0 -31 18 -20 45l76 166c9 23 18 29 36 29z
" />
    <glyph glyph-name="afii10099" unicode="&#x452;" horiz-adv-x="763" 
d="M388 882c-75 0 -127 -67 -129 -138v-711c0 -18 -10 -33 -37 -33h-114c-20 0 -29 10 -29 30v1108h-73c-7 0 -19 8 -19 25v59c0 18 10 27 20 27h72v103c0 19 10 31 29 31h122c19 0 29 -12 29 -31v-103h104c10 0 18 -9 18 -26v-60c0 -14 -8 -25 -18 -25h-104v-158
c49 38 108 62 172 62c151 0 262 -120 262 -288v-851c0 -154 -81 -217 -238 -217c-19 0 -35 16 -35 30v80c0 10 3 31 25 31c48 0 68 19 68 82v849c-3 65 -52 124 -125 124z" />
    <glyph glyph-name="afii10101" unicode="&#x454;" horiz-adv-x="702" 
d="M492 304c0 26 10 33 28 33h113c16 0 26 -7 26 -31v-42c0 -156 -124 -282 -296 -282c-168 0 -305 118 -305 282v497c0 155 137 281 305 281c172 0 296 -126 296 -282v-48c0 -27 -9 -32 -25 -32h-109c-22 0 -33 5 -33 32v43c0 67 -50 127 -125 127
c-74 0 -130 -59 -130 -126v-186h244c13 0 27 -11 27 -29v-59c0 -16 -12 -29 -26 -29h-245v-185c0 -67 56 -127 130 -127c75 0 125 61 125 128v35z" />
    <glyph glyph-name="afii10103" unicode="&#x456;" horiz-adv-x="339" 
d="M79 31v965c0 15 12 28 30 28h118c19 0 33 -15 33 -28v-965c0 -19 -12 -31 -33 -31h-118c-20 0 -30 12 -30 31zM268 1261v-103c0 -29 -15 -38 -40 -38h-118c-28 0 -44 10 -44 37v105c0 24 11 41 43 41h119c29 0 40 -15 40 -42z" />
    <glyph glyph-name="afii10105" unicode="&#x458;" horiz-adv-x="338" 
d="M259 993v-1045c0 -160 -125 -289 -334 -289c-20 0 -36 12 -36 29v99c0 20 9 33 33 33c92 0 157 58 157 156v1020c0 18 15 28 29 28h119c16 0 32 -11 32 -31zM267 1261v-103c0 -29 -14 -38 -39 -38h-120c-26 0 -42 10 -42 37v105c0 24 11 41 43 41h119c29 0 39 -15 39 -42
z" />
    <glyph glyph-name="afii10106" unicode="&#x459;" horiz-adv-x="1036" 
d="M664 555v-419h74c45 0 111 17 111 116v191c0 99 -70 112 -110 112h-75zM1008 450v-208c0 -182 -108 -242 -231 -242h-253c-35 0 -47 17 -47 56v805h-207v-633c0 -159 -102 -240 -227 -240c-39 0 -44 18 -44 30v89c0 13 2 33 27 33c48 0 64 52 64 163v691
c0 19 10 30 24 30h526c15 0 23 -13 23 -31v-302h113c112 0 232 -63 232 -241z" />
    <glyph glyph-name="afii10107" unicode="&#x45a;" horiz-adv-x="1065" 
d="M766 511h-75v-375h74c45 0 112 17 112 116v147c0 99 -70 112 -111 112zM805 0h-253c-35 0 -48 17 -48 56v427h-245v-452c0 -19 -11 -31 -24 -31h-134c-16 0 -24 12 -24 30v963c0 20 12 31 24 31h132c13 0 26 -13 26 -31v-362h245v362c0 20 11 31 20 31h143
c16 0 24 -13 24 -31v-346h113c112 0 232 -63 232 -241v-164c0 -182 -108 -242 -231 -242z" />
    <glyph glyph-name="afii10110" unicode="&#x45e;" horiz-adv-x="763" 
d="M506 344v642c0 26 23 38 33 38h120c14 0 27 -12 27 -32v-993c0 -198 -122 -317 -312 -317c-111 0 -206 35 -261 83c-15 12 -19 30 -9 44l36 79c5 8 12 11 19 11s15 -4 22 -10c36 -31 106 -59 166 -59c84 0 159 48 159 169v105c-50 -37 -108 -59 -166 -59
c-159 0 -269 119 -269 289v659c0 20 13 31 27 31h127c13 0 26 -11 26 -31v-663c2 -66 50 -125 128 -125c69 0 127 66 127 139zM581 1302c0 -122 -88 -189 -195 -189s-196 68 -196 189c0 21 13 33 26 33h52c13 0 25 -7 25 -27c0 -40 24 -96 95 -96s94 55 94 96
c0 19 10 27 23 27h50c17 0 26 -12 26 -33z" />
    <glyph glyph-name="afii10108" unicode="&#x45b;" horiz-adv-x="763" 
d="M259 1160v-180c49 38 108 62 172 62c151 0 262 -120 262 -288v-723c0 -20 -13 -31 -26 -31h-127c-13 0 -27 11 -27 31v722c0 67 -50 129 -125 129s-127 -67 -129 -138v-711c0 -18 -10 -33 -37 -33h-114c-20 0 -29 10 -29 30v1130h-54c-5 0 -17 8 -17 29v64
c0 22 12 31 17 31h54v68c0 19 10 31 29 31h122c19 0 29 -12 29 -31v-68h115c9 0 17 -8 17 -29v-66c0 -17 -8 -29 -18 -29h-114z" />
    <glyph glyph-name="afii10145" unicode="&#x40f;" horiz-adv-x="916" 
d="M637 1382h122c23 0 27 -17 27 -37v-1345h-248v-291c0 -22 -9 -34 -29 -34h-119c-20 0 -28 13 -28 34v291h-231c-14 0 -22 9 -22 33v1313c0 20 8 36 28 36h120c20 0 28 -14 28 -36v-1178h325v1178c0 20 7 36 27 36z" />
    <glyph glyph-name="afii10147" unicode="&#x472;" horiz-adv-x="843" 
d="M590 314v248l-329 98v-346c0 -89 70 -163 164 -163c96 0 165 74 165 163zM261 1067v-247l329 -100v347c0 89 -71 166 -164 166c-94 0 -165 -77 -165 -166zM766 1076v-770c0 -197 -155 -327 -341 -327s-339 133 -339 327v770c0 197 153 328 340 328
c185 0 340 -131 340 -328z" />
    <glyph glyph-name="afii10146" unicode="&#x462;" horiz-adv-x="631" 
d="M312 610h-56v-463h56c51 0 113 23 113 139v187c0 112 -62 137 -113 137zM256 1354v-163h56c8 0 19 -6 19 -22v-117c0 -13 -8 -22 -19 -22h-56v-274h96c133 0 241 -88 241 -253v-256c0 -157 -109 -247 -231 -247h-251c-18 0 -24 12 -24 29v1001h-52c-8 0 -20 5 -20 22v115
c0 16 8 24 21 24h51v163c0 17 9 29 24 29h122c14 0 23 -12 23 -29z" />
    <glyph glyph-name="afii10193" unicode="&#x45f;" horiz-adv-x="661" 
d="M480 1024h106c17 0 25 -12 25 -33v-962c0 -22 -11 -29 -21 -29h-183v-213c0 -20 -7 -35 -27 -35h-99c-17 0 -29 12 -29 35v213h-177c-13 0 -20 10 -20 35v958c0 19 7 31 24 31h105c18 0 25 -11 25 -32v-846h248v846c0 20 5 32 23 32z" />
    <glyph glyph-name="afii10194" unicode="&#x463;" horiz-adv-x="601" 
d="M416 247v183c0 95 -67 107 -105 107h-44v-401h43c43 0 106 17 106 111zM339 1033h-66v-360h85c110 0 226 -63 226 -236v-201c0 -177 -103 -236 -224 -236h-215c-34 0 -46 17 -46 55v978h-37c-9 0 -21 6 -21 23v115c0 15 8 24 22 24h36v158c0 19 9 30 24 30h125
c17 0 25 -12 25 -30v-158h66c8 0 18 -7 18 -22v-117c0 -14 -8 -23 -18 -23z" />
    <glyph glyph-name="afii10196" unicode="&#x475;" horiz-adv-x="664" 
d="M341 315l8 -74l9 74l150 683c4 19 18 26 34 26h122c25 0 32 -19 25 -45l-245 -953c-5 -20 -16 -26 -30 -26h-130c-15 0 -25 8 -29 26l-245 953c-7 30 6 45 24 45h124c18 0 30 -9 33 -28z" />
    <glyph glyph-name="afii10846" unicode="&#x4d9;" horiz-adv-x="676" 
d="M458 260v160h-243v-159c0 -68 50 -123 119 -123c68 0 124 55 124 122zM86 547h372v217c0 67 -56 122 -124 122c-70 0 -119 -56 -119 -123v-41c0 -16 -12 -24 -24 -24h-110c-12 0 -22 4 -22 26v36c0 156 113 282 276 282c161 0 290 -126 290 -282v-496
c0 -156 -129 -282 -290 -282c-163 0 -278 126 -278 282v252c0 19 12 31 29 31z" />
    <glyph glyph-name="Eng" unicode="&#x14a;" horiz-adv-x="863" 
d="M587 -47v1115c0 88 -65 164 -156 164c-90 0 -155 -76 -155 -164v-1032c0 -20 -7 -36 -28 -36h-133c-15 0 -27 15 -27 36v1041c0 181 157 327 343 327s344 -146 344 -327v-1117c0 -193 -166 -326 -336 -326c-97 0 -181 39 -239 97c-9 9 -22 36 -7 52l60 64
c7 7 14 10 22 10c9 0 18 -4 27 -13c27 -27 69 -50 128 -50c91 0 157 68 157 159z" />
    <glyph glyph-name="eng" unicode="&#x14b;" horiz-adv-x="765" 
d="M689 754v-789c0 -160 -120 -289 -317 -289c-20 0 -35 13 -35 29v99c0 21 9 34 32 34c84 0 140 57 140 156v756c0 69 -46 133 -127 133c-75 0 -126 -58 -128 -129v-722c0 -20 -12 -32 -26 -32h-127c-13 0 -27 12 -27 32v722c0 154 127 288 303 288
c197 0 312 -131 312 -288z" />
    <glyph glyph-name="afii10031" unicode="&#x41d;" horiz-adv-x="899" 
d="M640 1383h128c17 0 30 -11 30 -35v-1313c0 -22 -9 -35 -31 -35h-127c-20 0 -30 13 -30 35v584h-321v-583c0 -22 -9 -36 -30 -36h-129c-21 0 -30 14 -30 36v1311c0 21 10 36 30 36h129c20 0 30 -15 30 -36v-556h321v556c0 19 8 36 30 36z" />
    <glyph glyph-name="afii10070" unicode="&#x435;" horiz-adv-x="709" 
d="M368 886c-74 0 -130 -59 -130 -127v-155h254v155c0 68 -51 127 -124 127zM655 300v-36c0 -156 -119 -282 -291 -282c-169 0 -306 126 -306 282v496c0 156 137 282 306 282c172 0 293 -126 293 -282v-252c0 -19 -13 -31 -31 -31h-388v-213c0 -67 56 -126 130 -126
c75 0 124 61 124 128v36c0 16 12 24 26 24h114c12 0 23 -4 23 -26z" />
    <glyph glyph-name="ebreve" unicode="&#x115;" horiz-adv-x="709" 
d="M368 886c-74 0 -130 -59 -130 -127v-155h254v155c0 68 -51 127 -124 127zM655 300v-36c0 -156 -119 -282 -291 -282c-169 0 -306 126 -306 282v496c0 156 137 282 306 282c172 0 293 -126 293 -282v-252c0 -19 -13 -31 -31 -31h-388v-213c0 -67 56 -126 130 -126
c75 0 124 61 124 128v36c0 16 12 24 26 24h114c12 0 23 -4 23 -26zM557 1340c0 -122 -88 -189 -195 -189s-196 68 -196 189c0 21 13 33 26 33h52c13 0 25 -7 25 -27c0 -40 24 -96 95 -96s94 55 94 96c0 19 10 27 23 27h50c17 0 26 -12 26 -33z" />
    <glyph glyph-name="ecaron" unicode="&#x11b;" horiz-adv-x="709" 
d="M368 886c-74 0 -130 -59 -130 -127v-155h254v155c0 68 -51 127 -124 127zM655 300v-36c0 -156 -119 -282 -291 -282c-169 0 -306 126 -306 282v496c0 156 137 282 306 282c172 0 293 -126 293 -282v-252c0 -19 -13 -31 -31 -31h-388v-213c0 -67 56 -126 130 -126
c75 0 124 61 124 128v36c0 16 12 24 26 24h114c12 0 23 -4 23 -26zM286 1351l82 -95l95 111c9 10 17 15 27 15c4 0 9 0 13 -2l67 -1c9 -2 15 -19 1 -35l-151 -168c-6 -7 -14 -10 -23 -10h-60c-11 0 -18 6 -21 10l-148 163c-14 16 -7 33 1 35l73 1c3 2 7 3 10 3
c14 0 25 -16 34 -27z" />
    <glyph glyph-name="ecircumflex" unicode="&#xea;" horiz-adv-x="709" 
d="M368 886c-74 0 -130 -59 -130 -127v-155h254v155c0 68 -51 127 -124 127zM655 300v-36c0 -156 -119 -282 -291 -282c-169 0 -306 126 -306 282v496c0 156 137 282 306 282c172 0 293 -126 293 -282v-252c0 -19 -13 -31 -31 -31h-388v-213c0 -67 56 -126 130 -126
c75 0 124 61 124 128v36c0 16 12 24 26 24h114c12 0 23 -4 23 -26zM574 1116l-66 -1c-4 -2 -9 -2 -13 -2c-10 0 -19 5 -28 15l-94 111l-82 -95c-9 -11 -20 -27 -34 -27c-3 0 -6 1 -10 3l-73 1c-8 2 -15 18 -1 34l148 164c3 4 10 10 21 10h60c9 0 17 -4 22 -10l151 -169
c14 -15 8 -32 -1 -34z" />
    <glyph glyph-name="ccaron" unicode="&#x10d;" horiz-adv-x="702" 
d="M520 350h113c16 0 26 -6 26 -31v-55c0 -156 -124 -282 -296 -282c-168 0 -305 118 -305 282v497c0 155 137 281 305 281c172 0 296 -126 296 -282v-66c0 -27 -9 -32 -25 -32h-109c-22 0 -33 5 -33 32v61c0 67 -50 127 -125 127c-74 0 -130 -59 -130 -126v-488
c0 -67 56 -127 130 -127c75 0 125 61 125 128v49c0 25 10 32 28 32zM382 1219l95 111c9 10 17 15 27 15c4 0 9 0 13 -2l67 -1c9 -2 15 -19 1 -35l-151 -168c-6 -7 -14 -10 -23 -10h-60c-11 0 -18 6 -21 10l-148 163c-14 16 -7 33 1 35l73 1c3 2 7 3 10 3c14 0 25 -16 34 -27
z" />
    <glyph glyph-name="edieresis" unicode="&#xeb;" horiz-adv-x="709" 
d="M368 886c-74 0 -130 -59 -130 -127v-155h254v155c0 68 -51 127 -124 127zM655 300v-36c0 -156 -119 -282 -291 -282c-169 0 -306 126 -306 282v496c0 156 137 282 306 282c172 0 293 -126 293 -282v-252c0 -19 -13 -31 -31 -31h-388v-213c0 -67 56 -126 130 -126
c75 0 124 61 124 128v36c0 16 12 24 26 24h114c12 0 23 -4 23 -26zM189 1191v86c0 20 11 34 31 34h82c17 0 29 -12 29 -35v-84c0 -26 -14 -33 -29 -33h-82c-15 0 -31 9 -31 32zM538 1276v-84c0 -26 -15 -33 -29 -33h-83c-15 0 -31 9 -31 32v86c0 20 11 34 32 34h82
c17 0 29 -12 29 -35z" />
    <glyph glyph-name="edotaccent" unicode="&#x117;" horiz-adv-x="709" 
d="M368 886c-74 0 -130 -59 -130 -127v-155h254v155c0 68 -51 127 -124 127zM655 300v-36c0 -156 -119 -282 -291 -282c-169 0 -306 126 -306 282v496c0 156 137 282 306 282c172 0 293 -126 293 -282v-252c0 -19 -13 -31 -31 -31h-388v-213c0 -67 56 -126 130 -126
c75 0 124 61 124 128v36c0 16 12 24 26 24h114c12 0 23 -4 23 -26zM439 1292v-93c0 -28 -15 -37 -32 -37h-96c-16 0 -34 11 -34 37v94c0 22 13 38 34 38h96c19 0 32 -14 32 -39z" />
    <glyph glyph-name="abreve" unicode="&#x103;" horiz-adv-x="727" 
d="M490 275v215h-79c-145 0 -187 -80 -187 -174v-20c0 -113 81 -155 140 -155c54 0 126 36 126 134zM355 622h135v112c0 65 -42 160 -152 160c-87 0 -134 -33 -173 -66c-8 -6 -16 -9 -24 -9c-7 0 -14 3 -19 12l-33 72c-8 16 -9 34 17 51c61 43 128 88 259 88
c167 0 305 -121 305 -295v-480c0 -223 -206 -285 -307 -285c-142 0 -320 89 -320 311v24c0 201 135 307 312 305zM595 1317c0 -122 -88 -189 -195 -189s-196 68 -196 189c0 21 13 33 26 33h52c13 0 25 -7 25 -27c0 -40 24 -96 95 -96s94 55 94 96c0 19 10 27 23 27h50
c17 0 26 -12 26 -33z" />
    <glyph glyph-name="acircumflex" unicode="&#xe2;" horiz-adv-x="727" 
d="M490 275v215h-79c-145 0 -187 -80 -187 -174v-20c0 -113 81 -155 140 -155c54 0 126 36 126 134zM355 622h135v112c0 65 -42 160 -152 160c-87 0 -134 -33 -173 -66c-8 -6 -16 -9 -24 -9c-7 0 -14 3 -19 12l-33 72c-8 16 -9 34 17 51c61 43 128 88 259 88
c167 0 305 -121 305 -295v-480c0 -223 -206 -285 -307 -285c-142 0 -320 89 -320 311v24c0 201 135 307 312 305zM591 1119l-66 -1c-4 -2 -9 -2 -13 -2c-10 0 -19 5 -28 15l-94 111l-82 -95c-9 -11 -20 -27 -34 -27c-3 0 -6 1 -10 3l-73 1c-8 2 -15 18 -1 34l148 164
c3 4 10 10 21 10h60c9 0 17 -4 22 -10l151 -169c14 -15 8 -32 -1 -34z" />
    <glyph glyph-name="adieresis" unicode="&#xe4;" horiz-adv-x="727" 
d="M490 275v215h-79c-145 0 -187 -80 -187 -174v-20c0 -113 81 -155 140 -155c54 0 126 36 126 134zM355 622h135v112c0 65 -42 160 -152 160c-87 0 -134 -33 -173 -66c-8 -6 -16 -9 -24 -9c-7 0 -14 3 -19 12l-33 72c-8 16 -9 34 17 51c61 43 128 88 259 88
c167 0 305 -121 305 -295v-480c0 -223 -206 -285 -307 -285c-142 0 -320 89 -320 311v24c0 201 135 307 312 305zM220 1160v86c0 20 11 34 31 34h82c17 0 29 -12 29 -35v-84c0 -26 -14 -33 -29 -33h-82c-15 0 -31 9 -31 32zM569 1245v-84c0 -26 -15 -33 -29 -33h-83
c-15 0 -31 9 -31 32v86c0 20 11 34 32 34h82c17 0 29 -12 29 -35z" />
    <glyph glyph-name="Nacute" unicode="&#x143;" horiz-adv-x="862" 
d="M746 0h-130c-21 0 -29 18 -29 38v1030c0 88 -65 164 -156 164c-90 0 -155 -76 -155 -164v-1032c0 -20 -7 -36 -28 -36h-136c-14 0 -24 15 -24 36v1041c0 181 157 327 343 327s344 -146 344 -327v-1039c0 -19 -8 -38 -29 -38zM516 1687h97c22 0 30 -22 18 -45l-88 -166
c-14 -25 -26 -29 -42 -29h-77c-17 0 -31 18 -20 45l76 166c9 23 18 29 36 29z" />
    <glyph glyph-name="Sacute" unicode="&#x15a;" horiz-adv-x="791" 
d="M548 1005v58c0 87 -53 170 -152 170c-64 0 -157 -42 -157 -180c0 -123 93 -184 178 -253c191 -157 328 -245 328 -494c0 -173 -142 -327 -345 -327c-200 0 -336 142 -336 341v52c0 26 5 40 30 40h118c23 0 30 -11 30 -36v-47c0 -133 93 -178 159 -178
c89 0 164 68 164 164c0 129 -60 179 -215 308c-177 144 -286 222 -286 435c0 271 223 346 331 346c196 0 329 -144 329 -340v-59c0 -25 -7 -36 -34 -36h-115c-22 0 -27 12 -27 36zM475 1731h97c22 0 30 -22 18 -45l-88 -166c-14 -25 -26 -29 -42 -29h-77
c-17 0 -31 18 -20 45l76 166c9 23 18 29 36 29z" />
    <glyph glyph-name="Racute" unicode="&#x154;" horiz-adv-x="863" 
d="M599 888v151c0 102 -61 171 -161 171h-149v-484h137c117 0 173 63 173 162zM741 0h-119c-20 0 -39 13 -39 40v205c0 246 -100 333 -275 333h-19v-544c0 -21 -10 -34 -30 -34h-129c-21 0 -30 13 -30 34v1313c0 21 12 36 32 36h320c197 0 336 -151 336 -344v-136
c0 -131 -72 -219 -167 -270c101 -72 150 -199 150 -413v-182c0 -16 -7 -38 -30 -38zM439 1729h97c22 0 30 -22 18 -45l-88 -166c-14 -25 -26 -29 -42 -29h-77c-17 0 -31 18 -20 45l76 166c9 23 18 29 36 29z" />
    <glyph glyph-name="Wacute" unicode="&#x1e82;" horiz-adv-x="1362" 
d="M1274 1345v-1039c0 -181 -132 -327 -335 -327c-118 0 -204 58 -253 146c-49 -88 -138 -146 -255 -146c-211 0 -343 146 -343 327v1041c0 21 10 36 24 36h136c21 0 28 -16 28 -36v-1032c0 -88 65 -164 155 -164c92 0 156 76 156 164v1032c0 21 10 36 25 36h135
c21 0 28 -16 28 -36v-1032c0 -88 63 -164 156 -164c92 0 155 76 155 164v1030c0 19 8 38 28 38h131c22 0 29 -19 29 -38zM733 1741h97c22 0 30 -22 18 -45l-88 -166c-14 -25 -26 -29 -42 -29h-77c-17 0 -31 18 -20 45l76 166c9 23 18 29 36 29z" />
    <glyph glyph-name="Yacute" unicode="&#xdd;" horiz-adv-x="864" 
d="M604 1383h146c15 0 21 -12 21 -23v-481c0 -163 -108 -280 -250 -316v-526c0 -24 -7 -37 -27 -37h-134c-21 0 -27 15 -27 37v526c-143 36 -250 155 -250 316l1 480c0 12 4 24 22 24h143c15 0 23 -12 23 -23v-473c0 -89 63 -163 154 -163c93 0 157 71 157 159v476
c0 13 7 24 21 24zM501 1696h97c22 0 30 -22 18 -45l-88 -166c-14 -25 -26 -29 -42 -29h-77c-17 0 -31 18 -20 45l76 166c9 23 18 29 36 29z" />
    <glyph glyph-name="Ygrave" unicode="&#x1ef2;" horiz-adv-x="864" 
d="M604 1383h146c15 0 21 -12 21 -23v-481c0 -163 -108 -280 -250 -316v-526c0 -24 -7 -37 -27 -37h-134c-21 0 -27 15 -27 37v526c-143 36 -250 155 -250 316l1 480c0 12 4 24 22 24h143c15 0 23 -12 23 -23v-473c0 -89 63 -163 154 -163c93 0 157 71 157 159v476
c0 13 7 24 21 24zM419 1685l76 -166c11 -26 -3 -44 -20 -44h-77c-16 0 -28 4 -42 29l-88 166c-12 23 -4 45 18 45h97c19 0 27 -6 36 -30z" />
    <glyph glyph-name="Zacute" unicode="&#x179;" horiz-adv-x="685" 
d="M231 178h392c12 0 24 -8 24 -29v-119c0 -21 -12 -30 -24 -30h-565c-14 0 -25 9 -25 30v86c0 11 2 18 6 28l381 1043l13 27h-361c-14 0 -24 10 -24 30v109c0 21 11 30 24 30h535c24 0 30 -9 30 -31v-84c0 -8 -3 -18 -4 -21l-386 -1037zM425 1719h97c22 0 30 -22 18 -45
l-88 -166c-14 -25 -26 -29 -42 -29h-77c-17 0 -31 18 -20 45l76 166c9 23 18 29 36 29z" />
    <glyph glyph-name="Uacute" unicode="&#xda;" horiz-adv-x="863" 
d="M587 315v1030c0 19 8 38 28 38h131c21 0 29 -19 29 -38v-1039c0 -181 -158 -327 -344 -327s-343 146 -343 327v1041c0 21 11 36 25 36h136c21 0 27 -16 27 -36v-1032c0 -88 65 -164 155 -164c91 0 156 76 156 164zM509 1732h97c22 0 30 -22 18 -45l-88 -166
c-14 -25 -26 -29 -42 -29h-77c-17 0 -31 18 -20 45l76 166c9 23 18 29 36 29z" />
    <glyph glyph-name="Ugrave" unicode="&#xd9;" horiz-adv-x="863" 
d="M587 315v1030c0 19 8 38 28 38h131c21 0 29 -19 29 -38v-1039c0 -181 -158 -327 -344 -327s-343 146 -343 327v1041c0 21 11 36 25 36h136c21 0 27 -16 27 -36v-1032c0 -88 65 -164 155 -164c91 0 156 76 156 164zM431 1708l76 -166c11 -26 -3 -44 -20 -44h-77
c-16 0 -28 4 -42 29l-88 166c-12 23 -4 45 18 45h97c19 0 27 -6 36 -30z" />
    <glyph glyph-name="Eacute" unicode="&#xc9;" horiz-adv-x="740" 
d="M289 171h386c14 0 29 -8 29 -28v-112c0 -22 -15 -31 -29 -31h-543c-22 0 -32 14 -32 36v1311c0 21 12 36 32 36h542c14 0 27 -10 27 -32v-110c0 -22 -13 -31 -27 -31h-385v-419h310c14 0 30 -8 30 -30v-110c0 -22 -15 -31 -30 -31h-310v-449zM447 1724h97
c22 0 30 -22 18 -45l-88 -166c-14 -25 -26 -29 -42 -29h-77c-17 0 -31 18 -20 45l76 166c9 23 18 29 36 29z" />
    <glyph glyph-name="Oacute" unicode="&#xd3;" horiz-adv-x="831" 
d="M416 1233c-92 0 -156 -77 -156 -166v-753c0 -89 63 -163 154 -163c93 0 157 71 157 159v757c0 89 -64 166 -155 166zM759 1076v-770c0 -197 -159 -327 -345 -327s-343 133 -343 327v770c0 197 157 328 344 328c185 0 344 -131 344 -328zM470 1750h97c22 0 30 -22 18 -45
l-88 -166c-14 -25 -26 -29 -42 -29h-77c-17 0 -31 18 -20 45l76 166c9 23 18 29 36 29z" />
    <glyph glyph-name="Cacute" unicode="&#x106;" horiz-adv-x="802" 
d="M743 1072v-83c0 -30 -6 -41 -29 -41h-120c-22 0 -28 11 -28 38v81c0 87 -59 166 -149 166c-91 0 -157 -75 -157 -164v-753c0 -89 64 -165 157 -165c94 0 154 76 154 165v100c0 30 8 38 27 38h121c20 0 30 -7 30 -36v-111c0 -198 -149 -328 -334 -328
c-187 0 -344 130 -344 328v769c0 185 146 328 344 328c213 0 328 -160 328 -332zM484 1743h97c22 0 30 -22 18 -45l-88 -166c-14 -25 -26 -29 -42 -29h-77c-17 0 -31 18 -20 45l76 166c9 23 18 29 36 29z" />
    <glyph glyph-name="agrave" unicode="&#xe0;" horiz-adv-x="727" 
d="M490 275v215h-79c-145 0 -187 -80 -187 -174v-20c0 -113 81 -155 140 -155c54 0 126 36 126 134zM355 622h135v112c0 65 -42 160 -152 160c-87 0 -134 -33 -173 -66c-8 -6 -16 -9 -24 -9c-7 0 -14 3 -19 12l-33 72c-8 16 -9 34 17 51c61 43 128 88 259 88
c167 0 305 -121 305 -295v-480c0 -223 -206 -285 -307 -285c-142 0 -320 89 -320 311v24c0 201 135 307 312 305zM386 1340l76 -166c11 -26 -3 -44 -20 -44h-77c-16 0 -28 4 -42 29l-88 166c-12 23 -4 45 18 45h97c19 0 27 -6 36 -30z" />
    <glyph glyph-name="aacute" unicode="&#xe1;" horiz-adv-x="727" 
d="M490 275v215h-79c-145 0 -187 -80 -187 -174v-20c0 -113 81 -155 140 -155c54 0 126 36 126 134zM355 622h135v112c0 65 -42 160 -152 160c-87 0 -134 -33 -173 -66c-8 -6 -16 -9 -24 -9c-7 0 -14 3 -19 12l-33 72c-8 16 -9 34 17 51c61 43 128 88 259 88
c167 0 305 -121 305 -295v-480c0 -223 -206 -285 -307 -285c-142 0 -320 89 -320 311v24c0 201 135 307 312 305zM453 1380h97c22 0 30 -22 18 -45l-88 -166c-14 -25 -26 -29 -42 -29h-77c-17 0 -31 18 -20 45l76 166c9 23 18 29 36 29z" />
    <glyph glyph-name="aeacute" unicode="&#x1fd;" horiz-adv-x="1134" 
d="M492 275v215h-79c-146 0 -176 -80 -176 -174v-37c0 -96 70 -138 129 -138c53 0 126 36 126 134zM674 759v-155h254v155c0 68 -51 127 -124 127c-75 0 -130 -59 -130 -127zM357 622h135v112c0 65 -42 160 -153 160c-87 0 -133 -33 -172 -66c-8 -6 -16 -9 -24 -9
s-15 3 -19 12l-33 72c-9 16 -9 34 16 51c62 43 128 88 260 88c83 0 160 -31 215 -83c55 51 132 83 217 83c172 0 294 -126 294 -282v-252c0 -19 -14 -31 -31 -31h-388v-213c0 -67 55 -126 130 -126c74 0 124 61 124 128v36c0 16 12 24 25 24h114c13 0 24 -4 24 -26v-36
c0 -156 -120 -282 -292 -282c-84 0 -160 31 -215 81c-68 -60 -161 -81 -219 -81c-142 0 -308 89 -308 294v41c0 201 123 307 300 305zM605 1401h97c22 0 30 -22 18 -45l-88 -166c-14 -25 -26 -29 -42 -29h-77c-17 0 -31 18 -20 45l76 166c9 23 18 29 36 29z" />
    <glyph glyph-name="cacute" unicode="&#x107;" horiz-adv-x="702" 
d="M520 350h113c16 0 26 -6 26 -31v-55c0 -156 -124 -282 -296 -282c-168 0 -305 118 -305 282v497c0 155 137 281 305 281c172 0 296 -126 296 -282v-66c0 -27 -9 -32 -25 -32h-109c-22 0 -33 5 -33 32v61c0 67 -50 127 -125 127c-74 0 -130 -59 -130 -126v-488
c0 -67 56 -127 130 -127c75 0 125 61 125 128v49c0 25 10 32 28 32zM424 1376h97c22 0 30 -22 18 -45l-88 -166c-14 -25 -26 -29 -42 -29h-77c-17 0 -31 18 -20 45l76 166c9 23 18 29 36 29z" />
    <glyph glyph-name="iacute" unicode="&#xed;" horiz-adv-x="331" 
d="M256 996v-965c0 -19 -12 -31 -33 -31h-118c-20 0 -30 12 -30 31v965c0 15 12 28 30 28h118c19 0 33 -15 33 -28zM214 1347h97c22 0 30 -22 18 -45l-88 -166c-14 -25 -26 -29 -42 -29h-77c-17 0 -31 18 -20 45l76 166c9 23 18 29 36 29z" />
    <glyph glyph-name="igrave" unicode="&#xec;" horiz-adv-x="331" 
d="M256 996v-965c0 -19 -12 -31 -33 -31h-118c-20 0 -30 12 -30 31v965c0 15 12 28 30 28h118c19 0 33 -15 33 -28zM143 1337l76 -166c11 -26 -3 -44 -20 -44h-77c-16 0 -28 4 -42 29l-88 166c-12 23 -4 45 18 45h97c19 0 27 -6 36 -30z" />
    <glyph glyph-name="Ograve" unicode="&#xd2;" horiz-adv-x="831" 
d="M416 1233c-92 0 -156 -77 -156 -166v-753c0 -89 63 -163 154 -163c93 0 157 71 157 159v757c0 89 -64 166 -155 166zM759 1076v-770c0 -197 -159 -327 -345 -327s-343 133 -343 327v770c0 197 157 328 344 328c185 0 344 -131 344 -328zM399 1714l76 -166
c11 -26 -3 -44 -20 -44h-77c-16 0 -28 4 -42 29l-88 166c-12 23 -4 45 18 45h97c19 0 27 -6 36 -30z" />
    <glyph glyph-name="ncaron" unicode="&#x148;" horiz-adv-x="761" 
d="M662 0h-126c-14 0 -27 11 -27 31v719c0 69 -46 133 -127 133c-75 0 -126 -58 -128 -129v-722c0 -20 -12 -32 -26 -32h-127c-13 0 -27 12 -27 32v722c0 154 127 288 303 288c197 0 312 -131 312 -288v-723c0 -20 -14 -31 -27 -31zM382 1239l95 111c9 10 17 15 27 15
c4 0 9 0 13 -2l67 -1c9 -2 15 -19 1 -35l-151 -168c-6 -7 -14 -10 -23 -10h-60c-11 0 -18 6 -21 10l-148 163c-14 16 -7 33 1 35l73 1c3 2 7 3 10 3c14 0 25 -16 34 -27z" />
    <glyph glyph-name="ubreve" unicode="&#x16d;" horiz-adv-x="765" 
d="M509 269v724c0 20 13 31 27 31h126c13 0 27 -11 27 -31v-723c0 -157 -115 -288 -312 -288c-176 0 -303 134 -303 288v722c0 20 14 32 27 32h127c14 0 26 -12 26 -32v-717c0 -73 51 -134 128 -134c79 0 125 60 127 128zM597 1312c0 -122 -88 -189 -195 -189
s-196 68 -196 189c0 21 13 33 26 33h52c13 0 25 -7 25 -27c0 -40 24 -96 95 -96s94 55 94 96c0 19 10 27 23 27h50c17 0 26 -12 26 -33z" />
    <glyph glyph-name="ucircumflex" unicode="&#xfb;" horiz-adv-x="765" 
d="M509 269v724c0 20 13 31 27 31h126c13 0 27 -11 27 -31v-723c0 -157 -115 -288 -312 -288c-176 0 -303 134 -303 288v722c0 20 14 32 27 32h127c14 0 26 -12 26 -32v-717c0 -73 51 -134 128 -134c79 0 125 60 127 128zM598 1141l-66 -1c-4 -2 -9 -2 -13 -2
c-10 0 -19 5 -28 15l-94 111l-82 -95c-9 -11 -20 -27 -34 -27c-3 0 -6 1 -10 3l-73 1c-8 2 -15 18 -1 34l148 164c3 4 10 10 21 10h60c9 0 17 -4 22 -10l151 -169c14 -15 8 -32 -1 -34z" />
    <glyph glyph-name="udieresis" unicode="&#xfc;" horiz-adv-x="765" 
d="M509 269v724c0 20 13 31 27 31h126c13 0 27 -11 27 -31v-723c0 -157 -115 -288 -312 -288c-176 0 -303 134 -303 288v722c0 20 14 32 27 32h127c14 0 26 -12 26 -32v-717c0 -73 51 -134 128 -134c79 0 125 60 127 128zM567 1241v-84c0 -26 -15 -33 -29 -33h-83
c-15 0 -31 9 -31 32v86c0 20 11 34 32 34h82c17 0 29 -12 29 -35zM218 1156v86c0 20 11 34 31 34h82c17 0 29 -12 29 -35v-84c0 -26 -14 -33 -29 -33h-82c-15 0 -31 9 -31 32z" />
    <glyph glyph-name="uhungarumlaut" unicode="&#x171;" horiz-adv-x="765" 
d="M509 269v724c0 20 13 31 27 31h126c13 0 27 -11 27 -31v-723c0 -157 -115 -288 -312 -288c-176 0 -303 134 -303 288v722c0 20 14 32 27 32h127c14 0 26 -12 26 -32v-717c0 -73 51 -134 128 -134c79 0 125 60 127 128zM573 1346h97c21 0 30 -22 18 -45l-88 -166
c-14 -25 -26 -29 -42 -29h-77c-18 0 -31 17 -20 44l76 166c9 24 17 30 36 30zM267 1106h-77c-18 0 -31 17 -20 44l76 166c9 24 17 30 35 30h98c21 0 30 -22 18 -45l-88 -166c-14 -25 -27 -29 -42 -29z" />
    <glyph glyph-name="rcaron" unicode="&#x159;" horiz-adv-x="520" 
d="M512 1002v-92c0 -25 -22 -33 -43 -33c-23 1 -42 1 -64 1c-100 0 -162 -76 -162 -176v-662c0 -28 -22 -40 -36 -40h-117c-14 0 -26 12 -26 32v692c0 225 175 318 312 318c43 0 80 0 107 -6c19 -4 29 -16 29 -34zM339 1222l95 111c9 10 17 15 27 15c4 0 9 0 13 -2l67 -1
c9 -2 15 -19 1 -35l-151 -168c-6 -7 -14 -10 -23 -10h-60c-11 0 -18 6 -21 10l-148 163c-14 16 -7 33 1 35l73 1c3 2 7 3 10 3c14 0 25 -16 34 -27z" />
    <glyph glyph-name="ycircumflex" unicode="&#x177;" horiz-adv-x="763" 
d="M506 344v642c0 26 23 38 33 38h120c14 0 27 -12 27 -32v-993c0 -198 -122 -317 -312 -317c-111 0 -206 35 -261 83c-15 12 -19 30 -9 44l36 79c5 8 12 11 19 11s15 -4 22 -10c36 -31 106 -59 166 -59c84 0 159 48 159 169v105c-50 -37 -108 -59 -166 -59
c-159 0 -269 119 -269 289v659c0 20 13 31 27 31h127c13 0 26 -11 26 -31v-663c2 -66 50 -125 128 -125c69 0 127 66 127 139zM595 1119l-66 -1c-4 -2 -9 -2 -13 -2c-10 0 -19 5 -28 15l-94 111l-82 -95c-9 -11 -20 -27 -34 -27c-3 0 -6 1 -10 3l-73 1c-8 2 -15 18 -1 34
l148 164c3 4 10 10 21 10h60c9 0 17 -4 22 -10l151 -169c14 -15 8 -32 -1 -34z" />
    <glyph glyph-name="ydieresis" unicode="&#xff;" horiz-adv-x="763" 
d="M506 344v642c0 26 23 38 33 38h120c14 0 27 -12 27 -32v-993c0 -198 -122 -317 -312 -317c-111 0 -206 35 -261 83c-15 12 -19 30 -9 44l36 79c5 8 12 11 19 11s15 -4 22 -10c36 -31 106 -59 166 -59c84 0 159 48 159 169v105c-50 -37 -108 -59 -166 -59
c-159 0 -269 119 -269 289v659c0 20 13 31 27 31h127c13 0 26 -11 26 -31v-663c2 -66 50 -125 128 -125c69 0 127 66 127 139zM567 1256v-84c0 -26 -15 -33 -29 -33h-83c-15 0 -31 9 -31 32v86c0 20 11 34 32 34h82c17 0 29 -12 29 -35zM218 1171v86c0 20 11 34 31 34h82
c17 0 29 -12 29 -35v-84c0 -26 -14 -33 -29 -33h-82c-15 0 -31 9 -31 32z" />
    <glyph glyph-name="wcircumflex" unicode="&#x175;" horiz-adv-x="1186" 
d="M682 991v-698c0 -125 67 -150 120 -150h3c51 0 126 26 129 144v704c0 21 10 33 27 33h126c19 0 27 -18 27 -33v-694c0 -193 -111 -315 -304 -315h-7c-84 0 -163 35 -210 118c-49 -85 -132 -118 -217 -118h-7c-132 0 -292 61 -298 308v701c0 20 8 33 27 33h125
c21 0 27 -19 27 -33v-701c3 -122 68 -147 118 -147h10c48 2 121 32 124 150v698c0 21 10 33 27 33h126c19 0 27 -18 27 -33zM793 1130l-66 -1c-4 -2 -9 -2 -13 -2c-10 0 -19 5 -28 15l-94 111l-82 -95c-9 -11 -20 -27 -34 -27c-3 0 -6 1 -10 3l-73 1c-8 2 -15 18 -1 34
l148 164c3 4 10 10 21 10h60c9 0 17 -4 22 -10l151 -169c14 -15 8 -32 -1 -34z" />
    <glyph glyph-name="wdieresis" unicode="&#x1e85;" horiz-adv-x="1186" 
d="M682 991v-698c0 -125 67 -150 120 -150h3c51 0 126 26 129 144v704c0 21 10 33 27 33h126c19 0 27 -18 27 -33v-694c0 -193 -111 -315 -304 -315h-7c-84 0 -163 35 -210 118c-49 -85 -132 -118 -217 -118h-7c-132 0 -292 61 -298 308v701c0 20 8 33 27 33h125
c21 0 27 -19 27 -33v-701c3 -122 68 -147 118 -147h10c48 2 121 32 124 150v698c0 21 10 33 27 33h126c19 0 27 -18 27 -33zM768 1277v-84c0 -26 -15 -33 -29 -33h-83c-15 0 -31 9 -31 32v86c0 20 11 34 32 34h82c17 0 29 -12 29 -35zM419 1192v86c0 20 11 34 31 34h82
c17 0 29 -12 29 -35v-84c0 -26 -14 -33 -29 -33h-82c-15 0 -31 9 -31 32z" />
    <glyph glyph-name="zcaron" unicode="&#x17e;" horiz-adv-x="639" 
d="M594 887l-342 -697l-22 -31h354c11 0 27 -11 27 -25v-106c0 -20 -16 -28 -27 -28h-532c-13 0 -19 11 -19 25l-2 77c0 6 4 18 8 27c0 1 1 3 2 4l338 705l17 25h-331c-11 0 -22 11 -22 26v107c0 20 11 28 22 28h512c12 0 21 -10 21 -26v-89c0 -5 0 -13 -4 -22zM340 1220
l95 111c9 10 17 15 27 15c4 0 9 0 13 -2l67 -1c9 -2 15 -19 1 -35l-151 -168c-6 -7 -14 -10 -23 -10h-60c-11 0 -18 6 -21 10l-148 163c-14 16 -7 33 1 35l73 1c3 2 7 3 10 3c14 0 25 -16 34 -27z" />
    <glyph glyph-name="scircumflex" unicode="&#x15d;" horiz-adv-x="689" 
d="M472 739v24c0 71 -54 124 -124 124c-72 0 -120 -57 -120 -127c0 -77 46 -98 173 -175c130 -75 248 -173 248 -320c0 -162 -122 -283 -301 -283c-229 0 -308 134 -308 282v23c0 19 14 29 39 29h107c16 0 25 -11 25 -30v-27c0 -70 57 -121 130 -121c71 0 128 55 128 127
c0 81 -103 131 -232 218c-102 65 -187 144 -187 281c0 156 121 278 291 278c184 0 294 -119 294 -282v-26c0 -19 -9 -23 -32 -23h-103c-20 0 -28 10 -28 28zM555 1125l-66 -1c-4 -2 -9 -2 -13 -2c-10 0 -19 5 -28 15l-94 111l-82 -95c-9 -11 -20 -27 -34 -27
c-3 0 -6 1 -10 3l-73 1c-8 2 -15 18 -1 34l148 164c3 4 10 10 21 10h60c9 0 17 -4 22 -10l151 -169c14 -15 8 -32 -1 -34z" />
    <glyph glyph-name="ohungarumlaut" unicode="&#x151;" 
d="M365 883c-74 0 -128 -60 -128 -127v-488c0 -67 55 -127 128 -127c74 0 127 60 127 127v487c0 68 -54 128 -127 128zM672 760v-496c0 -164 -137 -282 -308 -282c-169 0 -306 118 -306 282v496c0 157 137 282 305 282c172 0 309 -118 309 -282zM249 1127h-77
c-18 0 -31 17 -20 44l76 166c9 24 17 30 35 30h98c21 0 30 -22 18 -45l-88 -166c-14 -25 -27 -29 -42 -29zM555 1367h97c21 0 30 -22 18 -45l-88 -166c-14 -25 -26 -29 -42 -29h-77c-18 0 -31 17 -20 44l76 166c9 24 17 30 36 30z" />
    <glyph glyph-name="odieresis" unicode="&#xf6;" 
d="M365 883c-74 0 -128 -60 -128 -127v-488c0 -67 55 -127 128 -127c74 0 127 60 127 127v487c0 68 -54 128 -127 128zM672 760v-496c0 -164 -137 -282 -308 -282c-169 0 -306 118 -306 282v496c0 157 137 282 305 282c172 0 309 -118 309 -282zM191 1187v86
c0 20 11 34 31 34h82c17 0 29 -12 29 -35v-84c0 -26 -14 -33 -29 -33h-82c-15 0 -31 9 -31 32zM540 1272v-84c0 -26 -15 -33 -29 -33h-83c-15 0 -31 9 -31 32v86c0 20 11 34 32 34h82c17 0 29 -12 29 -35z" />
    <glyph glyph-name="gdotaccent" unicode="&#x121;" horiz-adv-x="772" 
d="M492 541v214c0 68 -54 128 -127 128c-74 0 -128 -60 -128 -127v-215c0 -67 55 -127 128 -127c74 0 127 60 127 127zM320 90h144c143 0 250 -44 250 -223v-167c0 -17 -9 -27 -26 -27h-132c-15 0 -22 13 -22 26v124c0 80 -42 108 -120 108l-150 1h-13
c-120 0 -196 110 -196 206v22c0 81 34 152 71 199c-43 51 -68 120 -68 201v178c0 179 137 304 305 304c39 0 76 -7 111 -18h229c22 0 31 -10 31 -26v-87c0 -16 -8 -27 -30 -27h-66c22 -42 34 -92 34 -147v-174c0 -190 -137 -308 -308 -308c-41 0 -80 7 -116 20
c-20 -24 -27 -51 -27 -91v-3c0 -49 41 -91 99 -91zM442 1291v-93c0 -28 -15 -37 -32 -37h-96c-16 0 -34 11 -34 37v94c0 22 13 38 34 38h96c19 0 32 -14 32 -39z" />
    <glyph glyph-name="imacron" unicode="&#x12b;" horiz-adv-x="331" 
d="M256 996v-965c0 -19 -12 -31 -33 -31h-118c-20 0 -30 12 -30 31v965c0 15 12 28 30 28h118c19 0 33 -15 33 -28zM368 1242v-62c0 -19 -16 -26 -30 -26h-355c-7 0 -26 4 -26 26v61c0 17 16 26 26 26h356c14 0 29 -7 29 -25z" />
    <glyph glyph-name="lcaron" unicode="&#x13e;" horiz-adv-x="550" 
d="M407 132v-103c0 -12 -3 -29 -44 -29h-56c-134 0 -228 64 -228 247v1104c0 19 10 32 29 32h122c19 0 29 -13 29 -32v-1095c0 -57 26 -93 93 -93h28c25 0 27 -20 27 -31zM543 1343v-87c0 -96 -39 -141 -65 -166c-6 -6 -12 -8 -17 -8c-4 0 -9 1 -13 5l-26 21
c-13 11 -4 23 2 30c19 22 31 46 31 66c0 15 1 27 -7 27h-26c-16 0 -30 10 -30 36v76c0 20 9 40 34 40h83c22 0 34 -13 34 -40z" />
    <glyph glyph-name="lcommaaccent" unicode="&#x13c;" horiz-adv-x="438" 
d="M407 132v-103c0 -12 -3 -29 -44 -29h-56c-134 0 -228 64 -228 247v1104c0 19 10 32 29 32h122c19 0 29 -13 29 -32v-1095c0 -57 26 -93 93 -93h28c25 0 27 -20 27 -31zM259 -176v-87c0 -96 -39 -141 -65 -166c-6 -6 -12 -8 -17 -8c-4 0 -9 1 -13 5l-26 21
c-13 11 -4 23 2 30c19 22 31 46 31 66c0 15 1 27 -7 27h-26c-16 0 -30 10 -30 36v76c0 20 9 40 34 40h83c22 0 34 -13 34 -40z" />
    <glyph glyph-name="ldot" unicode="&#x140;" horiz-adv-x="598" 
d="M407 132v-103c0 -12 -3 -29 -44 -29h-56c-134 0 -228 64 -228 247v1104c0 19 10 32 29 32h122c19 0 29 -13 29 -32v-1095c0 -57 26 -93 93 -93h28c25 0 27 -20 27 -31zM553 675v-93c0 -28 -15 -37 -32 -37h-96c-16 0 -34 11 -34 37v94c0 22 13 38 34 38h96
c19 0 32 -14 32 -39z" />
    <glyph glyph-name="eacute" unicode="&#xe9;" horiz-adv-x="709" 
d="M368 886c-74 0 -130 -59 -130 -127v-155h254v155c0 68 -51 127 -124 127zM655 300v-36c0 -156 -119 -282 -291 -282c-169 0 -306 126 -306 282v496c0 156 137 282 306 282c172 0 293 -126 293 -282v-252c0 -19 -13 -31 -31 -31h-388v-213c0 -67 56 -126 130 -126
c75 0 124 61 124 128v36c0 16 12 24 26 24h114c12 0 23 -4 23 -26zM427 1369h97c22 0 30 -22 18 -45l-88 -166c-14 -25 -26 -29 -42 -29h-77c-17 0 -31 18 -20 45l76 166c9 23 18 29 36 29z" />
    <glyph glyph-name="egrave" unicode="&#xe8;" horiz-adv-x="709" 
d="M368 886c-74 0 -130 -59 -130 -127v-155h254v155c0 68 -51 127 -124 127zM655 300v-36c0 -156 -119 -282 -291 -282c-169 0 -306 126 -306 282v496c0 156 137 282 306 282c172 0 293 -126 293 -282v-252c0 -19 -13 -31 -31 -31h-388v-213c0 -67 56 -126 130 -126
c75 0 124 61 124 128v36c0 16 12 24 26 24h114c12 0 23 -4 23 -26zM347 1345l76 -166c11 -26 -3 -44 -20 -44h-77c-16 0 -28 4 -42 29l-88 166c-12 23 -4 45 18 45h97c19 0 27 -6 36 -30z" />
    <glyph glyph-name="rcommaaccent" unicode="&#x157;" horiz-adv-x="520" 
d="M512 1002v-92c0 -25 -22 -33 -43 -33c-23 1 -42 1 -64 1c-100 0 -162 -76 -162 -176v-662c0 -28 -22 -40 -36 -40h-117c-14 0 -26 12 -26 32v692c0 225 175 318 312 318c43 0 80 0 107 -6c19 -4 29 -16 29 -34zM244 -147v-87c0 -96 -39 -141 -65 -166
c-6 -6 -12 -8 -17 -8c-4 0 -9 1 -13 5l-26 21c-13 11 -4 23 2 30c19 22 31 46 31 66c0 15 1 27 -7 27h-26c-16 0 -30 10 -30 36v76c0 20 9 40 34 40h83c22 0 34 -13 34 -40z" />
    <glyph glyph-name="tcommaaccent" unicode="&#x163;" horiz-adv-x="480" 
d="M396 0h-56c-134 0 -228 64 -228 247v616h-73c-10 0 -27 12 -27 33v96c0 22 17 32 27 32h73v161c0 20 8 32 26 35l121 36c21 0 33 -9 33 -31v-201h124c13 0 25 -10 25 -31v-97c0 -18 -11 -33 -28 -33h-121v-607c0 -57 26 -93 93 -93h28c25 0 27 -20 27 -31v-103
c0 -12 -3 -29 -44 -29zM343 -121v-87c0 -96 -39 -141 -65 -166c-6 -6 -12 -8 -17 -8c-4 0 -9 1 -13 5l-26 21c-13 11 -4 23 2 30c19 22 31 46 31 66c0 15 1 27 -7 27h-26c-16 0 -30 10 -30 36v76c0 20 9 40 34 40h83c22 0 34 -13 34 -40z" />
    <glyph glyph-name="Scommaaccent" unicode="&#x218;" horiz-adv-x="791" 
d="M548 1005v58c0 87 -53 170 -152 170c-64 0 -157 -42 -157 -180c0 -123 93 -184 178 -253c191 -157 328 -245 328 -494c0 -173 -142 -327 -345 -327c-200 0 -336 142 -336 341v52c0 26 5 40 30 40h118c23 0 30 -11 30 -36v-47c0 -133 93 -178 159 -178
c89 0 164 68 164 164c0 129 -60 179 -215 308c-177 144 -286 222 -286 435c0 271 223 346 331 346c196 0 329 -144 329 -340v-59c0 -25 -7 -36 -34 -36h-115c-22 0 -27 12 -27 36zM482 -160v-87c0 -96 -39 -141 -65 -166c-6 -6 -12 -8 -17 -8c-4 0 -9 1 -13 5l-26 21
c-13 11 -4 23 2 30c19 22 31 46 31 66c0 15 1 27 -7 27h-26c-16 0 -30 10 -30 36v76c0 20 9 40 34 40h83c22 0 34 -13 34 -40z" />
    <glyph glyph-name="Tcommaaccent" unicode="&#x162;" horiz-adv-x="650" 
d="M621 1210h-201v-1178c0 -21 -13 -32 -26 -32h-135c-15 0 -28 11 -28 32v1178h-201c-13 0 -27 10 -27 32v109c0 21 14 32 27 32h591c14 0 27 -9 27 -31v-110c0 -22 -13 -32 -27 -32zM412 -132v-87c0 -96 -39 -141 -65 -166c-6 -6 -12 -8 -17 -8c-4 0 -9 1 -13 5l-26 21
c-13 11 -4 23 2 30c19 22 31 46 31 66c0 15 1 27 -7 27h-26c-16 0 -30 10 -30 36v76c0 20 9 40 34 40h83c22 0 34 -13 34 -40z" />
    <glyph glyph-name="Lcommaaccent" unicode="&#x13b;" horiz-adv-x="701" 
d="M644 0h-512c-22 0 -32 14 -32 36v1311c0 21 10 36 30 36h129c20 0 30 -15 30 -36v-1176h355c15 0 27 -6 27 -28v-111c0 -22 -12 -32 -27 -32zM458 -176v-87c0 -96 -39 -141 -65 -166c-6 -6 -12 -8 -17 -8c-4 0 -9 1 -13 5l-26 21c-13 11 -4 23 2 30c19 22 31 46 31 66
c0 15 1 27 -7 27h-26c-16 0 -30 10 -30 36v76c0 20 9 40 34 40h83c22 0 34 -13 34 -40z" />
    <glyph glyph-name="Lcaron" unicode="&#x13d;" horiz-adv-x="705" 
d="M644 0h-512c-22 0 -32 14 -32 36v1311c0 21 10 36 30 36h129c20 0 30 -15 30 -36v-1176h355c15 0 27 -6 27 -28v-111c0 -22 -12 -32 -27 -32zM666 1349v-87c0 -96 -39 -141 -65 -166c-6 -6 -12 -8 -17 -8c-4 0 -9 1 -13 5l-26 21c-13 11 -4 23 2 30c19 22 31 46 31 66
c0 15 1 27 -7 27h-26c-16 0 -30 10 -30 36v76c0 20 9 40 34 40h83c22 0 34 -13 34 -40z" />
    <glyph glyph-name="Gcommaaccent" unicode="&#x122;" horiz-adv-x="818" 
d="M571 311v248h-106c-18 0 -29 9 -29 31v97c0 22 11 31 29 31h251c22 0 33 -14 33 -36v-376c0 -197 -149 -327 -335 -327c-180 0 -343 124 -343 327v770c0 197 157 328 344 328c237 0 328 -192 328 -332v-79c0 -29 -9 -39 -28 -39h-121c-22 0 -28 9 -28 36v78
c0 87 -61 165 -152 165c-90 0 -154 -73 -154 -163v-756c0 -97 72 -163 154 -163c89 0 157 72 157 160zM520 -173v-87c0 -96 -39 -141 -65 -166c-6 -6 -12 -8 -17 -8c-4 0 -9 1 -13 5l-26 21c-13 11 -4 23 2 30c19 22 31 46 31 66c0 15 1 27 -7 27h-26c-16 0 -30 10 -30 36
v76c0 20 9 40 34 40h83c22 0 34 -13 34 -40z" />
    <glyph glyph-name="Kcommaaccent" unicode="&#x136;" horiz-adv-x="855" 
d="M633 1383h119c24 0 31 -22 31 -38v-253c0 -185 -69 -321 -189 -403c126 -82 198 -220 198 -410v-241c0 -17 -8 -38 -32 -38h-119c-19 0 -37 13 -37 40v219c0 203 -74 338 -293 338h-22v-561c0 -22 -8 -36 -29 -36h-128c-22 0 -32 14 -32 36v1311c0 21 11 36 30 36h129
c21 0 30 -15 30 -36v-573h13c219 0 293 135 293 337v232c0 27 18 40 38 40zM528 -140v-87c0 -96 -39 -141 -65 -166c-6 -6 -12 -8 -17 -8c-4 0 -9 1 -13 5l-26 21c-13 11 -4 23 2 30c19 22 31 46 31 66c0 15 1 27 -7 27h-26c-16 0 -30 10 -30 36v76c0 20 9 40 34 40h83
c22 0 34 -13 34 -40z" />
    <glyph glyph-name="Rcommaaccent" unicode="&#x156;" horiz-adv-x="863" 
d="M599 888v151c0 102 -61 171 -161 171h-149v-484h137c117 0 173 63 173 162zM741 0h-119c-20 0 -39 13 -39 40v205c0 246 -100 333 -275 333h-19v-544c0 -21 -10 -34 -30 -34h-129c-21 0 -30 13 -30 34v1313c0 21 12 36 32 36h320c197 0 336 -151 336 -344v-136
c0 -131 -72 -219 -167 -270c101 -72 150 -199 150 -413v-182c0 -16 -7 -38 -30 -38zM512 -109v-87c0 -96 -39 -141 -65 -166c-6 -6 -12 -8 -17 -8c-4 0 -9 1 -13 5l-26 21c-13 11 -4 23 2 30c19 22 31 46 31 66c0 15 1 27 -7 27h-26c-16 0 -30 10 -30 36v76c0 20 9 40 34 40
h83c22 0 34 -13 34 -40z" />
    <glyph glyph-name="scommaaccent" unicode="&#x219;" horiz-adv-x="689" 
d="M472 739v24c0 71 -54 124 -124 124c-72 0 -120 -57 -120 -127c0 -77 46 -98 173 -175c130 -75 248 -173 248 -320c0 -162 -122 -283 -301 -283c-229 0 -308 134 -308 282v23c0 19 14 29 39 29h107c16 0 25 -11 25 -30v-27c0 -70 57 -121 130 -121c71 0 128 55 128 127
c0 81 -103 131 -232 218c-102 65 -187 144 -187 281c0 156 121 278 291 278c184 0 294 -119 294 -282v-26c0 -19 -9 -23 -32 -23h-103c-20 0 -28 10 -28 28zM400 -133v-87c0 -96 -39 -141 -65 -166c-6 -6 -12 -8 -17 -8c-4 0 -9 1 -13 5l-26 21c-13 11 -4 23 2 30
c19 22 31 46 31 66c0 15 1 27 -7 27h-26c-16 0 -30 10 -30 36v76c0 20 9 40 34 40h83c22 0 34 -13 34 -40z" />
    <glyph glyph-name="ncommaaccent" unicode="&#x146;" horiz-adv-x="761" 
d="M662 0h-126c-14 0 -27 11 -27 31v719c0 69 -46 133 -127 133c-75 0 -126 -58 -128 -129v-722c0 -20 -12 -32 -26 -32h-127c-13 0 -27 12 -27 32v722c0 154 127 288 303 288c197 0 312 -131 312 -288v-723c0 -20 -14 -31 -27 -31zM450 -104v-87c0 -96 -39 -141 -65 -166
c-6 -6 -12 -8 -17 -8c-4 0 -9 1 -13 5l-26 21c-13 11 -4 23 2 30c19 22 31 46 31 66c0 15 1 27 -7 27h-26c-16 0 -30 10 -30 36v76c0 20 9 40 34 40h83c22 0 34 -13 34 -40z" />
    <glyph glyph-name="napostrophe" unicode="&#x149;" horiz-adv-x="917" 
d="M823 0h-126c-14 0 -27 11 -27 31v719c0 69 -46 133 -127 133c-75 0 -126 -58 -128 -129v-722c0 -20 -12 -32 -26 -32h-127c-13 0 -27 12 -27 32v722c0 154 127 288 303 288c197 0 312 -131 312 -288v-723c0 -20 -14 -31 -27 -31zM150 984v-87c0 -96 -39 -141 -65 -166
c-6 -6 -12 -8 -17 -8c-4 0 -9 1 -13 5l-26 21c-13 11 -4 23 2 30c19 22 31 46 31 66c0 15 1 27 -7 27h-26c-16 0 -30 10 -30 36v76c0 20 9 40 34 40h83c22 0 34 -13 34 -40z" />
    <glyph glyph-name="oslashacute" unicode="&#x1ff;" 
d="M238 252l206 603c-21 17 -49 28 -79 28c-74 0 -128 -60 -128 -127v-488c0 -5 0 -11 1 -16zM365 141c74 0 127 60 127 127v471l-198 -577c20 -13 44 -21 71 -21zM499 1014l20 58c6 23 20 32 36 32h30c17 0 25 -14 18 -40l-32 -93c62 -50 101 -124 101 -211v-496
c0 -164 -137 -282 -308 -282c-44 0 -86 9 -124 23l-29 -86c-6 -21 -22 -28 -35 -28h-31c-13 0 -26 14 -19 36l41 118c-67 51 -109 128 -109 219v496c0 157 137 282 305 282c49 0 95 -10 136 -28zM412 1349h97c22 0 30 -22 18 -45l-88 -166c-14 -25 -26 -29 -42 -29h-77
c-17 0 -31 18 -20 45l76 166c9 23 18 29 36 29z" />
    <glyph glyph-name="utilde" unicode="&#x169;" horiz-adv-x="758" 
d="M509 269v724c0 20 13 31 27 31h126c13 0 27 -11 27 -31v-723c0 -157 -115 -288 -312 -288c-176 0 -303 134 -303 288v722c0 20 14 32 27 32h127c14 0 26 -12 26 -32v-717c0 -73 51 -134 128 -134c79 0 125 60 127 128zM464 1258c25 0 45 15 63 48c7 11 15 15 22 15
c9 0 17 -5 24 -10l31 -25c21 -16 19 -31 5 -57c-35 -63 -78 -90 -137 -90c-42 0 -77 27 -108 48c-21 15 -37 27 -58 27c-29 0 -47 -20 -66 -52c-5 -7 -11 -10 -18 -10c-9 0 -19 5 -27 10l-30 25c-20 16 -19 29 -4 55c33 59 80 92 133 92c38 0 70 -20 98 -39
c27 -19 50 -37 72 -37z" />
    <glyph glyph-name="zdotaccent" unicode="&#x17c;" horiz-adv-x="639" 
d="M594 887l-342 -697l-22 -31h354c11 0 27 -11 27 -25v-106c0 -20 -16 -28 -27 -28h-532c-13 0 -19 11 -19 25l-2 77c0 6 4 18 8 27c0 1 1 3 2 4l338 705l17 25h-331c-11 0 -22 11 -22 26v107c0 20 11 28 22 28h512c12 0 21 -10 21 -26v-89c0 -5 0 -13 -4 -22zM425 1277
v-93c0 -28 -15 -37 -32 -37h-96c-16 0 -34 11 -34 37v94c0 22 13 38 34 38h96c19 0 32 -14 32 -39z" />
    <glyph glyph-name="afii10072" unicode="&#x436;" horiz-adv-x="1001" 
d="M551 0h-105c-31 0 -31 23 -31 38v308c-28 19 -64 49 -82 90l-154 -407c-10 -22 -19 -29 -36 -29h-113c-21 0 -35 29 -24 54l202 491l-85 250c-16 49 -33 64 -63 64c-16 0 -25 10 -25 27v112c0 14 8 33 29 33c109 0 162 -31 197 -133l94 -258c10 -30 39 -75 60 -90v435
c0 26 17 39 32 39h101c31 0 35 -25 35 -40v-434c20 17 49 61 61 92l93 257c34 101 88 132 199 132c19 0 27 -19 27 -33v-112c0 -17 -9 -27 -24 -27c-31 0 -48 -15 -64 -64l-85 -250l202 -491c11 -25 -2 -54 -24 -54h-112c-18 0 -27 7 -36 29l-155 408
c-20 -40 -54 -72 -82 -91v-306c0 -20 -7 -40 -32 -40z" />
    <glyph glyph-name="afii10075" unicode="&#x439;" horiz-adv-x="705" 
d="M637 997l1 -968c0 -17 -7 -29 -24 -29h-115c-17 0 -24 12 -24 30l7 635l-233 -641c-7 -18 -15 -24 -28 -24h-123c-16 0 -28 9 -28 29l-1 963c0 20 10 32 27 32h112c15 0 25 -13 25 -31l-8 -638l239 649c6 16 13 20 21 20h129c9 0 23 -10 23 -27zM557 1311
c0 -122 -88 -189 -195 -189s-196 68 -196 189c0 21 13 33 26 33h52c13 0 25 -7 25 -27c0 -40 24 -96 95 -96s94 55 94 96c0 19 10 27 23 27h50c17 0 26 -12 26 -33z" />
    <glyph glyph-name="iotadieresistonos" unicode="&#x390;" horiz-adv-x="339" 
d="M260 996v-965c0 -19 -12 -31 -33 -31h-118c-20 0 -30 12 -30 31v965c0 15 12 28 30 28h118c19 0 33 -15 33 -28zM125 1175l-23 193c-3 20 4 39 28 39h90c26 0 29 -20 27 -39l-23 -195c-1 -19 -7 -31 -21 -31h-59c-14 0 -18 17 -19 33zM49 1097h-87c-15 0 -31 9 -31 32v86
c0 20 11 34 31 34h87c17 0 29 -13 29 -35v-84c0 -26 -14 -33 -29 -33zM271 1129v86c0 20 12 34 32 34h87c17 0 28 -13 28 -35v-84c0 -26 -14 -33 -28 -33h-87c-16 0 -32 9 -32 32z" />
    <glyph glyph-name="afii10056" unicode="&#x407;" horiz-adv-x="389" 
d="M289 1347v-1311c0 -22 -9 -36 -30 -36h-129c-21 0 -30 14 -30 36v1311c0 21 10 36 30 36h129c20 0 30 -15 30 -36zM367 1590v-84c0 -26 -15 -33 -29 -33h-83c-15 0 -31 9 -31 32v86c0 20 11 34 32 34h82c17 0 29 -12 29 -35zM18 1505v86c0 20 11 34 31 34h82
c17 0 29 -12 29 -35v-84c0 -26 -14 -33 -29 -33h-82c-15 0 -31 9 -31 32z" />
    <glyph glyph-name="afii10104" unicode="&#x457;" horiz-adv-x="339" 
d="M260 996v-965c0 -19 -12 -31 -33 -31h-118c-20 0 -30 12 -30 31v965c0 15 12 28 30 28h118c19 0 33 -15 33 -28zM344 1271v-84c0 -26 -15 -33 -29 -33h-83c-15 0 -31 9 -31 32v86c0 20 11 34 32 34h82c17 0 29 -12 29 -35zM-5 1186v86c0 20 11 34 31 34h82
c17 0 29 -12 29 -35v-84c0 -26 -14 -33 -29 -33h-82c-15 0 -31 9 -31 32z" />
    <glyph glyph-name="afii10109" unicode="&#x45c;" horiz-adv-x="736" 
d="M672 0h-112c-18 0 -26 6 -35 29l-165 408c-10 -28 -64 -78 -101 -91v-306c0 -20 -7 -40 -32 -40h-119c-30 0 -30 23 -30 38v948c0 26 16 38 32 38h113c32 0 36 -24 36 -40v-433c24 10 69 52 89 106l86 242c35 101 86 132 197 132c19 0 27 -18 27 -32v-113
c0 -16 -9 -26 -23 -26c-31 0 -47 -16 -64 -65l-85 -241l211 -500c10 -24 -3 -54 -25 -54zM417 1338h97c22 0 30 -22 18 -45l-88 -166c-14 -25 -26 -29 -42 -29h-77c-17 0 -31 18 -20 45l76 166c9 23 18 29 36 29z" />
    <glyph glyph-name="uring" unicode="&#x16f;" horiz-adv-x="758" 
d="M454 1249c0 40 -32 68 -67 68c-34 0 -64 -28 -64 -68s30 -67 64 -67c35 0 67 27 67 67zM509 269v724c0 20 13 31 27 31h126c13 0 27 -11 27 -31v-723c0 -157 -115 -288 -312 -288c-176 0 -303 134 -303 288v722c0 20 14 32 27 32h127c14 0 26 -12 26 -32v-717
c0 -73 51 -134 128 -134c79 0 125 60 127 128zM242 1249c0 80 61 145 145 145s145 -65 145 -145c0 -82 -61 -144 -145 -144s-145 62 -145 144z" />
    <glyph glyph-name="six" unicode="6" horiz-adv-x="803" 
d="M565 306v226c0 87 -60 159 -160 159c-90 0 -162 -72 -162 -160v-225c0 -89 73 -160 161 -160c89 0 161 72 161 160zM701 982h-112c-28 0 -31 13 -31 68c0 128 -85 187 -156 187c-60 0 -159 -28 -159 -190v-289c31 50 100 96 188 96c199 0 309 -126 309 -324v-224
c0 -192 -163 -327 -336 -327c-175 0 -335 137 -335 327v759c0 212 143 339 332 339c180 0 333 -127 333 -353c0 -51 -2 -69 -33 -69z" />
    <glyph glyph-name="three" unicode="3" horiz-adv-x="808" 
d="M748 429v-110c0 -213 -153 -338 -343 -338c-179 0 -346 122 -346 336v65c0 17 8 34 34 34h113c25 0 30 -15 30 -34v-47c0 -132 92 -189 169 -189c61 0 168 28 168 191v90c0 153 -84 208 -194 208c-27 0 -43 10 -43 31v97c0 18 7 36 39 36c70 0 179 37 179 219v32
c0 146 -86 186 -148 186c-99 0 -152 -79 -152 -189v-29c0 -20 -5 -36 -31 -36h-116c-23 0 -29 16 -29 46v25c0 221 130 351 328 351c107 0 325 -75 325 -350v-35c0 -185 -94 -273 -174 -301c95 -23 191 -137 191 -289z" />
    <glyph glyph-name="four" unicode="4" horiz-adv-x="809" 
d="M494 434v638l-290 -638h290zM751 273h-97v-244c0 -16 -8 -29 -21 -29h-117c-17 0 -24 11 -24 30v243h-435c-21 0 -39 17 -39 40v57c0 13 5 26 10 39l429 949c8 17 17 25 32 25l136 -1c18 0 29 -13 29 -33v-922h99c14 0 31 -11 31 -30v-83c0 -21 -11 -41 -33 -41z" />
    <glyph glyph-name="five" unicode="5" horiz-adv-x="810" 
d="M417 146c88 0 161 72 161 160v269c0 89 -53 172 -150 172c-75 0 -118 -24 -158 -95c-17 -32 -20 -71 -37 -71h-119c-21 0 -33 10 -32 38l40 729c1 22 11 34 29 34h528c24 0 35 -13 35 -37v-92c0 -28 -11 -38 -32 -38h-403l-26 -403c25 48 84 102 201 102
c190 0 299 -160 299 -339v-269c0 -181 -150 -327 -336 -327s-336 145 -336 326c0 16 10 32 27 32l123 1c16 0 26 -9 26 -32c0 -88 72 -160 160 -160z" />
    <glyph glyph-name="afii10195" unicode="&#x473;" horiz-adv-x="695" 
d="M492 268v148l-255 61v-209c0 -67 55 -127 128 -127c74 0 127 60 127 127zM237 756v-159l255 -60v218c0 68 -54 128 -127 128c-74 0 -128 -60 -128 -127zM672 760v-496c0 -164 -137 -282 -308 -282c-169 0 -306 118 -306 282v496c0 157 137 282 305 282
c172 0 309 -118 309 -282z" />
    <glyph glyph-name="Asmall" unicode="&#xf761;" horiz-adv-x="640" 
d="M320 778l-11 -72l-81 -377h183l-80 378zM617 0h-119c-15 0 -19 10 -22 27l-36 168h-240l-36 -168c-2 -18 -9 -27 -23 -27h-119c-15 0 -26 19 -22 36l233 962c5 17 15 26 28 26h119c11 0 22 -9 27 -27l233 -961c3 -17 -8 -36 -23 -36z" />
    <glyph glyph-name="Aacutesmall" unicode="&#xf7e1;" horiz-adv-x="640" 
d="M320 778l-11 -72l-81 -377h183l-80 378zM617 0h-119c-15 0 -19 10 -22 27l-36 168h-240l-36 -168c-2 -18 -9 -27 -23 -27h-119c-15 0 -26 19 -22 36l233 962c5 17 15 26 28 26h119c11 0 22 -9 27 -27l233 -961c3 -17 -8 -36 -23 -36zM377 1351h97c22 0 30 -22 18 -45
l-88 -166c-14 -25 -26 -29 -42 -29h-77c-17 0 -31 18 -20 45l76 166c9 23 18 29 36 29z" />
    <glyph glyph-name="Abreve.small" horiz-adv-x="640" 
d="M320 778l-11 -72l-81 -377h183l-80 378zM617 0h-119c-15 0 -19 10 -22 27l-36 168h-240l-36 -168c-2 -18 -9 -27 -23 -27h-119c-15 0 -26 19 -22 36l233 962c5 17 15 26 28 26h119c11 0 22 -9 27 -27l233 -961c3 -17 -8 -36 -23 -36zM516 1308c0 -122 -88 -189 -195 -189
s-196 68 -196 189c0 21 13 33 26 33h52c13 0 25 -7 25 -27c0 -40 24 -96 95 -96s94 55 94 96c0 19 10 27 23 27h50c17 0 26 -12 26 -33z" />
    <glyph glyph-name="Acircumflexsmall" unicode="&#xf7e2;" horiz-adv-x="640" 
d="M320 778l-11 -72l-81 -377h183l-80 378zM617 0h-119c-15 0 -19 10 -22 27l-36 168h-240l-36 -168c-2 -18 -9 -27 -23 -27h-119c-15 0 -26 19 -22 36l233 962c5 17 15 26 28 26h119c11 0 22 -9 27 -27l233 -961c3 -17 -8 -36 -23 -36zM519 1117l-66 -1c-4 -2 -9 -2 -13 -2
c-10 0 -19 5 -28 15l-94 111l-82 -95c-9 -11 -20 -27 -34 -27c-3 0 -6 1 -10 3l-73 1c-8 2 -15 18 -1 34l148 164c3 4 10 10 21 10h60c9 0 17 -4 22 -10l151 -169c14 -15 8 -32 -1 -34z" />
    <glyph glyph-name="Adieresissmall" unicode="&#xf7e4;" horiz-adv-x="640" 
d="M320 778l-11 -72l-81 -377h183l-80 378zM617 0h-119c-15 0 -19 10 -22 27l-36 168h-240l-36 -168c-2 -18 -9 -27 -23 -27h-119c-15 0 -26 19 -22 36l233 962c5 17 15 26 28 26h119c11 0 22 -9 27 -27l233 -961c3 -17 -8 -36 -23 -36zM140 1145v86c0 20 11 34 31 34h82
c17 0 29 -12 29 -35v-84c0 -26 -14 -33 -29 -33h-82c-15 0 -31 9 -31 32zM489 1230v-84c0 -26 -15 -33 -29 -33h-83c-15 0 -31 9 -31 32v86c0 20 11 34 32 34h82c17 0 29 -12 29 -35z" />
    <glyph glyph-name="Agravesmall" unicode="&#xf7e0;" horiz-adv-x="640" 
d="M320 778l-11 -72l-81 -377h183l-80 378zM617 0h-119c-15 0 -19 10 -22 27l-36 168h-240l-36 -168c-2 -18 -9 -27 -23 -27h-119c-15 0 -26 19 -22 36l233 962c5 17 15 26 28 26h119c11 0 22 -9 27 -27l233 -961c3 -17 -8 -36 -23 -36zM303 1325l76 -166
c11 -26 -3 -44 -20 -44h-77c-16 0 -28 4 -42 29l-88 166c-12 23 -4 45 18 45h97c19 0 27 -6 36 -30z" />
    <glyph glyph-name="Amacron.small" horiz-adv-x="640" 
d="M320 778l-11 -72l-81 -377h183l-80 378zM617 0h-119c-15 0 -19 10 -22 27l-36 168h-240l-36 -168c-2 -18 -9 -27 -23 -27h-119c-15 0 -26 19 -22 36l233 962c5 17 15 26 28 26h119c11 0 22 -9 27 -27l233 -961c3 -17 -8 -36 -23 -36zM524 1207v-62c0 -19 -16 -26 -30 -26
h-355c-7 0 -26 4 -26 26v61c0 17 16 26 26 26h356c14 0 29 -7 29 -25z" />
    <glyph glyph-name="Aogonek.small" horiz-adv-x="640" 
d="M320 778l-11 -72l-81 -377h183l-80 378zM599 -327v-63c0 -13 -6 -24 -26 -24h-49c-111 0 -204 52 -204 186c0 96 49 149 90 185l69 58c-1 3 -2 7 -3 12l-36 168h-240l-36 -168c-2 -18 -9 -27 -23 -27h-119c-15 0 -26 19 -22 36l233 962c5 17 15 26 28 26h119
c11 0 22 -9 27 -27l233 -961c1 -5 1 -11 -1 -16c-1 -4 -3 -9 -7 -13l-116 -102c-53 -47 -74 -67 -74 -126c0 -56 31 -84 95 -84h36c20 0 26 -11 26 -22z" />
    <glyph glyph-name="Aringsmall" unicode="&#xf7e5;" horiz-adv-x="640" 
d="M320 778l-11 -72l-81 -377h183l-80 378zM389 1131c0 40 -32 68 -67 68c-34 0 -64 -28 -64 -68s30 -67 64 -67c35 0 67 27 67 67zM177 1131c0 80 61 145 145 145s145 -65 145 -145c0 -52 -25 -97 -65 -122c2 -3 4 -7 5 -12l233 -961c3 -17 -8 -36 -23 -36h-119
c-15 0 -19 10 -22 27l-36 168h-240l-36 -168c-2 -18 -9 -27 -23 -27h-119c-15 0 -26 19 -22 36l233 962c2 5 3 10 6 13c-38 26 -62 69 -62 120z" />
    <glyph glyph-name="Atildesmall" unicode="&#xf7e3;" horiz-adv-x="640" 
d="M320 778l-11 -72l-81 -377h183l-80 378zM617 0h-119c-15 0 -19 10 -22 27l-36 168h-240l-36 -168c-2 -18 -9 -27 -23 -27h-119c-15 0 -26 19 -22 36l233 962c5 17 15 26 28 26h119c11 0 22 -9 27 -27l233 -961c3 -17 -8 -36 -23 -36zM408 1231c25 0 45 15 63 48
c7 11 15 15 22 15c9 0 17 -5 24 -10l31 -25c21 -16 19 -31 5 -57c-35 -63 -78 -90 -137 -90c-42 0 -77 27 -108 48c-21 15 -37 27 -58 27c-29 0 -47 -20 -66 -52c-5 -7 -11 -10 -18 -10c-9 0 -19 5 -27 10l-30 25c-20 16 -19 29 -4 55c33 59 80 92 133 92
c38 0 70 -20 98 -39c27 -19 50 -37 72 -37z" />
    <glyph glyph-name="AEsmall" unicode="&#xf7e6;" horiz-adv-x="911" 
d="M321 365h147v395zM806 467h-179v-323h241c13 0 23 -9 23 -29v-86c0 -20 -10 -29 -23 -29h-381c-12 0 -19 12 -19 31v201h-196l-76 -205c-7 -20 -15 -27 -34 -27h-131c-20 0 -22 20 -14 40l384 961c10 20 19 23 31 23l51 -1c1 1 2 1 4 1h369c13 0 25 -9 25 -28v-88
c0 -20 -12 -29 -25 -29h-229v-274h179c11 0 21 -8 21 -27v-84c0 -19 -10 -27 -21 -27z" />
    <glyph glyph-name="AEacute.small" horiz-adv-x="911" 
d="M321 365h147v395zM806 467h-179v-323h241c13 0 23 -9 23 -29v-86c0 -20 -10 -29 -23 -29h-381c-12 0 -19 12 -19 31v201h-196l-76 -205c-7 -20 -15 -27 -34 -27h-131c-20 0 -22 20 -14 40l384 961c10 20 19 23 31 23l51 -1c1 1 2 1 4 1h369c13 0 25 -9 25 -28v-88
c0 -20 -12 -29 -25 -29h-229v-274h179c11 0 21 -8 21 -27v-84c0 -19 -10 -27 -21 -27zM684 1355h97c22 0 30 -22 18 -45l-88 -166c-14 -25 -26 -29 -42 -29h-77c-17 0 -31 18 -20 45l76 166c9 23 18 29 36 29z" />
    <glyph glyph-name="Bsmall" unicode="&#xf762;" horiz-adv-x="666" 
d="M467 241v111c0 87 -43 121 -93 121h-131v-346h117c48 0 107 29 107 114zM450 694v104c0 79 -58 99 -102 99h-105v-301h109c42 0 98 18 98 98zM619 815v-119c0 -86 -43 -130 -78 -153c40 -17 95 -80 95 -177v-149c0 -146 -113 -217 -226 -217h-309c-18 0 -28 12 -28 32
v958c0 21 10 34 32 34h294c110 0 220 -66 220 -209z" />
    <glyph glyph-name="Csmall" unicode="&#xf763;" horiz-adv-x="702" 
d="M520 350h113c16 0 26 -6 26 -31v-55c0 -156 -124 -282 -296 -282c-168 0 -305 118 -305 282v497c0 155 137 281 305 281c172 0 296 -126 296 -282v-66c0 -27 -9 -32 -25 -32h-109c-22 0 -33 5 -33 32v61c0 67 -50 127 -125 127c-74 0 -130 -59 -130 -126v-488
c0 -67 56 -127 130 -127c75 0 125 61 125 128v49c0 25 10 32 28 32z" />
    <glyph glyph-name="Cacute.small" horiz-adv-x="702" 
d="M520 350h113c16 0 26 -6 26 -31v-55c0 -156 -124 -282 -296 -282c-168 0 -305 118 -305 282v497c0 155 137 281 305 281c172 0 296 -126 296 -282v-66c0 -27 -9 -32 -25 -32h-109c-22 0 -33 5 -33 32v61c0 67 -50 127 -125 127c-74 0 -130 -59 -130 -126v-488
c0 -67 56 -127 130 -127c75 0 125 61 125 128v49c0 25 10 32 28 32zM426 1358h97c22 0 30 -22 18 -45l-88 -166c-14 -25 -26 -29 -42 -29h-77c-17 0 -31 18 -20 45l76 166c9 23 18 29 36 29z" />
    <glyph glyph-name="Ccaron.small" horiz-adv-x="702" 
d="M520 350h113c16 0 26 -6 26 -31v-55c0 -156 -124 -282 -296 -282c-168 0 -305 118 -305 282v497c0 155 137 281 305 281c172 0 296 -126 296 -282v-66c0 -27 -9 -32 -25 -32h-109c-22 0 -33 5 -33 32v61c0 67 -50 127 -125 127c-74 0 -130 -59 -130 -126v-488
c0 -67 56 -127 130 -127c75 0 125 61 125 128v49c0 25 10 32 28 32zM378 1221l95 111c9 10 17 15 27 15c4 0 9 0 13 -2l67 -1c9 -2 15 -19 1 -35l-151 -168c-6 -7 -14 -10 -23 -10h-60c-11 0 -18 6 -21 10l-148 163c-14 16 -7 33 1 35l73 1c3 2 7 3 10 3c14 0 25 -16 34 -27
z" />
    <glyph glyph-name="Ccedillasmall" unicode="&#xf7e7;" horiz-adv-x="702" 
d="M311 -14c-143 21 -253 131 -253 278v497c0 155 137 281 305 281c172 0 296 -126 296 -282v-66c0 -27 -9 -32 -25 -32h-109c-22 0 -33 5 -33 32v61c0 67 -50 127 -125 127c-74 0 -130 -59 -130 -126v-488c0 -67 56 -127 130 -127c75 0 125 61 125 128v49c0 25 10 32 28 32
h113c16 0 26 -6 26 -31v-55c0 -132 -89 -242 -220 -273l11 -18c32 -55 53 -104 53 -154c0 -121 -85 -168 -196 -168h-65c-20 0 -26 13 -26 26v63c0 11 6 20 26 20h49c67 0 90 25 90 74c0 29 -12 59 -32 93l-36 55c-1 1 -1 3 -2 4z" />
    <glyph glyph-name="Ccircumflex.small" horiz-adv-x="702" 
d="M520 350h113c16 0 26 -6 26 -31v-55c0 -156 -124 -282 -296 -282c-168 0 -305 118 -305 282v497c0 155 137 281 305 281c172 0 296 -126 296 -282v-66c0 -27 -9 -32 -25 -32h-109c-22 0 -33 5 -33 32v61c0 67 -50 127 -125 127c-74 0 -130 -59 -130 -126v-488
c0 -67 56 -127 130 -127c75 0 125 61 125 128v49c0 25 10 32 28 32zM570 1119l-66 -1c-4 -2 -9 -2 -13 -2c-10 0 -19 5 -28 15l-94 111l-82 -95c-9 -11 -20 -27 -34 -27c-3 0 -6 1 -10 3l-73 1c-8 2 -15 18 -1 34l148 164c3 4 10 10 21 10h60c9 0 17 -4 22 -10l151 -169
c14 -15 8 -32 -1 -34z" />
    <glyph glyph-name="Cdotaccent.small" horiz-adv-x="702" 
d="M520 350h113c16 0 26 -6 26 -31v-55c0 -156 -124 -282 -296 -282c-168 0 -305 118 -305 282v497c0 155 137 281 305 281c172 0 296 -126 296 -282v-66c0 -27 -9 -32 -25 -32h-109c-22 0 -33 5 -33 32v61c0 67 -50 127 -125 127c-74 0 -130 -59 -130 -126v-488
c0 -67 56 -127 130 -127c75 0 125 61 125 128v49c0 25 10 32 28 32zM449 1271v-93c0 -28 -15 -37 -32 -37h-96c-16 0 -34 11 -34 37v94c0 22 13 38 34 38h96c19 0 32 -14 32 -39z" />
    <glyph glyph-name="Dsmall" unicode="&#xf764;" horiz-adv-x="690" 
d="M333 877h-94v-730h85c56 0 141 21 141 138v456c0 99 -68 136 -132 136zM634 748v-439c0 -222 -144 -309 -306 -309h-225c-24 0 -33 14 -33 41v941c0 30 12 42 32 42h250c145 0 282 -109 282 -276z" />
    <glyph glyph-name="Dcaron.small" horiz-adv-x="690" 
d="M333 877h-94v-730h85c56 0 141 21 141 138v456c0 99 -68 136 -132 136zM634 748v-439c0 -222 -144 -309 -306 -309h-225c-24 0 -33 14 -33 41v941c0 30 12 42 32 42h250c145 0 282 -109 282 -276zM235 1319l82 -95l95 111c9 10 17 15 27 15c4 0 9 0 13 -2l67 -1
c9 -2 15 -19 1 -35l-151 -168c-6 -7 -14 -10 -23 -10h-60c-11 0 -18 6 -21 10l-148 163c-14 16 -7 33 1 35l73 1c3 2 7 3 10 3c14 0 25 -16 34 -27z" />
    <glyph glyph-name="Dcroat.small" horiz-adv-x="690" 
d="M239 412v-265h85c56 0 141 21 141 138v456c0 99 -68 136 -132 136h-94v-322c4 -5 7 -14 7 -27v-92c0 -10 -3 -18 -7 -24zM634 748v-439c0 -222 -144 -309 -306 -309h-225c-24 0 -33 14 -33 41v365h-59c-7 0 -23 9 -23 31v91c0 20 12 31 24 31h58v423c0 30 12 42 32 42
h250c145 0 282 -109 282 -276z" />
    <glyph glyph-name="Esmall" unicode="&#xf765;" horiz-adv-x="587" 
d="M238 144h287c12 0 27 -9 27 -29v-86c0 -20 -15 -29 -27 -29h-432c-13 0 -20 12 -20 31v962c0 19 9 30 19 31h420c13 0 28 -9 28 -28v-87c0 -20 -15 -27 -28 -27h-274v-277h223c12 0 25 -8 25 -27v-84c0 -19 -13 -26 -25 -26h-223v-324z" />
    <glyph glyph-name="Eacutesmall" unicode="&#xf7e9;" horiz-adv-x="587" 
d="M238 144h287c12 0 27 -9 27 -29v-86c0 -20 -15 -29 -27 -29h-432c-13 0 -20 12 -20 31v962c0 19 9 30 19 31h420c13 0 28 -9 28 -28v-87c0 -20 -15 -27 -28 -27h-274v-277h223c12 0 25 -8 25 -27v-84c0 -19 -13 -26 -25 -26h-223v-324zM357 1364h97c22 0 30 -22 18 -45
l-88 -166c-14 -25 -26 -29 -42 -29h-77c-17 0 -31 18 -20 45l76 166c9 23 18 29 36 29z" />
    <glyph glyph-name="Ebreve.small" horiz-adv-x="587" 
d="M238 144h287c12 0 27 -9 27 -29v-86c0 -20 -15 -29 -27 -29h-432c-13 0 -20 12 -20 31v962c0 19 9 30 19 31h420c13 0 28 -9 28 -28v-87c0 -20 -15 -27 -28 -27h-274v-277h223c12 0 25 -8 25 -27v-84c0 -19 -13 -26 -25 -26h-223v-324zM506 1299
c0 -122 -88 -189 -195 -189s-196 68 -196 189c0 21 13 33 26 33h52c13 0 25 -7 25 -27c0 -40 24 -96 95 -96s94 55 94 96c0 19 10 27 23 27h50c17 0 26 -12 26 -33z" />
    <glyph glyph-name="Ecaron.small" horiz-adv-x="587" 
d="M238 144h287c12 0 27 -9 27 -29v-86c0 -20 -15 -29 -27 -29h-432c-13 0 -20 12 -20 31v962c0 19 9 30 19 31h420c13 0 28 -9 28 -28v-87c0 -20 -15 -27 -28 -27h-274v-277h223c12 0 25 -8 25 -27v-84c0 -19 -13 -26 -25 -26h-223v-324zM303 1185l95 111c9 10 17 15 27 15
c4 0 9 0 13 -2l67 -1c9 -2 15 -19 1 -35l-151 -168c-6 -7 -14 -10 -23 -10h-60c-11 0 -18 6 -21 10l-148 163c-14 16 -7 33 1 35l73 1c3 2 7 3 10 3c14 0 25 -16 34 -27z" />
    <glyph glyph-name="Ecircumflexsmall" unicode="&#xf7ea;" horiz-adv-x="587" 
d="M238 468v-324h287c12 0 27 -9 27 -29v-86c0 -20 -15 -29 -27 -29h-432c-13 0 -20 12 -20 31v962c0 19 9 30 19 31h420c13 0 28 -9 28 -28v-87c0 -20 -15 -27 -28 -27h-274v-277h223c12 0 25 -8 25 -27v-84c0 -19 -13 -26 -25 -26h-223zM512 1125l-66 -1
c-4 -2 -9 -2 -13 -2c-10 0 -19 5 -28 15l-94 111l-82 -95c-9 -11 -20 -27 -34 -27c-3 0 -6 1 -10 3l-73 1c-8 2 -15 18 -1 34l148 164c3 4 10 10 21 10h60c9 0 17 -4 22 -10l151 -169c14 -15 8 -32 -1 -34z" />
    <glyph glyph-name="Edieresissmall" unicode="&#xf7eb;" horiz-adv-x="587" 
d="M238 144h287c12 0 27 -9 27 -29v-86c0 -20 -15 -29 -27 -29h-432c-13 0 -20 12 -20 31v962c0 19 9 30 19 31h420c13 0 28 -9 28 -28v-87c0 -20 -15 -27 -28 -27h-274v-277h223c12 0 25 -8 25 -27v-84c0 -19 -13 -26 -25 -26h-223v-324zM481 1242v-84
c0 -26 -15 -33 -29 -33h-83c-15 0 -31 9 -31 32v86c0 20 11 34 32 34h82c17 0 29 -12 29 -35zM132 1157v86c0 20 11 34 31 34h82c17 0 29 -12 29 -35v-84c0 -26 -14 -33 -29 -33h-82c-15 0 -31 9 -31 32z" />
    <glyph glyph-name="Edotaccent.small" horiz-adv-x="587" 
d="M238 144h287c12 0 27 -9 27 -29v-86c0 -20 -15 -29 -27 -29h-432c-13 0 -20 12 -20 31v962c0 19 9 30 19 31h420c13 0 28 -9 28 -28v-87c0 -20 -15 -27 -28 -27h-274v-277h223c12 0 25 -8 25 -27v-84c0 -19 -13 -26 -25 -26h-223v-324zM390 1260v-93
c0 -28 -15 -37 -32 -37h-96c-16 0 -34 11 -34 37v94c0 22 13 38 34 38h96c19 0 32 -14 32 -39z" />
    <glyph glyph-name="Egravesmall" unicode="&#xf7e8;" horiz-adv-x="587" 
d="M238 144h287c12 0 27 -9 27 -29v-86c0 -20 -15 -29 -27 -29h-432c-13 0 -20 12 -20 31v962c0 19 9 30 19 31h420c13 0 28 -9 28 -28v-87c0 -20 -15 -27 -28 -27h-274v-277h223c12 0 25 -8 25 -27v-84c0 -19 -13 -26 -25 -26h-223v-324zM303 1337l76 -166
c11 -26 -3 -44 -20 -44h-77c-16 0 -28 4 -42 29l-88 166c-12 23 -4 45 18 45h97c19 0 27 -6 36 -30z" />
    <glyph glyph-name="Emacron.small" horiz-adv-x="587" 
d="M238 144h287c12 0 27 -9 27 -29v-86c0 -20 -15 -29 -27 -29h-432c-13 0 -20 12 -20 31v962c0 19 9 30 19 31h420c13 0 28 -9 28 -28v-87c0 -20 -15 -27 -28 -27h-274v-277h223c12 0 25 -8 25 -27v-84c0 -19 -13 -26 -25 -26h-223v-324zM499 1221v-62
c0 -19 -16 -26 -30 -26h-355c-7 0 -26 4 -26 26v61c0 17 16 26 26 26h356c14 0 29 -7 29 -25z" />
    <glyph glyph-name="Eogonek.small" horiz-adv-x="587" 
d="M511 -327v-63c0 -13 -6 -24 -26 -24h-49c-111 0 -204 52 -204 186c0 96 49 149 90 185l51 43h-280c-13 0 -20 12 -20 31v962c0 19 9 30 19 31h420c13 0 28 -9 28 -28v-87c0 -20 -15 -27 -28 -27h-274v-277h223c12 0 25 -8 25 -27v-84c0 -19 -13 -26 -25 -26h-223v-324
h287c12 0 27 -9 27 -29v-86c0 -3 0 -5 -1 -8c0 -5 -2 -10 -7 -14l-116 -102c-53 -47 -74 -67 -74 -126c0 -56 31 -84 95 -84h36c20 0 26 -11 26 -22z" />
    <glyph glyph-name="Fsmall" unicode="&#xf766;" horiz-adv-x="543" 
d="M92 1024h421c13 0 22 -8 22 -28v-85c0 -20 -9 -29 -22 -29h-273v-308h222c12 0 22 -7 22 -26v-84c0 -19 -10 -27 -22 -27h-222v-406c0 -19 -8 -31 -24 -31h-119c-15 0 -24 12 -24 31v962c0 20 9 31 19 31z" />
    <glyph glyph-name="Gsmall" unicode="&#xf767;" horiz-adv-x="674" 
d="M462 727v24c0 90 -56 133 -117 133c-38 0 -126 -22 -126 -138v-472c0 -112 88 -134 126 -134c61 0 114 39 116 132v128h-65c-12 0 -26 9 -26 25v73c0 19 12 27 27 27h199c18 0 27 -12 27 -27v-245c0 -183 -148 -272 -269 -272c-146 0 -303 85 -303 297v467
c0 213 157 297 303 297c131 0 269 -95 269 -291v-20c0 -14 -3 -31 -21 -31h-116c-8 0 -24 7 -24 27z" />
    <glyph glyph-name="Gbreve.small" horiz-adv-x="674" 
d="M462 727v24c0 90 -56 133 -117 133c-38 0 -126 -22 -126 -138v-472c0 -112 88 -134 126 -134c61 0 114 39 116 132v128h-65c-12 0 -26 9 -26 25v73c0 19 12 27 27 27h199c18 0 27 -12 27 -27v-245c0 -183 -148 -272 -269 -272c-146 0 -303 85 -303 297v467
c0 213 157 297 303 297c131 0 269 -95 269 -291v-20c0 -14 -3 -31 -21 -31h-116c-8 0 -24 7 -24 27zM548 1315c0 -122 -88 -189 -195 -189s-196 68 -196 189c0 21 13 33 26 33h52c13 0 25 -7 25 -27c0 -40 24 -96 95 -96s94 55 94 96c0 19 10 27 23 27h50
c17 0 26 -12 26 -33z" />
    </font>
</defs>
</svg>
