<?xml version="1.0" encoding="utf-8"?>
<!-- Generator: Adobe Illustrator 19.0.1, SVG Export Plug-In . SVG Version: 6.00 Build 0)  -->
<svg version="1.1" id="Слой_1" xmlns="http://www.w3.org/2000/svg" xmlns:xlink="http://www.w3.org/1999/xlink" x="0px" y="0px"
	 viewBox="0 0 100 100" style="enable-background:new 0 0 100 100;" xml:space="preserve">
<style type="text/css">
	.st0{fill:#F9CA03;}
	.st1{fill:#FFFFFF;}
</style>
<g>
	<path class="st0" d="M79,22.2c-5.4-10.7-15.8-17.4-27.6-18c-1.1,0-2.2,0-3.4,0c-11.9,0.5-22.2,7.3-27.6,18c-5.6,11-4.8,23.7,2.1,34
		l24.7,36.7c0.6,0.8,1.5,1.3,2.5,1.3s1.9-0.5,2.5-1.3l24.7-36.7C83.8,46,84.5,33.3,79,22.2z"/>
	<path class="st1" d="M64.5,62.8h-9c0,0,0.5-7.4-5.4-7.3c-6.7,0-5.7,7.3-5.7,7.3h-9.2V15.6h9.2c0,0,1.5,6.6,5.4,6.6
		c3.3,0,5.3-6.6,5.3-6.6h9.4V62.8z"/>
	<g>
		<g>
			<path class="st0" d="M63.7,15.3h-8.3c-0.6,0-1.1,0.5-1.1,1.1c0,2.5-2,4.6-4.6,4.6s-4.6-2-4.6-4.6c0-0.6-0.5-1.1-1.1-1.1h-8.3
				c-0.6,0-1.1,0.5-1.1,1.1v45.7c0,0.6,0.5,1.1,1.1,1.1H44c0.6,0,1.1-0.5,1.1-1.1c0-2.5,2-4.6,4.6-4.6s4.6,2,4.6,4.6
				c0,0.6,0.5,1.1,1.1,1.1h8.4c0.6,0,1.1-0.5,1.1-1.1V16.4C64.8,15.8,64.4,15.3,63.7,15.3z M56.5,60.9c-0.6-3.2-3.4-5.7-6.8-5.7
				c-3.4,0-6.2,2.5-6.8,5.7h-6.1V28.2h6.9v-2.3h-6.9v-8.3h6.1c0.6,3.2,3.4,5.7,6.8,5.7c3.4,0,6.2-2.5,6.8-5.7h6.1v8.3h-6.9v2.3h6.9
				v32.7H56.5z"/>
			<rect x="45.6" y="25.9" class="st0" width="8.1" height="2.3"/>
			<path class="st0" d="M57.2,39.5l-4.5-0.6l-2-4.1c-0.2-0.4-0.6-0.6-1.1-0.6s-0.8,0.3-1.1,0.6l-2,4.1L42,39.5
				c-0.4,0.1-0.8,0.4-0.9,0.8c-0.1,0.4,0,0.9,0.3,1.2l3.2,3.2L44,49.2c-0.1,0.4,0.1,0.8,0.5,1.1c0.4,0.3,0.8,0.3,1.2,0.1l4-2.1
				l4,2.1c0.1,0.1,0.4,0.1,0.6,0.1s0.5-0.1,0.7-0.2c0.4-0.3,0.6-0.7,0.5-1.1l-0.8-4.4l3.2-3.2c0.3-0.3,0.4-0.8,0.3-1.2
				C58,39.9,57.7,39.5,57.2,39.5z"/>
		</g>
	</g>
</g>
</svg>
