<?xml version="1.0" encoding="utf-8"?>
<!-- Generator: Adobe Illustrator 19.0.1, SVG Export Plug-In . SVG Version: 6.00 Build 0)  -->
<svg version="1.1" id="Слой_1" xmlns="http://www.w3.org/2000/svg" xmlns:xlink="http://www.w3.org/1999/xlink" x="0px" y="0px"
	 viewBox="0 0 100 100" style="enable-background:new 0 0 100 100;" xml:space="preserve">
<style type="text/css">
	.st0{fill:#92D437;}
	.st1{fill:#FFFFFF;}
</style>
<g>
	<path class="st0" d="M79.6,22.7C74.2,12,63.8,5.3,52,4.7c-1.1,0-2.2,0-3.4,0C36.7,5.2,26.4,12,21,22.7c-5.6,11-4.8,23.7,2.1,34
		l24.7,36.7c0.6,0.8,1.5,1.3,2.5,1.3s1.9-0.5,2.5-1.3l24.7-36.7C84.4,46.5,85.1,33.8,79.6,22.7z"/>
	<path class="st1" d="M60.4,41c-1.2,0-2.4,0.3-3.4,1l-2.5-2.7h0.2l4.2-4.2c3.9-3.9,5.9-8.9,5.9-14.3l-2.7,2.7L50.3,35.3L38.5,23.5
		l-2.7-2.7c0,5.4,2.2,10.6,5.9,14.3l4.4,4.2h0.2L43.6,42c-1-0.7-2.2-1-3.4-1c-3.7,0-6.7,3-6.7,6.7s3,6.7,6.7,6.7s6.7-3,6.7-6.7
		c0-1.2-0.3-2.4-1-3.4l4.4-4.4l4.4,4.4c-0.7,1-1,2.2-1,3.4c0,3.7,3,6.7,6.7,6.7s6.7-3,6.7-6.7C67.1,44,64.1,41,60.4,41z M40.2,51.1
		c-1.9,0-3.4-1.5-3.4-3.4s1.5-3.4,3.4-3.4s3.4,1.5,3.4,3.4C43.5,49.6,42,51.1,40.2,51.1z M60.4,51.1c-1.9,0-3.4-1.5-3.4-3.4
		s1.5-3.4,3.4-3.4s3.4,1.5,3.4,3.4C63.7,49.6,62.2,51.1,60.4,51.1z"/>
</g>
</svg>
