<?xml version="1.0" encoding="utf-8"?>
<!-- Generator: Adobe Illustrator 19.0.1, SVG Export Plug-In . SVG Version: 6.00 Build 0)  -->
<svg version="1.1" id="Слой_1" xmlns="http://www.w3.org/2000/svg" xmlns:xlink="http://www.w3.org/1999/xlink" x="0px" y="0px"
	 viewBox="0 0 100 100" style="enable-background:new 0 0 100 100;" xml:space="preserve">
<style type="text/css">
	.st0{fill:#92D437;}
	.st1{fill:#FFFFFF;}
</style>
<g>
	<path class="st0" d="M79.3,23.2c-5.4-10.7-15.8-17.4-27.6-18c-1.1,0-2.2,0-3.4,0c-11.9,0.5-22.2,7.3-27.6,18
		c-5.6,11-4.8,23.7,2.1,34l24.7,36.7c0.6,0.8,1.5,1.3,2.5,1.3s1.9-0.5,2.5-1.3l24.7-36.7C84.1,47,84.8,34.3,79.3,23.2z"/>
	<rect x="44.3" y="26.1" class="st1" width="11.3" height="19"/>
	<circle class="st1" cx="49.8" cy="48.2" r="1.4"/>
	<path class="st1" d="M49.8,15.9c-12,0-21.7,9.7-21.7,21.7s9.7,21.7,21.7,21.7s21.7-9.7,21.7-21.7S61.8,15.9,49.8,15.9z M58.3,49.3
		c0,1.1-0.9,2.1-2.1,2.1H43.5c-1.1,0-2.1-0.9-2.1-2.1V25.7c0-1.2,0.9-2.1,2.1-2.1h12.7c1.2,0,2.1,0.9,2.1,2.1V49.3L58.3,49.3z"/>
</g>
</svg>
