<?xml version="1.0" encoding="utf-8"?>
<!-- Generator: Adobe Illustrator 19.0.1, SVG Export Plug-In . SVG Version: 6.00 Build 0)  -->
<svg version="1.1" id="Слой_1" xmlns="http://www.w3.org/2000/svg" xmlns:xlink="http://www.w3.org/1999/xlink" x="0px" y="0px"
	 viewBox="0 0 100 100" style="enable-background:new 0 0 100 100;" xml:space="preserve">
<style type="text/css">
	.st0{fill:#FC363B;}
	.st1{fill:#FFFFFF;}
</style>
<g>
	<path class="st0" d="M80.1,23.4C74.7,12.7,64.3,6,52.5,5.4c-1.1,0-2.2,0-3.4,0c-11.9,0.5-22.2,7.3-27.6,18c-5.6,11-4.8,23.7,2.1,34
		l24.7,36.7c0.6,0.8,1.5,1.3,2.5,1.3s1.9-0.5,2.5-1.3L78,57.4C84.9,47.2,85.6,34.5,80.1,23.4z"/>
	<path class="st1" d="M67.9,28.4l-3.4-8.7c-0.2-0.4-0.6-0.7-1-0.7H38.2c-0.4,0-0.8,0.3-1,0.7l-3.4,8.7c0,0.1-0.1,0.3-0.1,0.4v2
		c0,1.8,1.3,3.3,3.1,3.8l1.1,7.9v9.9v0.1l0,0v2.8h2.2v-1.8h21.7v1.8H64v-2.8l0,0v-0.1v-9.9l1.1-7.9c1.8-0.5,3.1-2,3.1-3.8v-2
		C68,28.6,67.9,28.5,67.9,28.4z M65.3,27.7h-4l-0.6-6.6h2L65.3,27.7z M46.6,27.7h-4.1l0.6-6.6h3.7L46.6,27.7z M49,21.1h3.7l0.2,6.6
		h-4.1L49,21.1z M42.4,29.8h4.2v0.9l0,0l0,0c0,1-1,1.8-2.1,1.8c-1.2,0-2.1-0.8-2.1-1.8L42.4,29.8L42.4,29.8z M48.7,29.8h4.2v0.9
		c0,1-1,1.8-2.1,1.8c-1.2,0-2.1-0.8-2.1-1.8L48.7,29.8L48.7,29.8z M55.1,29.8h4.2l0.1,0.9c0,1-1,1.8-2.1,1.8c-1.2,0-2.1-0.8-2.1-1.8
		l0,0l0,0L55.1,29.8z M55,27.7l-0.2-6.6h3.7l0.6,6.6H55z M38.9,21.1h2l-0.6,6.6h-4L38.9,21.1z M35.9,30.8v-0.9h4.3l-0.1,0.8l0,0v0.1
		c0,1-1,1.8-2.1,1.8C36.8,32.6,35.9,31.8,35.9,30.8z M39.7,40.3l-0.8-5.7c0.9-0.2,1.7-0.6,2.2-1.2c0.8,0.8,1.9,1.3,3.2,1.3
		s2.4-0.5,3.2-1.3c0.8,0.8,1.9,1.3,3.2,1.3s2.4-0.5,3.2-1.3c0.8,0.8,1.9,1.3,3.2,1.3s2.4-0.5,3.2-1.3c0.6,0.6,1.4,1,2.2,1.2
		l-0.8,5.7H39.7L39.7,40.3z M63.7,32.6c-1.2,0-2.1-0.8-2.1-1.8v-0.1l0,0l-0.1-0.8h4.3v0.9C65.8,31.8,64.8,32.6,63.7,32.6z"/>
</g>
</svg>
