<?xml version="1.0" encoding="utf-8"?>
<!-- Generator: Adobe Illustrator 19.0.1, SVG Export Plug-In . SVG Version: 6.00 Build 0)  -->
<svg version="1.1" id="Слой_1" xmlns="http://www.w3.org/2000/svg" xmlns:xlink="http://www.w3.org/1999/xlink" x="0px" y="0px"
	 viewBox="0 0 100 100" style="enable-background:new 0 0 100 100;" xml:space="preserve">
<style type="text/css">
	.st0{fill:#FF8023;}
	.st1{fill:#FFFFFF;}
</style>
<g>
	<path class="st0" d="M78.8,23.7C73.3,13,62.9,6.3,51.1,5.7c-1.1,0-2.2,0-3.4,0c-11.9,0.5-22.2,7.3-27.6,18c-5.6,11-4.8,23.7,2.1,34
		l24.7,36.7c0.6,0.8,1.5,1.3,2.5,1.3s1.9-0.5,2.5-1.3l24.7-36.7C83.6,47.5,84.3,34.8,78.8,23.7z"/>
	<g transform="translate(0,-952.36218)">
		<path class="st1" d="M49.4,966.2c-4.3,0-7.8,3.5-7.8,7.8v11.4c0,0.5,0.5,1,1,1s1-0.5,1-1V974c0-3.2,2.5-5.7,5.7-5.7
			s5.7,2.5,5.7,5.7v11.4c0,0.5,0.5,1,1,1s1-0.5,1-1V974C57.3,969.7,53.8,966.2,49.4,966.2z M36.6,978.6l-2.6,31h31l-2.6-31h-4.1v4.7
			c0.3,0.4,0.5,1,0.5,1.5c0,1.4-1.2,2.6-2.6,2.6c-1.4,0-2.6-1.2-2.6-2.6c0-0.6,0.2-1.1,0.5-1.5v-4.7h-9.3v4.7c0.3,0.4,0.5,1,0.5,1.5
			c0,1.4-1.2,2.6-2.6,2.6c-1.4,0-2.6-1.2-2.6-2.6c0-0.6,0.2-1.1,0.5-1.5v-4.7H36.6z"/>
	</g>
</g>
</svg>
