<?xml version="1.0" encoding="utf-8"?>
<!-- Generator: Adobe Illustrator 19.0.1, SVG Export Plug-In . SVG Version: 6.00 Build 0)  -->
<svg version="1.1" id="Слой_1" xmlns="http://www.w3.org/2000/svg" xmlns:xlink="http://www.w3.org/1999/xlink" x="0px" y="0px"
	 viewBox="0 0 100 100" style="enable-background:new 0 0 100 100;" xml:space="preserve">
<style type="text/css">
	.st0{fill:#FF8023;}
	.st1{fill:#FFFFFF;}
</style>
<g>
	<path class="st0" d="M79.3,23.2c-5.4-10.7-15.8-17.4-27.6-18c-1.1,0-2.2,0-3.4,0c-11.9,0.5-22.2,7.3-27.6,18
		c-5.6,11-4.8,23.7,2.1,34l24.7,36.7c0.6,0.8,1.5,1.3,2.5,1.3s1.9-0.5,2.5-1.3l24.7-36.7C84.1,47,84.8,34.3,79.3,23.2z"/>
	<g>
		<g>
			<g>
				<path class="st1" d="M41.5,32c-3.3,0-6,2.7-6,6v12.2c0,0.6,0.5,1.2,1.2,1.2h9.7c0.6,0,1.2-0.5,1.2-1.2V38
					C47.5,34.7,44.8,32,41.5,32z"/>
				<path class="st1" d="M37.4,53.7v0.9c0,0.6,0.5,1.2,1.2,1.2h5.8c0.6,0,1.2-0.5,1.2-1.2v-1L37.4,53.7L37.4,53.7z"/>
			</g>
			<g>
				<path class="st1" d="M63.4,39.7h-9.7c-0.6,0-1.2,0.5-1.2,1.2v13.8c0,0.6,0.5,1.2,1.2,1.2h9.7c0.6,0,1.2-0.5,1.2-1.2V40.9
					C64.5,40.2,64,39.7,63.4,39.7z"/>
				<path class="st1" d="M61.9,26.2v-6.8c0-0.6-0.5-1.2-1.2-1.2c-3.9,0-5.5,3.3-5.5,3.4c-0.1,0.2-0.1,0.3-0.1,0.5v4
					C55.1,26.2,61.9,26.2,61.9,26.2z"/>
				<path class="st1" d="M62.9,37.4v-7.8c0-0.6-0.5-1.2-1.2-1.2h-6.4c-0.6,0-1.2,0.5-1.2,1.2v7.8H62.9z"/>
			</g>
		</g>
	</g>
</g>
</svg>
