<svg width="55" height="55" viewBox="0 0 55 55" fill="none" xmlns="http://www.w3.org/2000/svg">
<circle cx="27.5" cy="27.5" r="27.5" fill="#F95611"/>
<path d="M18 13.4091C18 12.6309 17.3284 12 16.5 12C15.6716 12 15 12.6309 15 13.4091V41.5909C15 42.3691 15.6716 43 16.5 43C17.3284 43 18 42.3691 18 41.5909V13.4091Z" fill="white"/>
<path fill-rule="evenodd" clip-rule="evenodd" d="M16.4202 15C15.6358 15 15 14.3342 15 13.5C15 12.6716 15.6354 12 16.4202 12L30.5798 12C31.3642 12 32 12.6658 32 13.5C32 14.3284 31.3646 15 30.5798 15H16.4202Z" fill="white"/>
<path d="M16.4167 40C15.6343 40 15 40.6716 15 41.5C15 42.3284 15.6343 43 16.4167 43H30.5833C31.3657 43 32 42.3284 32 41.5C32 40.6716 31.3657 40 30.5833 40H16.4167Z" fill="white"/>
<path fill-rule="evenodd" clip-rule="evenodd" d="M22.4434 29C21.6462 29 21 28.3342 21 27.5C21 26.6716 21.6515 26 22.4434 26H40.5566C41.3538 26 42 26.6658 42 27.5C42 28.3284 41.3485 29 40.5566 29H22.4434Z" fill="white"/>
<path fill-rule="evenodd" clip-rule="evenodd" d="M43.4033 28.4964L36.4286 35.471C35.8783 36.0213 34.9861 36.0213 34.4359 35.471C33.8856 34.9207 33.8856 34.0286 34.4359 33.4783L40.4141 27.5L34.4359 21.5217C33.8856 20.9714 33.8856 20.0793 34.4359 19.529C34.9861 18.9787 35.8783 18.9787 36.4286 19.529L43.4033 26.5036C43.9535 27.0539 43.9535 27.9461 43.4033 28.4964Z" fill="white"/>
</svg>
