<svg width="29" height="29" viewBox="0 0 29 29" fill="none" xmlns="http://www.w3.org/2000/svg">
<path d="M14.5 0C6.50492 0 0 6.50448 0 14.5C0 22.4955 6.50492 29 14.5 29C22.4951 29 29 22.4955 29 14.5C29 6.50448 22.4951 0 14.5 0ZM14.5 27.2154C7.48869 27.2154 1.78462 21.5113 1.78462 14.5C1.78462 7.48869 7.48869 1.78462 14.5 1.78462C21.5113 1.78462 27.2154 7.48869 27.2154 14.5C27.2154 21.5113 21.5113 27.2154 14.5 27.2154Z" fill="#27CAFF"/>
<path d="M14.5 10C15.3284 10 16 9.32843 16 8.5C16 7.67157 15.3284 7 14.5 7C13.6716 7 13 7.67157 13 8.5C13 9.32843 13.6716 10 14.5 10Z" fill="#27CAFF"/>
<path d="M14.3396 12.6455C13.847 12.6455 13.4473 13.0453 13.4473 13.5378V21.1224C13.4473 21.615 13.847 22.0147 14.3396 22.0147C14.8321 22.0147 15.2319 21.615 15.2319 21.1224V13.5378C15.2319 13.0448 14.8321 12.6455 14.3396 12.6455Z" fill="#27CAFF"/>
</svg>
