<svg width="96" height="131" viewBox="0 0 96 131" fill="none" xmlns="http://www.w3.org/2000/svg">
<path d="M90.6742 26.2C82.8148 10.6256 67.6783 0.873333 50.5042 0C48.9033 0 47.3023 0 45.5558 0C28.2361 0.727778 13.2452 10.6256 5.38585 26.2C-2.76457 42.2111 -1.60022 60.6967 8.44226 75.6889L44.3914 129.108C45.2647 130.272 46.5746 131 48.03 131C49.4854 131 50.7953 130.272 51.6686 129.108L87.6178 75.6889C97.6602 60.8422 98.679 42.3567 90.6742 26.2Z" fill="#92D437"/>
<path d="M63.2016 59.9687L61.0996 39.8457L53.2827 40.6624L55.3847 60.7853L63.2016 59.9687Z" fill="white"/>
<path d="M44.6817 36.6797L37.1135 39.1541C38.1323 42.3564 40.461 52.3997 37.8412 57.3486C37.1135 58.6586 36.2402 59.3864 34.7848 59.823C33.4749 60.1141 31.5828 60.4052 29.2541 58.513C27.7987 57.203 26.9255 55.6019 26.7799 55.4564L20.2305 59.823C22.4136 63.6075 27.6532 68.8475 34.9303 67.8286C35.658 67.683 36.2402 67.5375 36.9679 67.3919C40.461 66.373 43.0808 64.1897 44.8273 60.9875C49.4847 52.2541 45.2639 38.2808 44.6817 36.6797Z" fill="white"/>
<path d="M37.5518 41.0471C37.5518 41.0471 46.2844 41.3382 47.0121 51.9638C47.0121 51.9638 47.5943 44.2493 45.12 37.4082C45.12 37.4082 41.627 37.4082 40.6082 37.6993C39.7349 37.9904 37.4062 39.7371 37.4062 39.7371L37.5518 41.0471Z" fill="white"/>
<path d="M32.3099 43.6663L27.0703 37.6985C27.6525 37.1163 42.789 24.3074 65.9304 29.4019L64.1838 37.1163C44.9721 32.7497 32.4554 43.5208 32.3099 43.6663Z" fill="white"/>
<path d="M67.0957 63.7524C67.0957 66.0813 68.9878 67.9735 71.3165 67.9735C73.6451 67.9735 75.5372 66.0813 75.5372 63.7524C75.5372 61.4235 73.6451 59.5312 71.3165 59.5312C68.9878 59.5312 67.0957 61.4235 67.0957 63.7524Z" fill="white"/>
</svg>
