<svg xmlns="http://www.w3.org/2000/svg" width="1914.9999997019768" height="374.00000678002834" fill="none" style=""><rect id="backgroundrect" width="100%" height="100%" x="0" y="0" fill="none" stroke="none"/>

<g class="currentLayer" style=""><title>Layer 1</title><path d="M-62.0003,27.200000000000045 L7.29958,147.20000000000005 C8.89955,150.10000000000002 10.4997,153.10000000000002 11.9997,156.20000000000005 C30.2997,194 33.4996,232.79999999999995 30.9996,265.9 C35.2997,262.1 41.2996,256.79999999999995 48.7996,250.60000000000002 C58.4995,242.5 88.1996,218.5 128.1,194.29999999999995 C147.3,182.70000000000005 192.5,155.70000000000005 256.6,134.29999999999995 C256.6,134.29999999999995 332.2,109 416.6,102.29999999999995 C432,101.10000000000002 455.2,99.89999999999998 492.1,95.79999999999995 C516.6,93.10000000000002 524.1,91.70000000000005 547.1,89.79999999999995 C570.2,87.89999999999998 576.9,88.20000000000005 595.4,86.10000000000002 C613.1,84.10000000000002 631.2,81.10000000000002 643.1,78.39999999999998 C662.2,74.10000000000002 695,63.799999999999955 734.8,36.10000000000002 L737.6,34.5 C736.9,37.200000000000045 735.8,41.799999999999955 735,47.60000000000002 C735,47.60000000000002 733,61.60000000000002 734.2,77.29999999999995 C735.4,93.29999999999995 750.5,158.5 776.7,245.79999999999995 L778.3,248.89999999999998 C778.9,247.89999999999998 779.9,246.5 781.2,244.79999999999995 C791.3,231.20000000000005 803.4,224.29999999999995 810.2,220.5 C824.8,212.39999999999998 845.6,205.29999999999995 854,207 C855,207.20000000000005 858.9,208.20000000000005 862.5,206.20000000000005 C864.5,205.10000000000002 865.6,203.5 866,202.89999999999998 C873.1,193.10000000000002 900.6,187.10000000000002 902.8,186.60000000000002 C903.6,186.39999999999998 905.6,186 907.8,184.60000000000002 C910.9,182.60000000000002 912.4,179.79999999999995 913.1,178.60000000000002 C917.3,171 924.7,165.10000000000002 930.6,160.29999999999995 C934.6,157.10000000000002 936.6,155.5 939.6,154.29999999999995 C944.3,152.39999999999998 953.2,150.5 957.6,152.29999999999995 C958,152.5 959.2,153 960.4,152.60000000000002 C961.9,152 962.5,150.10000000000002 962.7,149.60000000000002 C964.1,145.39999999999998 975.3,138.60000000000002 986.7,136.10000000000002 C988.4,135.70000000000005 1001.2,133.29999999999995 1011.5,137.29999999999995 C1013.2,138 1018.2,140.10000000000002 1024.4,139.29999999999995 C1025.8,139.10000000000002 1027,138.79999999999995 1028.3,138.39999999999998 C1037.5,135.60000000000002 1041.7,132 1050.6,128.39999999999998 C1056.3,126.10000000000002 1059.1,125 1062.1,125.39999999999998 C1066.3,126 1069.7,128.60000000000002 1075.4,132.89999999999998 C1079.6,136.10000000000002 1082.1,138.70000000000005 1086.2,138.70000000000005 C1087.7,138.70000000000005 1088.7,138.29999999999995 1090,137.89999999999998 C1090,137.89999999999998 1096.6,135.79999999999995 1105,135.10000000000002 C1108.1,134.79999999999995 1109.9,135.39999999999998 1125,140.89999999999998 C1128.6,142.20000000000005 1133.5,144 1139.3,146.20000000000005 L1142.3,145.39999999999998 C1148.3,145.60000000000002 1157.5,146.60000000000002 1167.9,150.29999999999995 C1184,156.10000000000002 1192.3,164.89999999999998 1208.3,177.39999999999998 C1232.8,196.39999999999998 1231.3,190.10000000000002 1245.3,202.39999999999998 C1253.7,209.79999999999995 1258.8,215.70000000000005 1281.3,236.70000000000005 C1283.9,239.10000000000002 1284.5,239.70000000000005 1285.8,241 C1298.3,253.39999999999998 1304.7,264.9 1308.8,271.79999999999995 C1320.1,290.79999999999995 1320.3,285.1 1332.8,305.5 C1338.5,314.70000000000005 1355,341.79999999999995 1357.8,355.20000000000005 C1357.9,355.9 1358.8,360 1359.8,360 C1360.8,360 1361.1,356.1 1362.3,353.20000000000005 C1365,346.6 1372,344.79999999999995 1376.8,342.20000000000005 C1390.8,334.5 1384.8,320.1 1399.3,307.9 C1409.2,299.6 1412.4,305.9 1423.8,296.70000000000005 C1434.9,287.79999999999995 1437.4,277.29999999999995 1447.1,272.9 C1455.3,269.20000000000005 1459.4,267.29999999999995 1460.3,267.20000000000005 C1461.3,267.1 1463.6,267 1464.4,265.5 C1465.3,264 1463.9,262.29999999999995 1463.8,261 C1462.7,251.60000000000002 1519.9,233.39999999999998 1527.3,233.39999999999998 C1527.7,233.39999999999998 1529.5,233.5 1530.1,232.39999999999998 C1530.7,231.39999999999998 1529.7,229.70000000000005 1529.4,229.39999999999998 C1525.8,223.39999999999998 1531.2,193.5 1531.9,167.60000000000002 C1531.9,167.39999999999998 1531.8,167.10000000000002 1531.9,166.79999999999995 C1533.8,161.20000000000005 1576.3,161.29999999999995 1598.3,176.89999999999998 C1601,178.79999999999995 1608.5,184.5 1613.4,182 C1615.7,180.79999999999995 1616.6,178.39999999999998 1616.8,177.70000000000005 C1622.1,164 1643,142.39999999999998 1661.8,122.70000000000005 C1663.8,120.60000000000002 1667.5,116.89999999999998 1672.8,112.70000000000005 C1678.5,108.20000000000005 1681.3,105.89999999999998 1683,105.70000000000005 C1697.2,103.70000000000005 1718.8,143.60000000000002 1719.8,154 C1719.9,154.60000000000002 1720,156.70000000000005 1721.3,157.29999999999995 C1723.3,158.29999999999995 1726.6,154.89999999999998 1730.6,151.5 C1734.7,148 1739.3,145.10000000000002 1743.4,141.70000000000005 C1759.2,128.29999999999995 1774.8,127.29999999999995 1790.2,111.39999999999998 C1796.1,105.29999999999995 1794.1,105.20000000000005 1802.2,94.89999999999998 C1814.4,79.39999999999998 1822.2,75.5 1856.2,48.200000000000045 C1885.8,24.5 1884.5,23.799999999999955 1891.5,20.899999999999977 C1898.4,18 1909.2,14.699999999999989 1920.8,4.899999999999977 C1925,1.3000000000000114 1928.1,-2.1000000000000227 1930.1,-4.399999999999977 L1930.1,-1853 L-58.6003,-1853 L-62.0003,27.200000000000045 z" fill="#FF861A" id="svg_1" class=""/></g></svg>