<svg width="10" height="17" viewBox="0 0 10 17" fill="none" xmlns="http://www.w3.org/2000/svg">
<path d="M1.67481 16.448C1.47949 16.448 1.28418 16.3737 1.13565 16.2242C0.837594 15.9272 0.837594 15.4429 1.13565 15.1449L8.04903 8.22336L1.13565 1.30287C0.838612 1.00481 0.838612 0.520588 1.13565 0.223545C1.43372 -0.0745151 1.91692 -0.0745151 2.21498 0.223545L9.66649 7.68319C9.96455 7.98125 9.96455 8.46446 9.66649 8.76252L2.21498 16.2222C2.06544 16.3737 1.87012 16.448 1.67481 16.448Z" fill="white"/>
<path d="M1.67481 16.448C1.47949 16.448 1.28418 16.3737 1.13565 16.2242C0.837594 15.9272 0.837594 15.4429 1.13565 15.1449L8.04903 8.22336L1.13565 1.30287C0.838612 1.00481 0.838612 0.520588 1.13565 0.223545C1.43372 -0.0745151 1.91692 -0.0745151 2.21498 0.223545L9.66649 7.68319C9.96455 7.98125 9.96455 8.46446 9.66649 8.76252L2.21498 16.2222C2.06544 16.3737 1.87012 16.448 1.67481 16.448Z" stroke="white"/>
</svg>
