<svg width="1924" height="247" viewBox="0 0 1924 247" fill="none" xmlns="http://www.w3.org/2000/svg">
<path d="M3.05799 133.326C-11.8531 118.407 31.8796 157.155 45.79 161.16C87.8215 173.075 111.439 142.037 153.671 156.454C175.287 163.764 197.304 181.386 199.105 182.887C216.118 196.705 222.723 207.718 237.834 210.722C250.544 213.325 261.052 208.419 272.46 203.213C401.757 144.64 434.282 144.74 420.371 159.759C414.867 165.666 378.14 185.691 377.239 193C376.939 195.703 430.879 187.193 462.403 176.68C470.909 173.876 469.408 169.471 476.613 164.464C494.127 152.249 514.142 152.149 523.449 152.249C561.077 152.65 568.583 172.274 601.507 173.976C617.619 174.777 621.722 170.372 653.746 161.06C703.784 146.442 774.437 125.917 798.955 152.95C799.256 153.251 798.855 152.85 823.374 184.89C829.879 193.401 835.883 201.01 844.39 201.21C845.19 201.21 851.295 201.21 854.597 197.105C858.7 191.999 855.898 183.889 852.596 174.677C846.091 156.655 837.985 154.352 838.985 149.546C842.989 131.524 956.674 143.038 959.976 163.664C960.276 165.666 960.377 173.075 965.58 178.482C966.681 179.583 969.083 182.087 972.185 182.087C975.988 182.087 978.79 178.582 981.392 174.978C990.499 161.761 988.398 156.455 994.602 149.045C1000.11 142.437 1009.01 138.232 1017.52 138.332C1019.12 138.332 1026.33 138.532 1035.83 145.441C1050.14 155.854 1050.64 168.57 1067.86 203.012C1076.96 221.235 1081.27 226.642 1084.17 225.941C1086.57 225.34 1087.27 220.534 1087.77 217.831C1092.98 189.295 1119.3 184.289 1139.71 149.546C1141.31 146.843 1145.42 139.634 1150.42 139.834C1151.72 139.934 1153.12 140.435 1161.63 147.944C1167.03 152.75 1169.03 154.652 1170.23 154.052C1171.44 153.451 1171.13 150.948 1171.23 146.943C1171.43 138.532 1171.54 134.427 1172.74 133.726C1175.74 132.124 1183.44 141.536 1196.65 147.944C1198.26 148.745 1201.06 150.047 1202.26 148.945C1203.86 147.543 1201.56 142.437 1201.26 141.836C1199.46 137.932 1197.45 137.231 1197.65 136.229C1198.26 133.526 1212.77 132.625 1230.78 136.229C1251.6 140.335 1266.31 148.344 1268.41 149.446C1312.44 172.675 1370.18 118.107 1444.54 135.228C1486.97 144.94 1524.3 175.578 1544.31 159.659C1547.72 156.955 1551.32 152.349 1560.13 146.943C1562.73 145.341 1576.34 137.131 1596.25 134.728C1623.27 131.524 1645.89 141.036 1656.1 144.54C1727.85 169.671 1818.52 127.218 1865.16 139.433C1877.47 142.637 1884.67 144.54 1891.58 150.948C1897.18 156.154 1904.59 166.067 1911.29 168.57C1916.59 170.472 1922.2 171.273 1922.2 171.273C1922.9 171.373 1923.6 171.473 1924 171.473L1924 30.0002L2.55764 4.56452e-05C2.6577 460 5.45985 135.629 3.05799 133.326Z" fill="#4CC1DA"/>
</svg>
