<svg width="1924" height="247" viewBox="0 0 1924 247" fill="none" xmlns="http://www.w3.org/2000/svg">
<path d="M3.05799 133.325C-11.8531 118.406 31.8796 157.154 45.79 161.159C87.8215 173.074 111.439 142.036 153.671 156.453C175.287 163.763 197.304 181.385 199.105 182.886C216.118 196.704 222.723 207.717 237.834 210.721C250.544 213.324 261.052 208.418 272.46 203.212C401.757 144.639 434.282 144.739 420.371 159.758C414.867 165.665 378.14 185.69 377.239 192.999C376.939 195.702 430.879 187.192 462.403 176.679C470.909 173.875 469.408 169.47 476.613 164.463C494.127 152.248 514.142 152.148 523.449 152.248C561.077 152.649 568.583 172.273 601.507 173.975C617.619 174.776 621.722 170.371 653.746 161.059C703.784 146.441 774.437 125.916 798.955 152.949C799.256 153.25 798.855 152.849 823.374 184.889C829.879 193.4 835.883 201.009 844.39 201.209C845.19 201.209 851.295 201.209 854.597 197.104C858.7 191.998 855.898 183.888 852.596 174.676C846.091 156.654 837.985 154.351 838.985 149.545C842.989 131.523 956.674 143.037 959.976 163.663C960.276 165.665 960.377 173.074 965.58 178.481C966.681 179.582 969.083 182.086 972.185 182.086C975.988 182.086 978.79 178.581 981.392 174.977C990.499 161.76 988.398 156.454 994.602 149.044C1000.11 142.436 1009.01 138.231 1017.52 138.331C1019.12 138.331 1026.33 138.531 1035.83 145.44C1050.14 155.853 1050.64 168.569 1067.86 203.011C1076.96 221.234 1081.27 226.641 1084.17 225.94C1086.57 225.339 1087.27 220.533 1087.77 217.83C1092.98 189.294 1119.3 184.288 1139.71 149.545C1141.31 146.842 1145.42 139.633 1150.42 139.833C1151.72 139.933 1153.12 140.434 1161.63 147.943C1167.03 152.749 1169.03 154.651 1170.23 154.051C1171.44 153.45 1171.13 150.947 1171.23 146.942C1171.43 138.531 1171.54 134.426 1172.74 133.725C1175.74 132.123 1183.44 141.535 1196.65 147.943C1198.26 148.744 1201.06 150.046 1202.26 148.944C1203.86 147.542 1201.56 142.436 1201.26 141.835C1199.46 137.931 1197.45 137.23 1197.65 136.228C1198.26 133.525 1212.77 132.624 1230.78 136.228C1251.6 140.334 1266.31 148.343 1268.41 149.445C1312.44 172.674 1370.18 118.106 1444.54 135.227C1486.97 144.939 1524.3 175.577 1544.31 159.658C1547.72 156.954 1551.32 152.349 1560.13 146.942C1562.73 145.34 1576.34 137.13 1596.25 134.727C1623.27 131.523 1645.89 141.035 1656.1 144.539C1727.85 169.67 1818.52 127.217 1865.16 139.432C1877.47 142.636 1884.67 144.539 1891.58 150.947C1897.18 156.153 1904.59 166.066 1911.29 168.569C1916.59 170.471 1922.2 171.272 1922.2 171.272C1922.9 171.372 1923.6 171.472 1924 171.472L1924 29.9992L2.55764 -0.000930917C2.6577 459.999 5.45985 135.628 3.05799 133.325Z" fill="#27ACE0"/>
</svg>
